<?xml version="1.0" standalone="no"?>
<!DOCTYPE svg PUBLIC "-//W3C//DTD SVG 1.1//EN" "http://www.w3.org/Graphics/SVG/1.1/DTD/svg11.dtd" >
<svg xmlns="http://www.w3.org/2000/svg">
<metadata>
Created by FontPrep 20130207 at Sun Dec 25 16:39:05 2016
 By Brian R
(c) 2014 Apple Inc. All rights reserved.
</metadata>
<defs>
<font id="3d4f578d6b9f2f50f555d06a03b63db6" horiz-adv-x='1024' >
  <font-face 
    font-family="SanFranciscoDisplay-Medium"
    font-weight="500"
    font-stretch="normal"
    units-per-em="2048"
    panose-1="2 11 5 4 3 2 2 6 2 4"
    ascent="1638"
    descent="-410"
    x-height="1054"
    cap-height="1365"
    bbox="-450 -504 2097 1945"
    underline-thickness="50"
    underline-position="-25"
    unicode-range="U+0020-FB02"
  />
<missing-glyph horiz-adv-x="1293" 
d="M632 1018q56 0 88 -30q33 -30 33 -74q-1 -44 -21 -72t-86 -74t-91 -97q-26 -51 -22 -140h166v15q0 48 19 76t90 78t101 101q30 50 30 116q0 113 -81 181q-82 68 -220 69q-138 0 -220 -76t-79 -203h169q0 58 34 94t90 36zM501 314q-1 -48 33 -78t88 -30t88 30t33 78
q1 48 -33 78t-88 29q-54 0 -88 -30q-33 -29 -33 -77zM120 0v1365h1053v-1365h-1053z" />
    <glyph glyph-name=".notdef" horiz-adv-x="1293" 
d="M632 1018q56 0 88 -30q33 -30 33 -74q-1 -44 -21 -72t-86 -74t-91 -97q-26 -51 -22 -140h166v15q0 48 19 76t90 78t101 101q30 50 30 116q0 113 -81 181q-82 68 -220 69q-138 0 -220 -76t-79 -203h169q0 58 34 94t90 36zM501 314q-1 -48 33 -78t88 -30t88 30t33 78
q1 48 -33 78t-88 29q-54 0 -88 -30q-33 -29 -33 -77zM120 0v1365h1053v-1365h-1053z" />
    <glyph glyph-name=".null" 
 />
    <glyph glyph-name="nonmarkingreturn" 
 />
    <glyph glyph-name="space" unicode=" " horiz-adv-x="408" 
 />
    <glyph glyph-name="exclam" unicode="!" horiz-adv-x="530" 
d="M138 103q0 52 37 87t90 35t90 -35t37 -87t-37 -87t-90 -35t-90 35t-37 87zM152 1365h226l-25 -956h-176z" />
    <glyph glyph-name="quotedbl" unicode="&#x22;" horiz-adv-x="810" 
d="M484 1365h191l-24 -445h-143zM137 1365h191l-24 -445h-143z" />
    <glyph glyph-name="numbersign" unicode="#" horiz-adv-x="1203" 
d="M501 847l-65 -317h283l65 317h-283zM1149 840h-215l-62 -302h204l-31 -156h-205l-77 -382h-158l77 382h-268l-78 -382h-158l76 382h-201l31 156h203l61 302h-192l30 154h194l74 371h160l-76 -371h270l74 371h158l-75 -371h214z" />
    <glyph glyph-name="dollar" unicode="$" horiz-adv-x="1158" 
d="M650 -129h-137v126q-207 17 -317 125t-112 258h184q6 -88 70 -148t177 -75v472l-78 20q-133 33 -226 117q-94 85 -94 238q-1 112 53 196q102 159 343 182v131h138v-131q171 -16 283 -116t117 -256h-181q-3 82 -62 141t-158 72v-444l80 -20q168 -42 256 -128
q88 -87 88 -251t-116 -264t-308 -117v-128zM890 367q0 87 -48 138t-162 86l-15 3t-15 4v-442q108 8 174 66t66 145zM301 1018q0 -148 214 -206v411q-96 -13 -155 -65t-59 -140z" />
    <glyph glyph-name="percent" unicode="%" horiz-adv-x="1518" 
d="M324 0h-167l534 695l510 670h166zM877 326v28q1 140 77 236t206 96t206 -95t77 -240v-27q-1 -142 -77 -239t-207 -97t-207 96t-75 242zM1018 344v-8q0 -100 38 -160t104 -61t104 59t38 160v8q0 98 -37 158t-105 60t-105 -60t-37 -156zM75 1018v28q1 142 77 237t206 95
t206 -95t77 -240v-28q0 -143 -77 -239t-208 -96t-206 96t-75 242zM215 1036v-8q-1 -101 37 -161t105 -60q67 -1 105 59t38 159v9q0 100 -37 159t-105 59t-106 -60q-37 -60 -37 -156z" />
    <glyph glyph-name="ampersand" unicode="&#x26;" horiz-adv-x="1316" 
d="M756 1061q0 77 -49 123t-125 46t-124 -48t-49 -110q1 -64 31 -116t108 -129q104 53 156 105t52 129zM272 372q0 -115 83 -178t183 -63q208 0 319 117l-361 397l-19 -9q-105 -52 -155 -116t-50 -148zM78 358q0 126 69 215t194 158q41 21 53 27q-80 85 -124 157t-44 156
q0 130 101 218t253 88t254 -85t102 -214t-81 -210t-205 -146l312 -339q59 111 59 343v49h178v-54q0 -300 -112 -467l241 -254h-241l-118 127q-175 -154 -429 -154q-202 1 -332 105t-130 280z" />
    <glyph glyph-name="quotesingle" unicode="'" horiz-adv-x="418" 
d="M114 1365h191l-24 -445h-143z" />
    <glyph glyph-name="parenleft" unicode="(" horiz-adv-x="635" 
d="M330 582q0 -138 18 -254q31 -208 87 -337q56 -128 128 -253h-182q-254 309 -254 828q0 422 189 696q30 44 75 101h174q-73 -83 -129 -223q-58 -140 -82 -280t-24 -278z" />
    <glyph glyph-name="parenright" unicode=")" horiz-adv-x="635" 
d="M426 54q-82 -201 -175 -316h-180q131 226 182 415q50 189 50 378q0 348 -82 550t-152 282h173q154 -196 210 -377t56 -456t-82 -476z" />
    <glyph glyph-name="asterisk" unicode="*" horiz-adv-x="930" 
d="M534 737h-137l19 235l-194 -135l-70 121l211 100l-211 99l70 123l195 -140l-20 239h137l-21 -238l196 139l69 -122l-212 -100l212 -100l-69 -121l-195 135z" />
    <glyph glyph-name="plus" unicode="+" horiz-adv-x="1114" 
d="M641 463v-438h-169v438h-403v169h403v417h169v-417h405v-169h-405z" />
    <glyph glyph-name="comma" unicode="," horiz-adv-x="437" 
d="M174 -238h-149l108 424h207z" />
    <glyph glyph-name="hyphen" unicode="-" horiz-adv-x="787" 
d="M708 470h-630v180h630v-180z" />
    <glyph glyph-name="period" unicode="." horiz-adv-x="499" 
d="M122 108q0 52 38 91q38 38 90 38q53 0 91 -38t38 -91q0 -52 -38 -90q-39 -38 -91 -38t-90 38t-38 90z" />
    <glyph glyph-name="slash" unicode="/" horiz-adv-x="689" 
d="M190 -302h-180l490 1739h179z" />
    <glyph glyph-name="zero" unicode="0" horiz-adv-x="1167" 
d="M91 630v103q-1 305 129 483t366 177q236 0 362 -177q128 -177 128 -483v-103q0 -302 -128 -480t-364 -178t-364 177t-129 481zM296 732v-100q0 -232 76 -358t212 -127q134 1 210 127t77 358v100q-1 232 -77 359t-210 127t-212 -127q-76 -127 -76 -359z" />
    <glyph glyph-name="one" unicode="1" horiz-adv-x="817" 
d="M632 1365v-1365h-204v1157h-5q-139 -76 -319 -200v201q154 110 334 207h194z" />
    <glyph glyph-name="two" unicode="2" horiz-adv-x="1118" 
d="M308 978h-199v9q0 162 114 284t319 122q206 -1 326 -107t120 -270q0 -86 -20 -129t-26 -57t-26 -42t-26 -40q-6 -10 -32 -42t-31 -38q-6 -6 -37 -42t-36 -42l-349 -405v-4h609v-175h-894v129l506 574q118 135 142 213q12 41 13 84q0 99 -66 160q-65 61 -171 61
q-106 -1 -172 -69t-65 -165q0 -1 1 -5v-4z" />
    <glyph glyph-name="three" unicode="3" horiz-adv-x="1140" 
d="M411 619v170h134q110 0 179 62q68 63 68 159t-66 155t-175 59q-110 0 -170 -63t-67 -147h-195q4 150 116 265q112 114 313 114q202 1 324 -99t126 -242t-76 -232t-171 -104v-5q131 -11 224 -122q70 -84 72 -209q3 -177 -140 -293t-360 -116t-335 111t-124 280h192
q12 -98 82 -159t198 -61t204 68t75 174q-1 107 -77 171t-209 64h-142z" />
    <glyph glyph-name="four" unicode="4" horiz-adv-x="1177" 
d="M282 448h465v748h-5q-248 -368 -460 -746v-2zM942 1365v-917h175v-175h-175v-273h-195v273h-662v173q228 416 562 919h295z" />
    <glyph glyph-name="five" unicode="5" horiz-adv-x="1194" 
d="M889 439q1 137 -81 219t-197 82t-185 -50t-103 -120h-177l71 797h776v-174h-606l-42 -404h5q32 41 112 79t192 38t214 -56t165 -160q62 -106 62 -240q0 -212 -143 -345t-356 -133t-335 109t-132 270h195q16 -99 90 -153t184 -55q110 0 200 79q91 79 91 217z" />
    <glyph glyph-name="six" unicode="6" horiz-adv-x="1145" 
d="M312 432q0 -136 82 -212t198 -76t196 75t80 215t-84 215q-84 74 -197 74q-115 0 -195 -78t-80 -213zM601 1220q-137 0 -224 -135t-93 -395h6q32 80 122 140t194 60t182 -30t142 -84q62 -54 100 -142q38 -86 38 -191q0 -216 -136 -343t-356 -127q-220 1 -354 169
q-135 168 -135 515t142 540t379 193q95 0 175 -31q79 -31 131 -81q108 -106 119 -237h-201q-6 67 -68 123t-163 56z" />
    <glyph glyph-name="seven" unicode="7" horiz-adv-x="1087" 
d="M89 1365h890v-181l-557 -1184h-216l574 1186v4h-691v175z" />
    <glyph glyph-name="eight" unicode="8" horiz-adv-x="1189" 
d="M591 -28q-220 0 -357 112t-137 287q0 176 131 276q67 51 149 71v4q-89 29 -157 107t-68 200q0 159 124 261t320 103q194 -1 318 -103t125 -269q0 -167 -149 -263q-37 -24 -77 -36v-4q99 -23 189 -107q89 -84 89 -249q0 -166 -140 -278t-360 -112zM596 790q106 0 175 62
t69 159t-69 157t-176 61q-107 -1 -176 -61t-69 -157t70 -159t176 -62zM595 134q127 0 211 70t83 180q1 110 -83 180t-211 70t-211 -70t-84 -180t84 -180t211 -70z" />
    <glyph glyph-name="nine" unicode="9" horiz-adv-x="1145" 
d="M847 934q-1 132 -79 210q-78 77 -196 77t-200 -76t-82 -215t78 -214t196 -75q116 1 200 81t83 212zM556 145q153 1 235 145t81 385h-9q-31 -84 -121 -142t-199 -58q-109 -1 -185 29t-136 85t-96 142t-36 194t39 197t104 147q137 122 326 122q243 -1 377 -167t134 -514
t-138 -542t-380 -193t-370 165q-72 92 -78 199h200q10 -76 76 -135t176 -59z" />
    <glyph glyph-name="colon" unicode=":" horiz-adv-x="537" 
d="M137 809q0 53 38 91t91 38q52 0 90 -38t38 -91t-38 -91t-90 -37q-52 -1 -91 37q-38 38 -38 91zM137 108q0 53 38 91t91 38q52 0 90 -38q38 -39 38 -91t-38 -90t-90 -38t-91 38q-38 38 -38 90z" />
    <glyph glyph-name="semicolon" unicode=";" horiz-adv-x="537" 
d="M139 809q-1 53 37 91t91 38t91 -38t38 -91t-38 -91t-91 -37q-53 -1 -91 37t-37 91zM204 -254h-149l107 444h208z" />
    <glyph glyph-name="less" unicode="&#x3c;" horiz-adv-x="1114" 
d="M118 440v151l876 514v-209l-655 -369v-10l655 -351v-208z" />
    <glyph glyph-name="equal" unicode="=" horiz-adv-x="1114" 
d="M990 658h-866v163h866v-163zM990 274h-866v161h866v-161z" />
    <glyph glyph-name="greater" unicode="&#x3e;" horiz-adv-x="1114" 
d="M995 591v-151l-877 -482v208l657 351v10l-657 369v209z" />
    <glyph glyph-name="question" unicode="?" horiz-adv-x="956" 
d="M326 103q0 52 37 87t90 35t90 -35t37 -87t-37 -87t-90 -35t-90 35t-37 87zM508 1396q86 0 178 -37t152 -118t59 -198q0 -117 -55 -185q-55 -69 -132 -128q-76 -60 -103 -85q-63 -58 -63 -159v-58h-191l-1 78q-2 68 26 128t64 98q38 38 90 78q83 64 121 108t38 129
t-62 133q-63 48 -163 48t-158 -64t-59 -164h-190q-3 242 187 342q102 54 262 54z" />
    <glyph glyph-name="at" unicode="@" horiz-adv-x="1682" 
d="M684 483q0 -211 157 -211q71 0 113 49t42 153v81q0 94 -44 145t-114 51q-68 -1 -111 -53t-43 -154v-61zM1254 133q-98 0 -160 41t-75 99h-10q-15 -55 -77 -97t-145 -43q-125 0 -195 89t-71 239v97q1 145 73 234t200 89q82 1 134 -39t68 -92h8v116h154v-490q0 -55 32 -85
t85 -30q77 0 129 86t52 251v34q0 223 -152 383q-72 77 -186 121q-112 44 -248 44h-8q-268 0 -442 -172q-83 -82 -130 -204t-47 -267v-45q0 -155 49 -277t134 -197q173 -153 429 -153h8q203 0 314 49v-136q-99 -46 -317 -46h-9q-323 0 -537 189q-104 92 -163 237t-59 328v57
q0 173 58 318t160 243t245 154q142 55 307 55h8q172 0 314 -56t231 -151q188 -198 188 -469v-50q1 -204 -97 -329t-252 -125z" />
    <glyph glyph-name="A" unicode="A" horiz-adv-x="1219" 
d="M608 1141h-7l-193 -590h392zM231 0h-209l476 1365h223l476 -1365h-221l-127 391h-490z" />
    <glyph glyph-name="B" unicode="B" horiz-adv-x="1234" 
d="M363 621v-452h225q264 0 328 110q26 44 25 109q0 114 -73 174t-200 59h-305zM562 784q308 0 308 206q0 106 -60 156t-161 50h-286v-412h199zM158 0v1365h531q175 1 281 -89t106 -247q0 -120 -60 -196t-164 -105v-9q139 -17 219 -106t80 -230q1 -183 -131 -283t-345 -100
h-517z" />
    <glyph glyph-name="C" unicode="C" horiz-adv-x="1258" 
d="M310 764v-171q0 -221 92 -331t245 -110q154 0 235 80t81 197h201v-11q0 -135 -81 -247q-144 -199 -434 -199q-256 0 -401 160t-145 460v174q1 300 147 464t400 163q121 0 221 -40q101 -40 163 -106q130 -138 130 -321v-10h-201q0 115 -81 206t-235 91q-153 0 -245 -114
t-92 -335z" />
    <glyph glyph-name="D" unicode="D" horiz-adv-x="1303" 
d="M364 1188v-1011h233q207 0 308 125t101 379q0 373 -218 471q-80 36 -191 36h-233zM158 1365h457q375 0 517 -269q86 -163 87 -412q0 -530 -370 -650q-103 -34 -234 -34h-457v1365z" />
    <glyph glyph-name="E" unicode="E" horiz-adv-x="1107" 
d="M996 177v-177h-838v1365h838v-177h-633v-408h597v-170h-597v-433h633z" />
    <glyph glyph-name="F" unicode="F" horiz-adv-x="1042" 
d="M364 0h-206v1365h827v-178h-621v-437h569v-176h-569v-574z" />
    <glyph glyph-name="G" unicode="G" horiz-adv-x="1283" 
d="M644 1213q-140 -1 -238 -109t-97 -327v-182q0 -208 88 -326t245 -118t248 80t91 203v117h-329v168h528v-278q0 -133 -72 -247q-138 -221 -452 -222q-272 0 -412 167t-141 456v183q0 287 151 451t408 164q118 0 216 -37q98 -36 160 -100q128 -130 139 -314h-203
q-16 133 -104 202q-86 69 -226 69z" />
    <glyph glyph-name="H" unicode="H" horiz-adv-x="1377" 
d="M1220 0h-206v615h-650v-615h-206v1365h206v-572h650v572h206v-1365z" />
    <glyph glyph-name="I" unicode="I" horiz-adv-x="521" 
d="M364 0h-206v1365h206v-1365z" />
    <glyph glyph-name="J" unicode="J" horiz-adv-x="997" 
d="M25 338h200q3 -83 59 -132t148 -49q92 1 150 59t57 180v969h207v-956q0 -215 -114 -326t-303 -111t-297 103t-107 263z" />
    <glyph glyph-name="K" unicode="K" horiz-adv-x="1209" 
d="M364 0h-206v1365h206v-644h9l568 644h236l-502 -583l527 -782h-256l-423 641l-159 -175v-466z" />
    <glyph glyph-name="L" unicode="L" horiz-adv-x="999" 
d="M976 181v-181h-818v1365h206v-1184h612z" />
    <glyph glyph-name="M" unicode="M" horiz-adv-x="1600" 
d="M347 0h-185v1365h204l432 -998h5l431 998h204v-1365h-186v963h-8l-366 -830h-157l-367 830h-7v-963z" />
    <glyph glyph-name="N" unicode="N" horiz-adv-x="1368" 
d="M352 0h-194v1365h187l664 -1014h6v1014h195v-1365h-187l-665 1016h-6v-1016z" />
    <glyph glyph-name="O" unicode="O" horiz-adv-x="1326" 
d="M103 580v192q0 289 152 455t410 166q258 1 408 -165t150 -456v-192q0 -288 -151 -448q-150 -160 -410 -160t-410 160t-149 448zM311 774v-194q0 -211 97 -320t255 -109t255 109t97 320v194q1 212 -97 326t-254 114t-255 -114q-98 -114 -98 -326z" />
    <glyph glyph-name="P" unicode="P" horiz-adv-x="1165" 
d="M363 1190v-520h192q171 0 260 53q88 53 88 192q1 139 -67 207t-191 68h-282zM158 1365h513q201 0 322 -121q121 -120 121 -314t-121 -314t-323 -119h-307v-497h-205v1365z" />
    <glyph glyph-name="Q" unicode="Q" horiz-adv-x="1327" 
d="M308 777v-191q0 -214 98 -327t254 -115q68 0 123 24l-175 243h214l104 -139q92 115 92 314v191q0 213 -98 325t-258 112q-158 0 -256 -112t-98 -325zM104 587v190q0 288 151 452t407 164q256 -1 408 -165t152 -451v-190q0 -312 -178 -477l183 -258h-220l-118 164
q-104 -44 -227 -44q-256 0 -407 164t-151 451z" />
    <glyph glyph-name="R" unicode="R" horiz-adv-x="1228" 
d="M362 701h272q133 0 203 62t70 181q0 120 -72 184t-195 64h-278v-491zM668 1365q228 0 340 -121t112 -294q0 -218 -164 -334q-42 -30 -88 -47l277 -569h-233l-248 532h-302v-532h-204v1365h510z" />
    <glyph glyph-name="S" unicode="S" horiz-adv-x="1172" 
d="M578 146q140 0 219 60t79 152t-52 140t-167 76l-230 58q-137 34 -232 120q-96 86 -96 227q1 143 69 235q135 182 414 182t414 -178q69 -91 71 -216h-199q-8 97 -82 159t-202 62q-128 -1 -202 -57q-76 -56 -76 -155q0 -144 191 -190l228 -58q209 -51 293 -161
q66 -86 66 -215q0 -195 -144 -305t-376 -110q-301 0 -431 182q-69 97 -73 221h203q10 -99 93 -164q82 -65 222 -65z" />
    <glyph glyph-name="T" unicode="T" horiz-adv-x="1054" 
d="M629 0h-204v1186h-407v179h1018v-179h-407v-1186z" />
    <glyph glyph-name="U" unicode="U" horiz-adv-x="1341" 
d="M346 1365v-881q0 -153 88 -242t236 -89q148 -1 236 89t89 242v881h204v-909q0 -216 -142 -350q-143 -134 -387 -134t-386 134t-142 350v909h204z" />
    <glyph glyph-name="V" unicode="V" horiz-adv-x="1214" 
d="M721 0h-227l-480 1365h236l357 -1114h8l354 1114h231z" />
    <glyph glyph-name="W" unicode="W" horiz-adv-x="1696" 
d="M569 0h-187l-371 1365h224l247 -1037h7l261 1037h197l260 -1037h7l247 1037h224l-371 -1365h-186l-276 1030h-7z" />
    <glyph glyph-name="X" unicode="X" horiz-adv-x="1144" 
d="M1143 1365l-447 -688l438 -677h-243l-324 521h-10l-327 -521h-229l439 688l-433 677h245l324 -525h11l321 525h235z" />
    <glyph glyph-name="Y" unicode="Y" horiz-adv-x="1109" 
d="M656 0h-204v565l-457 800h232l325 -597h7l326 597h228l-457 -797v-568z" />
    <glyph glyph-name="Z" unicode="Z" horiz-adv-x="1156" 
d="M83 0v141l708 1041v6h-685v177h937v-139l-703 -1042v-7h721v-177h-978z" />
    <glyph glyph-name="bracketleft" unicode="[" horiz-adv-x="668" 
d="M127 1365h463v-150h-270v-1293h283v-150h-476v1593z" />
    <glyph glyph-name="backslash" unicode="\" horiz-adv-x="689" 
d="M679 -302h-179l-490 1739h180z" />
    <glyph glyph-name="bracketright" unicode="]" horiz-adv-x="668" 
d="M78 1365h463v-1593h-475v150h283v1293h-271v150z" />
    <glyph glyph-name="asciicircum" unicode="^" horiz-adv-x="795" 
d="M751 795h-173l-177 408h-7l-179 -408h-171l262 570h185z" />
    <glyph glyph-name="underscore" unicode="_" horiz-adv-x="846" 
d="M873 -260h-901v157h901v-157z" />
    <glyph glyph-name="grave" unicode="`" horiz-adv-x="946" 
d="M648 1188h-149l-235 278h194z" />
    <glyph glyph-name="a" unicode="a" horiz-adv-x="1067" 
d="M501 142q93 0 161 58t68 149v119h-243q-99 0 -147 -42t-48 -118t58 -122q58 -44 151 -44zM432 -17q-154 -1 -249 87t-95 232t96 224q96 81 275 82h271v103q0 96 -54 147t-149 51t-149 -44t-61 -119h-190q8 145 109 235t287 90t297 -91t111 -258v-722h-193v130h-7
q-88 -147 -299 -147z" />
    <glyph glyph-name="b" unicode="b" horiz-adv-x="1182" 
d="M614 154q122 0 190 88t69 245v80q-1 157 -69 245t-189 88t-193 -86t-73 -247v-78q0 -163 72 -249q71 -86 193 -86zM664 -16q-216 0 -312 176h-7v-160h-196v1437h202v-530h7q40 71 124 117t183 46q187 0 300 -129t113 -363v-100q0 -230 -112 -362t-302 -132z" />
    <glyph glyph-name="c" unicode="c" horiz-adv-x="1052" 
d="M103 483v98q1 219 121 355t314 136t306 -100t120 -239h-194q-16 70 -72 119t-135 49q-121 -1 -189 -87t-68 -238v-94q0 -150 70 -239t174 -89t158 43t69 110h193q-23 -153 -131 -239q-107 -86 -267 -86t-262 65q-206 131 -207 436z" />
    <glyph glyph-name="d" unicode="d" horiz-adv-x="1179" 
d="M567 901q-119 1 -189 -85t-69 -248v-81q0 -161 70 -247t190 -85q121 1 191 87t70 244v82q0 153 -72 243t-191 90zM519 1071q103 1 183 -45t119 -120h7v531h202v-1437h-196v160h-6q-44 -82 -124 -128t-185 -47q-199 0 -307 134t-108 362v94q0 223 111 359t304 137z" />
    <glyph glyph-name="e" unicode="e" horiz-adv-x="1093" 
d="M304 628h490v3q0 120 -68 200t-177 80t-177 -80t-68 -200v-3zM541 -18q-194 0 -316 134t-122 363v111q-1 218 119 350t327 132t325 -134t119 -358v-100h-689v-22q0 -141 70 -227t187 -86q85 0 143 40t81 112h195q-28 -139 -136 -227t-303 -88z" />
    <glyph glyph-name="f" unicode="f" horiz-adv-x="700" 
d="M217 0v890h-145v164h145v105q0 154 80 225t250 71q53 0 89 -6v-156q-30 4 -57 4q-87 0 -125 -34t-38 -120v-89h206v-164h-204v-890h-201z" />
    <glyph glyph-name="g" unicode="g" horiz-adv-x="1177" 
d="M568 902q-120 0 -190 -86t-69 -246v-63q-1 -157 69 -245t192 -87q122 0 190 88t67 244v63q0 152 -69 242q-70 90 -190 90zM580 -235q108 1 177 67q70 66 70 183v163h-7q-32 -72 -114 -120t-186 -47q-188 0 -302 129t-113 362v80q-1 232 113 360t302 128q104 0 186 -47
t119 -119h7v150h196v-1045q0 -233 -196 -341q-113 -62 -290 -62q-176 0 -286 86t-128 226h202q14 -65 78 -109t172 -44z" />
    <glyph glyph-name="h" unicode="h" horiz-adv-x="1167" 
d="M149 0v1437h202v-527h7q34 64 111 112t194 49q167 0 271 -103t103 -291v-677h-202v639q1 125 -65 189t-180 65q-114 0 -177 -73q-62 -73 -62 -186v-634h-202z" />
    <glyph glyph-name="i" unicode="i" horiz-adv-x="514" 
d="M134 1311q0 51 36 85t87 34t87 -34t36 -85t-36 -85t-87 -34t-87 34t-36 85zM156 0v1054h202v-1054h-202z" />
    <glyph glyph-name="j" unicode="j" horiz-adv-x="514" 
d="M357 1054v-1080q1 -178 -79 -262t-226 -84q-67 0 -103 9v154q25 -5 63 -5q76 0 110 45t34 145v1078h201zM134 1311q0 51 36 85t87 34t87 -34t36 -85t-36 -85t-87 -34t-87 34t-36 85z" />
    <glyph glyph-name="k" unicode="k" horiz-adv-x="1007" 
d="M350 0h-202v1437h202v-838h9l395 455h243l-406 -457l432 -597h-244l-339 474l-90 -100v-374z" />
    <glyph glyph-name="l" unicode="l" horiz-adv-x="507" 
d="M153 0v1437h201v-1437h-201z" />
    <glyph glyph-name="m" unicode="m" horiz-adv-x="1749" 
d="M625 1071q238 0 301 -173h9q31 73 115 123t207 50q165 0 258 -95t93 -258v-718h-201v671q1 103 -55 163t-158 61q-102 0 -160 -65t-58 -173v-657h-198v657q0 116 -57 177t-155 61t-158 -62q-61 -62 -61 -174v-659h-201v1054h199v-136h10q29 62 99 108t171 45z" />
    <glyph glyph-name="n" unicode="n" horiz-adv-x="1163" 
d="M146 0v1054h199v-144h7q34 64 112 112t195 49q167 0 270 -103t103 -291v-677h-201v639q0 125 -66 189t-180 65q-114 0 -176 -73t-62 -186v-634h-201z" />
    <glyph glyph-name="o" unicode="o" horiz-adv-x="1132" 
d="M566 906q-124 0 -192 -91t-68 -246v-81q0 -154 68 -246t192 -92q126 0 192 92t67 246v81q0 155 -67 246t-192 91zM566 1072q218 0 340 -138t122 -360v-89q0 -227 -121 -365t-341 -138t-341 138q-122 138 -122 365v88q1 221 123 360t340 139z" />
    <glyph glyph-name="p" unicode="p" horiz-adv-x="1172" 
d="M611 154q119 0 186 88t67 251v75q0 158 -66 246t-188 88q-120 0 -191 -90t-71 -243v-76q0 -155 72 -247t191 -92zM654 -16q-99 0 -176 43t-121 117h-7v-506h-202v1416h196v-153h7q46 77 126 123t183 46q180 0 294 -132t114 -363v-95q0 -230 -114 -363t-300 -133z" />
    <glyph glyph-name="q" unicode="q" horiz-adv-x="1180" 
d="M567 900q-122 0 -190 -88t-68 -248v-68q0 -160 68 -252q69 -92 191 -92t193 93t71 251v68q0 154 -72 245t-193 91zM104 573q0 229 111 363t297 134q220 0 317 -166h7v150h196v-1416h-202v515h-7q-35 -73 -118 -121t-195 -48q-186 0 -296 136t-110 370v83z" />
    <glyph glyph-name="r" unicode="r" horiz-adv-x="718" 
d="M146 0v1054h202v-134h7q27 58 91 104t164 46q36 0 71 -5v-181q-28 6 -90 6q-241 0 -241 -254v-636h-204z" />
    <glyph glyph-name="s" unicode="s" horiz-adv-x="1005" 
d="M105 756q0 76 33 138q34 64 90 102q113 76 286 76q174 0 275 -88t101 -230h-184q-6 68 -54 116t-145 47q-97 0 -152 -39t-55 -109q0 -105 180 -142q38 -8 60 -11q21 -4 55 -10t82 -20q116 -31 179 -93t63 -177q1 -158 -115 -246t-307 -88t-301 82t-110 224h197
q10 -70 68 -110t159 -40q100 0 156 44t56 104q0 61 -28 84q-49 39 -99 52q-49 14 -91 22q-43 8 -85 17q-41 9 -99 29t-110 54t-78 84q-26 52 -27 128z" />
    <glyph glyph-name="t" unicode="t" horiz-adv-x="713" 
d="M217 1054v260h199v-260h207v-164h-207v-584q0 -88 36 -120t130 -32q20 0 48 2v-157q-40 -7 -116 -7q-168 0 -234 72q-65 72 -65 232v594h-144v164h146z" />
    <glyph glyph-name="u" unicode="u" horiz-adv-x="1158" 
d="M1012 1054v-1054h-199v143h-8q-30 -69 -108 -115t-197 -45q-168 -1 -268 95t-101 274v702h202v-646q0 -133 65 -190t172 -57q108 0 174 66t66 184v643h202z" />
    <glyph glyph-name="v" unicode="v" horiz-adv-x="965" 
d="M365 0l-362 1054h214l256 -829h7l276 829h205l-374 -1054h-222z" />
    <glyph glyph-name="w" unicode="w" horiz-adv-x="1503" 
d="M1467 1054l-274 -1054h-211l-228 792h-5l-228 -792h-211l-274 1054h204l182 -815h9l225 815h192l226 -815h8l182 815h203z" />
    <glyph glyph-name="x" unicode="x" horiz-adv-x="1014" 
d="M754 0l-252 385h-3l-249 -385h-224l353 528l-348 526h239l242 -386h2l242 386h228l-352 -526l356 -528h-234z" />
    <glyph glyph-name="y" unicode="y" horiz-adv-x="986" 
d="M188 -221q142 0 183 160l14 50l-381 1065h224l265 -848h7l267 848h215q-365 -1044 -366 -1048l-27 -73q-68 -186 -159 -250q-92 -65 -218 -65q-64 0 -123 9v157q27 -5 99 -5z" />
    <glyph glyph-name="z" unicode="z" horiz-adv-x="978" 
d="M96 0v136l546 743v7h-540v168h789v-141l-540 -738v-7h548v-168h-803z" />
    <glyph glyph-name="braceleft" unicode="{" horiz-adv-x="737" 
d="M438 817q0 -205 -178 -221v-24q178 -17 178 -227v-297q0 -111 48 -159t167 -48h41v-154h-69q-187 1 -281 81t-95 261v254q-1 108 -35 154t-131 46v201q97 0 131 46t35 155v223q0 178 94 256t282 78h69v-154h-41q-119 0 -167 -48t-48 -159v-264z" />
    <glyph glyph-name="bar" unicode="|" horiz-adv-x="676" 
d="M426 -305h-175v1742h175v-1742z" />
    <glyph glyph-name="braceright" unicode="}" horiz-adv-x="737" 
d="M300 817v264q0 111 -48 159t-168 48h-41v154h69q188 0 282 -78t94 -256v-223q0 -109 34 -155t132 -46v-201q-98 0 -132 -46t-34 -154v-254q0 -181 -94 -261t-282 -81h-69v154h41q120 0 168 48t48 159v297q0 210 177 227v24q-177 17 -177 221z" />
    <glyph glyph-name="asciitilde" unicode="~" horiz-adv-x="1114" 
d="M139 772q73 100 199 100t210 -74q34 -31 66 -62q75 -74 136 -74q60 0 90 48t34 123h169q3 -145 -71 -244t-197 -99t-209 74q-36 31 -68 62q-78 74 -137 74t-91 -48t-34 -123h-168q-2 143 71 243z" />
    <glyph glyph-name="nonbreakingspace" unicode="&#xa0;" horiz-adv-x="408" 
 />
    <glyph glyph-name="exclamdown" unicode="&#xa1;" horiz-adv-x="530" 
d="M392 984q0 -52 -37 -88t-90 -35q-53 -1 -90 35t-37 88t37 87t90 35t90 -35t37 -87zM378 -276h-226l25 956h176z" />
    <glyph glyph-name="cent" unicode="&#xa2;" horiz-adv-x="1158" 
d="M668 -86h-158v226q-168 19 -270 140t-101 317v169q0 192 102 312t269 139v240h158v-240q154 -17 244 -112t94 -214h-191q-11 58 -46 96q-67 72 -184 72t-185 -81t-68 -216v-167q0 -133 70 -211t182 -78t168 42t69 107h192q-5 -119 -96 -209t-249 -106v-226z" />
    <glyph glyph-name="sterling" unicode="&#xa3;" horiz-adv-x="1158" 
d="M1066 167v-167h-956v176q117 3 143 63q27 60 27 182v197h-189v150h189v280q0 164 110 254t284 90t277 -88q102 -88 107 -243h-190q-4 71 -56 117t-144 47q-92 -1 -142 -57t-49 -142v-258h296v-150h-296l-1 -205q0 -190 -72 -234v-12h662z" />
    <glyph glyph-name="currency" unicode="&#xa4;" horiz-adv-x="1158" 
d="M343 654q0 -98 70 -168t168 -69q99 -1 169 69t70 168t-70 168t-169 70q-98 0 -168 -70t-70 -168zM580 270q-112 0 -207 63l-174 -175l-110 110l173 174q-65 94 -65 210t61 208l-169 169l111 111l167 -168q95 66 213 66t212 -63l164 165l111 -111l-165 -165
q64 -96 64 -212t-68 -215l169 -169l-110 -110l-171 171q-94 -59 -206 -59z" />
    <glyph glyph-name="yen" unicode="&#xa5;" horiz-adv-x="1158" 
d="M969 261h-288v-261h-205v261h-287v137h287v139h-287v137h227l-397 691h232l323 -597h10l325 597h229l-398 -691h229v-137h-288v-139h288v-137z" />
    <glyph glyph-name="brokenbar" unicode="&#xa6;" horiz-adv-x="463" 
d="M319 -305h-175v682h175v-682zM319 782h-175v655h175v-655z" />
    <glyph glyph-name="section" unicode="&#xa7;" horiz-adv-x="930" 
d="M679 568q0 124 -211 170l-36 8q-36 8 -38 8q-46 -14 -86 -64t-39 -119q1 -68 53 -107t154 -63l44 -10q44 -10 46 -11q48 20 80 71t33 117zM668 57q0 55 -16 83t-67 54q-50 25 -111 40q-60 16 -100 26q-113 29 -203 93q-89 64 -89 201q0 159 168 246v7q-162 92 -162 256
q0 105 54 182q105 149 330 149q167 0 270 -90t103 -226h-178q-3 58 -57 108t-140 50q-88 0 -140 -45t-51 -112q0 -67 40 -102t90 -51q49 -16 116 -31q67 -17 107 -29q235 -73 235 -253t-152 -279v-7q67 -42 107 -96t39 -140q1 -155 -111 -249t-286 -94t-285 85
q-112 85 -113 229h183q11 -72 65 -113t153 -41t150 47t51 102z" />
    <glyph glyph-name="dieresis" unicode="&#xa8;" horiz-adv-x="946" 
d="M640 1198q-42 0 -71 29q-28 29 -28 73t28 72q29 29 71 29t70 -29q28 -28 29 -72q-1 -44 -29 -73t-70 -29zM282 1198q-42 0 -70 29t-29 73q0 44 28 72q29 29 71 29t70 -29q28 -28 29 -72q-1 -44 -29 -73t-70 -29z" />
    <glyph glyph-name="copyright" unicode="&#xa9;" horiz-adv-x="1639" 
d="M798 -64q-183 0 -348 92q-166 92 -256 254t-90 362v103q0 142 54 268t148 218q94 91 229 145t289 54t290 -54q134 -54 228 -146t148 -219q54 -126 54 -266v-103q0 -151 -53 -282q-53 -130 -147 -224t-228 -148q-135 -54 -318 -54zM230 641q0 -169 74 -301t208 -207
q136 -75 312 -75q266 0 432 164t165 419v106q0 116 -44 219q-43 102 -121 178t-190 120t-264 44t-288 -75t-210 -203t-74 -283v-106zM499 632v99q0 157 90 245t234 87q145 0 227 -76t84 -177h-139q-7 48 -45 88t-119 39q-191 0 -191 -212v-94q0 -101 50 -151t141 -51
q147 0 169 109h139q-5 -99 -85 -170t-228 -71q-148 -1 -238 87t-89 248z" />
    <glyph glyph-name="ordfeminine" unicode="&#xaa;" horiz-adv-x="641" 
d="M307 1035q-105 3 -105 -77q0 -38 30 -59t78 -21q47 0 82 28t35 73v56h-120zM325 1371q242 0 242 -197v-390h-133v74h-7q-47 -83 -151 -83t-157 47q-54 46 -54 128q1 82 55 128t160 47h147v51q0 87 -98 87t-109 -59h-132q6 76 64 122t173 45z" />
    <glyph glyph-name="guillemotleft" unicode="&#xab;" horiz-adv-x="1265" 
d="M113 565l344 388h196l-339 -387v-6l339 -389h-205l-335 386v8zM597 565l344 388h196l-339 -387v-6l339 -389h-205l-335 386v8z" />
    <glyph glyph-name="logicalnot" unicode="&#xac;" horiz-adv-x="1114" 
d="M1043 95h-176v367h-798v164h974v-531z" />
    <glyph glyph-name="registered" unicode="&#xae;" horiz-adv-x="995" 
d="M433 802h-87v401h192q58 -1 94 -35t36 -82t-22 -80t-58 -43l93 -161h-101l-81 149h-66v-149zM434 1137v-122h63q82 0 82 61t-72 61h-73zM497 666q139 0 230 87t91 219v56q0 123 -92 209t-229 86q-137 1 -228 -85t-91 -210v-56q0 -132 90 -219t229 -87zM498 577
q-178 0 -294 112t-117 282v57q-1 162 117 272t292 110t294 -112q118 -112 118 -270v-57q0 -170 -116 -282t-294 -112z" />
    <glyph glyph-name="macron" unicode="&#xaf;" horiz-adv-x="944" 
d="M751 1237h-558v128h558v-128z" />
    <glyph glyph-name="degree" unicode="&#xb0;" horiz-adv-x="544" 
d="M274 1042q46 0 78 34t33 80q-1 46 -33 79t-78 33t-80 -33t-33 -79q0 -46 33 -80q34 -34 80 -34zM272 925q-96 0 -162 67q-67 66 -67 162t67 163q66 67 162 67t163 -67t67 -163t-67 -162q-67 -67 -163 -67z" />
    <glyph glyph-name="plusminus" unicode="&#xb1;" horiz-adv-x="1114" 
d="M1036 104h-956v162h956v-162zM639 653v-277h-169v277h-392v159h392v262h169v-262h395v-159h-395z" />
    <glyph glyph-name="twosuperior" unicode="&#xb2;" horiz-adv-x="640" 
d="M213 1156h-138v11q-1 87 61 149t172 62t174 -55t64 -140q0 -43 -22 -87t-41 -68q-20 -23 -56 -60l-157 -153v-2h288v-121h-471v92l243 257q74 76 74 123t-27 71t-69 24t-69 -27q-26 -27 -26 -65v-11z" />
    <glyph glyph-name="threesuperior" unicode="&#xb3;" horiz-adv-x="649" 
d="M237 980v115h76q43 0 69 24q26 23 27 61q-1 38 -27 61t-69 23t-70 -24t-29 -58h-134q4 84 66 140t168 56t169 -49q64 -49 64 -117q-1 -68 -35 -110t-88 -56v-2q63 -11 104 -51t41 -120q-1 -81 -73 -137t-183 -56t-177 59t-68 140h133q3 -35 33 -59t80 -24q49 0 81 26
t32 67q-1 39 -31 65t-81 26h-78z" />
    <glyph glyph-name="acute" unicode="&#xb4;" horiz-adv-x="946" 
d="M451 1188h-149l191 278h193z" />
    <glyph glyph-name="paragraph" unicode="&#xb6;" horiz-adv-x="1291" 
d="M920 -210v1575h196v-1575h-196zM760 -210h-196v712h-20q-120 0 -232 61q-216 118 -215 380q-1 263 215 369q108 54 233 53h215v-1575z" />
    <glyph glyph-name="periodcentered" unicode="&#xb7;" horiz-adv-x="607" 
d="M175 537q-1 53 37 91t91 38t91 -38t38 -91t-38 -91t-91 -37q-53 -1 -91 37t-37 91z" />
    <glyph glyph-name="cedilla" unicode="&#xb8;" horiz-adv-x="946" 
d="M432 -373q116 0 116 73q0 62 -98 64q-16 0 -45 1h-53v86l59 157h131l-53 -140q95 0 151 -42t56 -128t-63 -132q-63 -47 -157 -51t-158 15v110q44 -13 114 -13z" />
    <glyph glyph-name="onesuperior" unicode="&#xb9;" horiz-adv-x="586" 
d="M422 692h-145v531h-6l-153 -113v135l159 120h145v-673z" />
    <glyph glyph-name="ordmasculine" unicode="&#xba;" horiz-adv-x="638" 
d="M320 1371q122 1 196 -71t75 -193v-68q0 -127 -74 -197t-198 -70q-123 0 -197 70t-74 197v68q0 119 76 191q74 72 196 73zM320 1261q-62 0 -97 -44q-34 -44 -34 -114v-62q0 -71 33 -115q34 -44 98 -43q64 -1 97 43t33 115v62q0 70 -34 114t-96 44z" />
    <glyph glyph-name="guillemotright" unicode="&#xbb;" horiz-adv-x="1265" 
d="M661 565v-8l-335 -386h-205l339 389v6l-339 387h196zM1145 565v-8l-335 -386h-204l339 389v6l-339 387h195z" />
    <glyph glyph-name="onequarter" unicode="&#xbc;" horiz-adv-x="1536" 
d="M308 0h-167l534 695l510 670h166zM412 692h-145v531h-6l-153 -113v135l159 120h145v-673zM1314 674v-444h81v-112h-81v-118h-129v118h-334v109q58 106 268 447h195zM987 230h198v329h-7q-72 -110 -191 -326v-3z" />
    <glyph glyph-name="onehalf" unicode="&#xbd;" horiz-adv-x="1536" 
d="M288 0h-167l534 695l510 670h166zM394 692h-145v531h-6l-153 -113v135l159 120h145v-673zM1071 471h-141v11q0 88 62 151t174 63t178 -56t65 -133q0 -77 -37 -128t-84 -99l-160 -155v-2h293v-123h-479v93l247 261q76 78 76 126q1 48 -27 72t-72 24t-69 -28
q-26 -28 -26 -66v-11z" />
    <glyph glyph-name="threequarters" unicode="&#xbe;" horiz-adv-x="1536" 
d="M352 0h-167l534 695l510 670h166zM455 1025q147 -25 147 -173q0 -82 -73 -138q-73 -57 -185 -57q-112 -1 -180 59q-67 60 -69 142h134q5 -36 35 -60t80 -24t82 27t32 67t-30 67q-30 26 -83 26h-79v116h77q45 0 71 24q26 25 26 63t-26 61t-71 23q-44 0 -71 -24t-29 -59
h-136q3 85 66 141t170 57t172 -49t65 -119t-35 -111t-90 -57v-2zM1360 674v-442h79v-114h-79v-118h-131v118h-333v109q76 138 268 447h196zM1032 232h197v327h-6q-73 -111 -191 -324v-3z" />
    <glyph glyph-name="questiondown" unicode="&#xbf;" horiz-adv-x="956" 
d="M631 984q0 -52 -37 -88t-90 -35q-53 -1 -90 35t-37 88t37 87t90 35t90 -35t37 -87zM59 38q0 120 55 189t124 122q69 54 91 73q23 19 53 57t30 120v58h192v-78q2 -106 -51 -176t-116 -119q-95 -72 -133 -116q-39 -44 -39 -130q1 -85 63 -133t162 -48q100 -1 159 63
q58 64 58 165h191q4 -241 -188 -341q-102 -54 -248 -54q-159 0 -281 88t-122 260z" />
    <glyph glyph-name="Agrave" unicode="&#xc0;" horiz-adv-x="1219" 
d="M695 1510h-149l-235 279h193zM608 1141h-7l-193 -590h392zM231 0h-209l476 1365h223l476 -1365h-221l-127 391h-490z" />
    <glyph glyph-name="Aacute" unicode="&#xc1;" horiz-adv-x="1219" 
d="M674 1510h-149l191 279h193zM608 1141h-7l-193 -590h392zM231 0h-209l476 1365h223l476 -1365h-221l-127 391h-490z" />
    <glyph glyph-name="Acircumflex" unicode="&#xc2;" horiz-adv-x="1219" 
d="M331 1510l217 291h124l217 -291h-160l-117 172h-4l-117 -172h-160zM608 1141h-7l-193 -590h392zM231 0h-209l476 1365h223l476 -1365h-221l-127 391h-490z" />
    <glyph glyph-name="Atilde" unicode="&#xc3;" horiz-adv-x="1219" 
d="M894 1684q0 -80 -47 -142t-120 -62t-121 40q-20 16 -48 44t-57 29q-55 0 -58 -94h-115q0 83 44 143t125 59t134 -57t86 -56q54 0 62 96h115zM608 1141h-7l-193 -590h392zM231 0h-209l476 1365h223l476 -1365h-221l-127 391h-490z" />
    <glyph glyph-name="Adieresis" unicode="&#xc4;" horiz-adv-x="1219" 
d="M769 1489q-39 -1 -66 27t-27 69t26 69t67 27q40 1 67 -27t27 -69q1 -41 -27 -69t-67 -27zM450 1489q-40 -1 -66 27t-27 69q1 41 27 69t66 27q40 1 66 -27t27 -70q0 -42 -27 -68q-26 -27 -66 -27zM608 1141h-7l-193 -590h392zM231 0h-209l476 1365h223l476 -1365h-221
l-127 391h-490z" />
    <glyph glyph-name="Aring" unicode="&#xc5;" horiz-adv-x="1219" 
d="M511 1678q1 -42 29 -72q28 -29 70 -29t70 29q28 30 29 72q-1 42 -29 71t-70 29t-70 -29t-29 -71zM610 1485q-84 0 -140 55q-58 56 -58 138t58 137t140 55q84 0 141 -55t57 -137t-57 -138q-57 -55 -141 -55zM608 1141h-7l-193 -590h392zM231 0h-209l476 1365h223
l476 -1365h-221l-127 391h-490z" />
    <glyph glyph-name="AE" unicode="&#xc6;" horiz-adv-x="1864" 
d="M922 405h-468l-212 -405h-230l719 1365h1021v-177h-626v-408h590v-170h-590v-433h626v-177h-830v405zM922 570v618h-71l-316 -618h387z" />
    <glyph glyph-name="Ccedilla" unicode="&#xc7;" horiz-adv-x="1258" 
d="M606 -373q116 0 116 73q0 62 -98 64q-16 0 -45 1h-53v86l47 125q-222 24 -346 182t-124 434v174q1 300 147 464t400 163q121 0 221 -40q101 -40 163 -106q130 -138 130 -321v-10h-201q0 115 -81 206t-235 91q-153 0 -245 -114t-92 -335v-171q0 -221 92 -331t245 -110
q154 0 235 80t81 197h201v-11q0 -156 -112 -286q-56 -64 -146 -106t-203 -51l-40 -107q95 0 151 -42t56 -128t-63 -132q-63 -47 -157 -51t-159 15v110q44 -13 115 -13z" />
    <glyph glyph-name="Egrave" unicode="&#xc8;" horiz-adv-x="1107" 
d="M996 177v-177h-838v1365h838v-177h-633v-408h597v-170h-597v-433h633zM656 1510h-149l-235 279h193z" />
    <glyph glyph-name="Eacute" unicode="&#xc9;" horiz-adv-x="1107" 
d="M996 177v-177h-838v1365h838v-177h-633v-408h597v-170h-597v-433h633zM635 1510h-149l191 279h193z" />
    <glyph glyph-name="Ecircumflex" unicode="&#xca;" horiz-adv-x="1107" 
d="M996 177v-177h-838v1365h838v-177h-633v-408h597v-170h-597v-433h633zM292 1510l217 291h124l217 -291h-160l-117 172h-4l-117 -172h-160z" />
    <glyph glyph-name="Edieresis" unicode="&#xcb;" horiz-adv-x="1107" 
d="M996 177v-177h-838v1365h838v-177h-633v-408h597v-170h-597v-433h633zM732 1489q-40 -1 -66 27q-27 28 -27 69q1 41 27 69t66 27q40 1 67 -27t27 -69t-27 -69t-67 -27zM412 1489q-40 -1 -66 27t-26 69t26 69t67 27q41 1 67 -27t26 -70t-27 -68q-27 -27 -67 -27z" />
    <glyph glyph-name="Igrave" unicode="&#xcc;" horiz-adv-x="521" 
d="M345 1510h-149l-235 279h193zM364 0h-206v1365h206v-1365z" />
    <glyph glyph-name="Iacute" unicode="&#xcd;" horiz-adv-x="521" 
d="M324 1510h-149l191 279h193zM364 0h-206v1365h206v-1365z" />
    <glyph glyph-name="Icircumflex" unicode="&#xce;" horiz-adv-x="521" 
d="M-19 1510l217 291h124l217 -291h-160l-117 172h-4l-117 -172h-160zM364 0h-206v1365h206v-1365z" />
    <glyph glyph-name="Idieresis" unicode="&#xcf;" horiz-adv-x="521" 
d="M421 1489q-39 -1 -66 27t-27 69t26 69t67 27q40 1 67 -27t27 -69q1 -41 -27 -69t-67 -27zM102 1489q-40 -1 -66 27t-27 69q1 41 27 69t66 27q40 1 66 -27t27 -70q0 -42 -27 -68q-26 -27 -66 -27zM364 0h-206v1365h206v-1365z" />
    <glyph glyph-name="Eth" unicode="&#xd0;" horiz-adv-x="1384" 
d="M444 179h233q207 1 308 125t101 379q0 373 -218 471q-80 36 -191 36h-233v-404h288v-179h-288v-428zM696 0h-457v607h-162v179h162v579h457q376 0 518 -269q86 -163 86 -412q0 -530 -370 -650q-103 -34 -234 -34z" />
    <glyph glyph-name="Ntilde" unicode="&#xd1;" horiz-adv-x="1368" 
d="M352 0h-194v1365h187l664 -1014h6v1014h195v-1365h-187l-665 1016h-6v-1016zM967 1684q0 -80 -47 -142t-120 -62q-72 0 -120 40q-20 16 -48 44t-58 29q-55 0 -58 -94h-115q0 83 44 143t125 59t134 -57q53 -57 86 -56q54 0 62 96h115z" />
    <glyph glyph-name="Ograve" unicode="&#xd2;" horiz-adv-x="1326" 
d="M103 580v192q0 289 152 455t410 166q258 1 408 -165t150 -456v-192q0 -288 -151 -448q-150 -160 -410 -160t-410 160t-149 448zM311 774v-194q0 -211 97 -320t255 -109t255 109t97 320v194q1 212 -97 326t-254 114t-255 -114q-98 -114 -98 -326zM746 1510h-149l-235 279
h193z" />
    <glyph glyph-name="Oacute" unicode="&#xd3;" horiz-adv-x="1326" 
d="M103 580v192q0 289 152 455t410 166q258 1 408 -165t150 -456v-192q0 -288 -151 -448q-150 -160 -410 -160t-410 160t-149 448zM311 774v-194q0 -211 97 -320t255 -109t255 109t97 320v194q1 212 -97 326t-254 114t-255 -114q-98 -114 -98 -326zM725 1510h-149l191 279
h193z" />
    <glyph glyph-name="Ocircumflex" unicode="&#xd4;" horiz-adv-x="1326" 
d="M103 580v192q0 289 152 455t410 166q258 1 408 -165t150 -456v-192q0 -288 -151 -448q-150 -160 -410 -160t-410 160t-149 448zM311 774v-194q0 -211 97 -320t255 -109t255 109t97 320v194q1 212 -97 326t-254 114t-255 -114q-98 -114 -98 -326zM382 1510l217 291h124
l217 -291h-160l-117 172h-4l-117 -172h-160z" />
    <glyph glyph-name="Otilde" unicode="&#xd5;" horiz-adv-x="1326" 
d="M768 1588q54 0 62 96h115q0 -80 -47 -142t-120 -62q-72 0 -120 40q-20 16 -48 44t-58 29q-55 0 -58 -94h-115q0 83 44 143t125 59t134 -57t86 -56zM103 580v192q0 289 152 455t410 166q258 1 408 -165t150 -456v-192q0 -288 -151 -448q-150 -160 -410 -160t-410 160
t-149 448zM311 774v-194q0 -211 97 -320t255 -109t255 109t97 320v194q1 212 -97 326t-254 114t-255 -114q-98 -114 -98 -326z" />
    <glyph glyph-name="Odieresis" unicode="&#xd6;" horiz-adv-x="1326" 
d="M103 580v192q0 289 152 455t410 166q258 1 408 -165t150 -456v-192q0 -288 -151 -448q-150 -160 -410 -160t-410 160t-149 448zM311 774v-194q0 -211 97 -320t255 -109t255 109t97 320v194q1 212 -97 326t-254 114t-255 -114q-98 -114 -98 -326zM823 1489q-39 -1 -66 27
t-27 69t26 69t67 27q40 1 67 -27t27 -69q1 -41 -27 -69t-67 -27zM504 1489q-40 -1 -66 27t-27 69q1 41 27 69t66 27q40 1 66 -27t27 -70q0 -42 -27 -68q-26 -27 -66 -27z" />
    <glyph glyph-name="multiply" unicode="&#xd7;" horiz-adv-x="1114" 
d="M867 72l-310 310l-311 -310l-120 121l310 310l-310 310l120 120l311 -310l310 310l120 -120l-310 -310l310 -310z" />
    <glyph glyph-name="Oslash" unicode="&#xd8;" horiz-adv-x="1324" 
d="M659 148q162 0 259 110t97 321v195q0 117 -34 204l-578 -718q94 -112 256 -112zM308 579q0 -107 28 -186l576 714q-96 109 -252 109t-254 -114t-98 -328v-195zM672 -28q-248 0 -392 136l-100 -124l-105 86l116 145q-88 148 -88 365v192q0 289 151 455t394 166t388 -133
l95 118l109 -79l-116 -144q97 -154 97 -383v-192q0 -288 -151 -448q-150 -160 -398 -160z" />
    <glyph glyph-name="Ugrave" unicode="&#xd9;" horiz-adv-x="1341" 
d="M346 1365v-881q0 -153 88 -242t236 -89q148 -1 236 89t89 242v881h204v-909q0 -216 -142 -350q-143 -134 -387 -134t-386 134t-142 350v909h204zM755 1510h-149l-235 279h193z" />
    <glyph glyph-name="Uacute" unicode="&#xda;" horiz-adv-x="1341" 
d="M346 1365v-881q0 -153 88 -242t236 -89q148 -1 236 89t89 242v881h204v-909q0 -216 -142 -350q-143 -134 -387 -134t-386 134t-142 350v909h204zM734 1510h-149l191 279h193z" />
    <glyph glyph-name="Ucircumflex" unicode="&#xdb;" horiz-adv-x="1341" 
d="M346 1365v-881q0 -153 88 -242t236 -89q148 -1 236 89t89 242v881h204v-909q0 -216 -142 -350q-143 -134 -387 -134t-386 134t-142 350v909h204zM391 1510l217 291h124l217 -291h-160l-117 172h-4l-117 -172h-160z" />
    <glyph glyph-name="Udieresis" unicode="&#xdc;" horiz-adv-x="1341" 
d="M346 1365v-881q0 -153 88 -242t236 -89q148 -1 236 89t89 242v881h204v-909q0 -216 -142 -350q-143 -134 -387 -134t-386 134t-142 350v909h204zM831 1489q-39 -1 -66 27t-27 69t26 69t67 27q40 1 67 -27t27 -69q1 -41 -27 -69t-67 -27zM512 1489q-40 -1 -66 27t-27 69
q1 41 27 69t66 27q40 1 66 -27t27 -70q0 -42 -27 -68q-26 -27 -66 -27z" />
    <glyph glyph-name="Yacute" unicode="&#xdd;" horiz-adv-x="1108" 
d="M618 1510h-149l191 279h193zM656 0h-204v565l-457 800h232l325 -597h7l326 597h228l-457 -797v-568z" />
    <glyph glyph-name="Thorn" unicode="&#xde;" horiz-adv-x="1161" 
d="M363 939v-456h230q177 1 235 59t59 170q0 227 -258 227h-266zM158 1365h204v-252h292q206 0 325 -106t119 -296t-120 -295t-325 -105h-290v-311h-205v1365z" />
    <glyph glyph-name="germandbls" unicode="&#xdf;" horiz-adv-x="1252" 
d="M358 0h-202v1045q0 187 121 291t319 104t320 -98q121 -98 121 -256q1 -74 -25 -136t-66 -101q-83 -79 -163 -87v-13q143 -1 259 -91q122 -96 123 -278q0 -92 -40 -170t-108 -128q-68 -48 -153 -74t-180 -25q-95 0 -156 19v164q50 -19 123 -19q131 0 220 56q88 56 88 180
q1 123 -89 189t-239 67h-77v188h47q89 0 163 66t73 164q0 98 -63 157t-172 59q-244 0 -244 -259v-1014z" />
    <glyph glyph-name="agrave" unicode="&#xe0;" horiz-adv-x="1067" 
d="M622 1188h-149l-235 278h194zM501 142q93 0 161 58t68 149v119h-243q-99 0 -147 -42t-48 -118t58 -122q58 -44 151 -44zM432 -17q-154 -1 -249 87t-95 232t96 224q96 81 275 82h271v103q0 96 -54 147t-149 51t-149 -44t-61 -119h-190q8 145 109 235t287 90t297 -91
t111 -258v-722h-193v130h-7q-88 -147 -299 -147z" />
    <glyph glyph-name="aacute" unicode="&#xe1;" horiz-adv-x="1067" 
d="M597 1188h-149l191 278h193zM501 142q93 0 161 58t68 149v119h-243q-99 0 -147 -42t-48 -118t58 -122q58 -44 151 -44zM432 -17q-154 -1 -249 87t-95 232t96 224q96 81 275 82h271v103q0 96 -54 147t-149 51t-149 -44t-61 -119h-190q8 145 109 235t287 90t297 -91
t111 -258v-722h-193v130h-7q-88 -147 -299 -147z" />
    <glyph glyph-name="acircumflex" unicode="&#xe2;" horiz-adv-x="1067" 
d="M255 1188l217 303h126l217 -303h-161l-117 180h-4l-117 -180h-161zM501 142q93 0 161 58t68 149v119h-243q-99 0 -147 -42t-48 -118t58 -122q58 -44 151 -44zM432 -17q-154 -1 -249 87t-95 232t96 224q96 81 275 82h271v103q0 96 -54 147t-149 51t-149 -44t-61 -119h-190
q8 145 109 235t287 90t297 -91t111 -258v-722h-193v130h-7q-88 -147 -299 -147z" />
    <glyph glyph-name="atilde" unicode="&#xe3;" horiz-adv-x="1067" 
d="M641 1304q63 0 73 110h128q0 -89 -54 -160t-141 -71q-88 0 -147 64t-98 64q-62 0 -66 -108h-128q0 95 50 161t139 67q45 0 84 -20q39 -19 61 -43q59 -64 99 -64zM501 142q93 0 161 58t68 149v119h-243q-99 0 -147 -42t-48 -118t58 -122q58 -44 151 -44zM432 -17
q-154 -1 -249 87t-95 232t96 224q96 81 275 82h271v103q0 96 -54 147t-149 51t-149 -44t-61 -119h-190q8 145 109 235t287 90t297 -91t111 -258v-722h-193v130h-7q-88 -147 -299 -147z" />
    <glyph glyph-name="adieresis" unicode="&#xe4;" horiz-adv-x="1067" 
d="M714 1198q-42 0 -71 29q-28 29 -28 73t28 72q29 29 71 29t70 -29q28 -28 29 -72q-1 -44 -29 -73t-70 -29zM356 1198q-42 0 -70 29t-29 73q0 44 28 72q29 29 71 29t70 -29q28 -28 29 -72q-1 -44 -29 -73t-70 -29zM501 142q93 0 161 58t68 149v119h-243q-99 0 -147 -42
t-48 -118t58 -122q58 -44 151 -44zM432 -17q-154 -1 -249 87t-95 232t96 224q96 81 275 82h271v103q0 96 -54 147t-149 51t-149 -44t-61 -119h-190q8 145 109 235t287 90t297 -91t111 -258v-722h-193v130h-7q-88 -147 -299 -147z" />
    <glyph glyph-name="aring" unicode="&#xe5;" horiz-adv-x="1067" 
d="M436 1374q0 -42 28 -71t71 -29t71 29t28 71t-28 72q-28 29 -71 29t-71 -29q-28 -30 -28 -72zM536 1182q-84 0 -142 55t-57 137q-1 82 57 138q58 55 142 55t140 -55q57 -56 57 -138t-57 -137q-56 -55 -140 -55zM501 142q93 0 161 58t68 149v119h-243q-99 0 -147 -42
t-48 -118t58 -122q58 -44 151 -44zM432 -17q-154 -1 -249 87t-95 232t96 224q96 81 275 82h271v103q0 96 -54 147t-149 51t-149 -44t-61 -119h-190q8 145 109 235t287 90t297 -91t111 -258v-722h-193v130h-7q-88 -147 -299 -147z" />
    <glyph glyph-name="ae" unicode="&#xe6;" horiz-adv-x="1727" 
d="M494 477q-202 -1 -202 -167q0 -80 58 -124t151 -44t161 58t68 149v128h-236zM938 628h491v3q0 123 -66 201t-179 77q-114 0 -180 -78t-66 -200v-3zM447 -18q-163 0 -261 88t-98 234t96 232t275 87h271v88q0 96 -54 147t-149 51t-149 -44t-61 -119h-190q8 146 109 236
t294 90q107 0 193 -38t135 -104h3q111 142 324 142t328 -136t115 -364v-92h-690v-30q0 -124 64 -212q64 -89 194 -89q96 0 150 42t68 106h201q-16 -115 -115 -215t-303 -100q-262 0 -376 199h-3q-123 -199 -371 -199z" />
    <glyph glyph-name="ccedilla" unicode="&#xe7;" horiz-adv-x="1052" 
d="M574 -115q199 0 199 -169q0 -86 -63 -133q-62 -47 -158 -51t-158 15v111q47 -14 115 -14q115 0 115 73q0 63 -90 65q-16 0 -44 1h-53v85l51 118q-181 20 -283 156t-102 341v98q1 219 121 355t314 136t306 -100t120 -239h-194q-16 70 -72 119t-135 49q-121 -1 -189 -87
t-68 -238v-94q0 -150 70 -239t174 -89t158 43t69 110h193q-21 -136 -111 -221t-240 -100z" />
    <glyph glyph-name="egrave" unicode="&#xe8;" horiz-adv-x="1093" 
d="M304 628h490v3q0 120 -68 200t-177 80t-177 -80t-68 -200v-3zM541 -18q-194 0 -316 134t-122 363v111q-1 218 119 350t327 132t325 -134t119 -358v-100h-689v-22q0 -141 70 -227t187 -86q85 0 143 40t81 112h195q-28 -139 -136 -227t-303 -88zM635 1188h-149l-235 278
h194z" />
    <glyph glyph-name="eacute" unicode="&#xe9;" horiz-adv-x="1093" 
d="M304 628h490v3q0 120 -68 200t-177 80t-177 -80t-68 -200v-3zM541 -18q-194 0 -316 134t-122 363v111q-1 218 119 350t327 132t325 -134t119 -358v-100h-689v-22q0 -141 70 -227t187 -86q85 0 143 40t81 112h195q-28 -139 -136 -227t-303 -88zM610 1188h-149l191 278h193
z" />
    <glyph glyph-name="ecircumflex" unicode="&#xea;" horiz-adv-x="1093" 
d="M304 628h490v3q0 120 -68 200t-177 80t-177 -80t-68 -200v-3zM541 -18q-194 0 -316 134t-122 363v111q-1 218 119 350t327 132t325 -134t119 -358v-100h-689v-22q0 -141 70 -227t187 -86q85 0 143 40t81 112h195q-28 -139 -136 -227t-303 -88zM268 1188l217 303h126
l217 -303h-161l-117 180h-4l-117 -180h-161z" />
    <glyph glyph-name="edieresis" unicode="&#xeb;" horiz-adv-x="1093" 
d="M726 1198q-42 0 -70 29t-28 73t28 72q28 29 70 29t72 -29q28 -28 28 -72t-28 -73q-30 -29 -72 -29zM369 1198q-43 0 -71 29t-28 73t28 72q28 29 70 29t72 -29q28 -28 28 -72t-28 -73t-71 -29zM304 628h490v3q0 120 -68 200t-177 80t-177 -80t-68 -200v-3zM541 -18
q-194 0 -316 134t-122 363v111q-1 218 119 350t327 132t325 -134t119 -358v-100h-689v-22q0 -141 70 -227t187 -86q85 0 143 40t81 112h195q-28 -139 -136 -227t-303 -88z" />
    <glyph glyph-name="igrave" unicode="&#xec;" horiz-adv-x="514" 
d="M156 0v1054h202v-1054h-202zM341 1188h-149l-235 278h194z" />
    <glyph glyph-name="iacute" unicode="&#xed;" horiz-adv-x="514" 
d="M156 0v1054h202v-1054h-202zM316 1188h-149l191 278h193z" />
    <glyph glyph-name="icircumflex" unicode="&#xee;" horiz-adv-x="514" 
d="M156 0v1054h202v-1054h-202zM-26 1188l217 303h126l217 -303h-161l-117 180h-4l-117 -180h-161z" />
    <glyph glyph-name="idieresis" unicode="&#xef;" horiz-adv-x="514" 
d="M432 1198q-42 0 -70 29t-28 73t28 72q28 29 70 29t72 -29q28 -28 28 -72t-28 -73q-30 -29 -72 -29zM75 1198q-43 0 -71 29t-28 73t28 72q28 29 70 29t72 -29q28 -28 28 -72t-28 -73t-71 -29zM156 0v1054h202v-1054h-202z" />
    <glyph glyph-name="eth" unicode="&#xf0;" horiz-adv-x="1115" 
d="M566 851q-124 -1 -193 -89t-69 -245v-30q0 -157 69 -246t193 -89t194 89q68 89 68 246v30q0 157 -68 245q-70 88 -194 89zM1028 571v-86q0 -227 -118 -365t-342 -138q-222 0 -344 138t-121 365v32q1 143 51 255t148 178t227 66q176 0 261 -121h11q-21 59 -22 62
q-55 149 -135 250l-253 -92l-46 108l217 77q-122 134 -226 222h246q79 -63 157 -156l271 97l41 -102l-231 -86q208 -306 208 -704z" />
    <glyph glyph-name="ntilde" unicode="&#xf1;" horiz-adv-x="1163" 
d="M146 0v1054h199v-144h7q34 64 112 112t195 49q167 0 270 -103t103 -291v-677h-201v639q0 125 -66 189t-180 65q-114 0 -176 -73t-62 -186v-634h-201zM892 1414q0 -89 -54 -160t-141 -71q-88 0 -147 64t-98 64q-62 0 -66 -108h-128q0 95 50 161t139 67q45 0 84 -20
q39 -19 61 -43q59 -64 99 -64q63 0 73 110h128z" />
    <glyph glyph-name="ograve" unicode="&#xf2;" horiz-adv-x="1132" 
d="M566 906q-124 0 -192 -91t-68 -246v-81q0 -154 68 -246t192 -92q126 0 192 92t67 246v81q0 155 -67 246t-192 91zM566 1072q218 0 340 -138t122 -360v-89q0 -227 -121 -365t-341 -138t-341 138q-122 138 -122 365v88q1 221 123 360t340 139zM654 1188h-149l-235 278h194z
" />
    <glyph glyph-name="oacute" unicode="&#xf3;" horiz-adv-x="1132" 
d="M566 906q-124 0 -192 -91t-68 -246v-81q0 -154 68 -246t192 -92q126 0 192 92t67 246v81q0 155 -67 246t-192 91zM566 1072q218 0 340 -138t122 -360v-89q0 -227 -121 -365t-341 -138t-341 138q-122 138 -122 365v88q1 221 123 360t340 139zM629 1188h-149l191 278h193z
" />
    <glyph glyph-name="ocircumflex" unicode="&#xf4;" horiz-adv-x="1132" 
d="M566 906q-124 0 -192 -91t-68 -246v-81q0 -154 68 -246t192 -92q126 0 192 92t67 246v81q0 155 -67 246t-192 91zM566 1072q218 0 340 -138t122 -360v-89q0 -227 -121 -365t-341 -138t-341 138q-122 138 -122 365v88q1 221 123 360t340 139zM287 1188l217 303h126
l217 -303h-161l-117 180h-4l-117 -180h-161z" />
    <glyph glyph-name="otilde" unicode="&#xf5;" horiz-adv-x="1132" 
d="M566 906q-124 0 -192 -91t-68 -246v-81q0 -154 68 -246t192 -92q126 0 192 92t67 246v81q0 155 -67 246t-192 91zM566 1072q218 0 340 -138t122 -360v-89q0 -227 -121 -365t-341 -138t-341 138q-122 138 -122 365v88q1 221 123 360t340 139zM673 1304q63 0 73 110h128
q0 -89 -54 -160t-141 -71q-88 0 -147 64t-98 64q-62 0 -66 -108h-128q0 95 50 161t139 67q45 0 84 -20q39 -19 61 -43q59 -64 99 -64z" />
    <glyph glyph-name="odieresis" unicode="&#xf6;" horiz-adv-x="1132" 
d="M566 906q-124 0 -192 -91t-68 -246v-81q0 -154 68 -246t192 -92q126 0 192 92t67 246v81q0 155 -67 246t-192 91zM566 1072q218 0 340 -138t122 -360v-89q0 -227 -121 -365t-341 -138t-341 138q-122 138 -122 365v88q1 221 123 360t340 139zM746 1198q-42 0 -71 29
q-28 29 -28 73t28 72q29 29 71 29t70 -29q28 -28 29 -72q-1 -44 -29 -73t-70 -29zM388 1198q-42 0 -70 29t-29 73q0 44 28 72q29 29 71 29t70 -29q28 -28 29 -72q-1 -44 -29 -73t-70 -29z" />
    <glyph glyph-name="divide" unicode="&#xf7;" horiz-adv-x="1114" 
d="M432 938q0 52 36 86t88 33q54 1 90 -33t36 -87t-36 -87t-89 -33q-53 0 -89 34q-36 35 -36 87zM432 182q0 52 36 86t88 33q54 1 90 -33t36 -87t-36 -87t-89 -33q-53 0 -89 34q-36 35 -36 87zM1033 479h-952v153h952v-153z" />
    <glyph glyph-name="oslash" unicode="&#xf8;" horiz-adv-x="1132" 
d="M567 -18q-168 0 -279 82l-103 -139l-99 75l113 153q-96 131 -96 332v88q1 221 123 360t341 139q157 0 265 -74l96 129l99 -77l-103 -138q104 -131 104 -338v-89q0 -227 -121 -365t-340 -138zM305 488q0 -98 30 -169l389 534q-62 56 -173 56t-179 -92t-67 -247v-82z
M578 148q114 0 182 92q67 92 67 248v82q0 109 -36 181l-392 -538q65 -65 179 -65z" />
    <glyph glyph-name="ugrave" unicode="&#xf9;" horiz-adv-x="1158" 
d="M1012 1054v-1054h-199v143h-8q-30 -69 -108 -115t-197 -45q-168 -1 -268 95t-101 274v702h202v-646q0 -133 65 -190t172 -57q108 0 174 66t66 184v643h202zM662 1188h-149l-235 278h194z" />
    <glyph glyph-name="uacute" unicode="&#xfa;" horiz-adv-x="1158" 
d="M1012 1054v-1054h-199v143h-8q-30 -69 -108 -115t-197 -45q-168 -1 -268 95t-101 274v702h202v-646q0 -133 65 -190t172 -57q108 0 174 66t66 184v643h202zM637 1188h-149l191 278h193z" />
    <glyph glyph-name="ucircumflex" unicode="&#xfb;" horiz-adv-x="1158" 
d="M1012 1054v-1054h-199v143h-8q-30 -69 -108 -115t-197 -45q-168 -1 -268 95t-101 274v702h202v-646q0 -133 65 -190t172 -57q108 0 174 66t66 184v643h202zM295 1188l217 303h126l217 -303h-161l-117 180h-4l-117 -180h-161z" />
    <glyph glyph-name="udieresis" unicode="&#xfc;" horiz-adv-x="1158" 
d="M754 1198q-42 0 -71 29q-28 29 -28 73t28 72q29 29 71 29t70 -29q28 -28 29 -72q-1 -44 -29 -73t-70 -29zM396 1198q-42 0 -70 29t-29 73q0 44 28 72q29 29 71 29t70 -29q28 -28 29 -72q-1 -44 -29 -73t-70 -29zM1012 1054v-1054h-199v143h-8q-30 -69 -108 -115t-197 -45
q-168 -1 -268 95t-101 274v702h202v-646q0 -133 65 -190t172 -57q108 0 174 66t66 184v643h202z" />
    <glyph glyph-name="yacute" unicode="&#xfd;" horiz-adv-x="986" 
d="M560 1188h-149l191 278h193zM188 -221q142 0 183 160l14 50l-381 1065h224l265 -848h7l267 848h215q-365 -1044 -366 -1048l-27 -73q-68 -186 -159 -250q-92 -65 -218 -65q-64 0 -123 9v157q27 -5 99 -5z" />
    <glyph glyph-name="thorn" unicode="&#xfe;" horiz-adv-x="1172" 
d="M611 154q119 0 186 88t67 251v75q0 158 -66 246t-188 88q-120 0 -191 -90t-71 -243v-76q0 -155 72 -247t191 -92zM654 -16q-99 0 -176 43t-121 117h-7v-506h-202v1799h202v-531h7q40 76 119 120t184 44q180 0 294 -132t114 -363v-95q0 -230 -114 -363t-300 -133z" />
    <glyph glyph-name="ydieresis" unicode="&#xff;" horiz-adv-x="986" 
d="M676 1198q-42 0 -70 29t-28 73t28 72q28 29 70 29t72 -29q28 -28 28 -72t-28 -73q-30 -29 -72 -29zM319 1198q-43 0 -71 29t-28 73t28 72q28 29 70 29t72 -29q28 -28 28 -72t-28 -73t-71 -29zM188 -221q142 0 183 160l14 50l-381 1065h224l265 -848h7l267 848h215
q-365 -1044 -366 -1048l-27 -73q-68 -186 -159 -250q-92 -65 -218 -65q-64 0 -123 9v157q27 -5 99 -5z" />
    <glyph glyph-name="Amacron" unicode="&#x100;" horiz-adv-x="1219" 
d="M885 1518h-552v116h552v-116zM608 1141h-7l-193 -590h392zM231 0h-209l476 1365h223l476 -1365h-221l-127 391h-490z" />
    <glyph glyph-name="amacron" unicode="&#x101;" horiz-adv-x="1067" 
d="M814 1237h-558v128h558v-128zM501 142q93 0 161 58t68 149v119h-243q-99 0 -147 -42t-48 -118t58 -122q58 -44 151 -44zM432 -17q-154 -1 -249 87t-95 232t96 224q96 81 275 82h271v103q0 96 -54 147t-149 51t-149 -44t-61 -119h-190q8 145 109 235t287 90t297 -91
t111 -258v-722h-193v130h-7q-88 -147 -299 -147z" />
    <glyph glyph-name="Abreve" unicode="&#x102;" horiz-adv-x="1219" 
d="M319 1762h127q0 -67 42 -111t122 -44t122 44t42 111h126q0 -103 -71 -187t-218 -84t-220 83q-72 83 -72 188zM608 1141h-7l-193 -590h392zM231 0h-209l476 1365h223l476 -1365h-221l-127 391h-490z" />
    <glyph glyph-name="abreve" unicode="&#x103;" horiz-adv-x="1067" 
d="M240 1466h130q0 -69 42 -116t123 -47t123 47t42 116h129q0 -106 -73 -193q-73 -88 -221 -88q-149 0 -222 87t-73 194zM501 142q93 0 161 58t68 149v119h-243q-99 0 -147 -42t-48 -118t58 -122q58 -44 151 -44zM432 -17q-154 -1 -249 87t-95 232t96 224q96 81 275 82h271
v103q0 96 -54 147t-149 51t-149 -44t-61 -119h-190q8 145 109 235t287 90t297 -91t111 -258v-722h-193v130h-7q-88 -147 -299 -147z" />
    <glyph glyph-name="Aogonek" unicode="&#x104;" horiz-adv-x="1219" 
d="M609 1141h-9l-192 -590h392zM1121 -250q50 0 85 8v-125q-42 -20 -134 -20t-161 50t-69 145q0 131 143 225v3h-21l-115 355h-490l-129 -391h-208l476 1365h223l469 -1344q-67 -21 -122 -63t-58 -98t29 -82q32 -28 82 -28z" />
    <glyph glyph-name="aogonek" unicode="&#x105;" horiz-adv-x="1067" 
d="M501 142q93 0 161 58t68 149v119h-243q-99 0 -147 -42t-48 -118t58 -122q58 -44 151 -44zM807 -387q-83 0 -149 49t-66 136q0 86 40 140t112 97v95h-8q-87 -147 -301 -147q-155 -1 -251 87t-96 232t96 224q96 81 275 82h271v103q0 96 -54 147t-149 51t-149 -44t-61 -119
h-190q9 146 109 236t286 89q186 0 298 -91q111 -91 111 -258v-708q-73 -20 -125 -64t-52 -96q0 -99 112 -99q43 0 80 8v-128q-55 -22 -139 -22z" />
    <glyph glyph-name="Cacute" unicode="&#x106;" horiz-adv-x="1258" 
d="M310 764v-171q0 -221 92 -331t245 -110q154 0 235 80t81 197h201v-11q0 -135 -81 -247q-144 -199 -434 -199q-256 0 -401 160t-145 460v174q1 300 147 464t400 163q121 0 221 -40q101 -40 163 -106q130 -138 130 -321v-10h-201q0 115 -81 206t-235 91q-153 0 -245 -114
t-92 -335zM710 1510h-149l191 279h193z" />
    <glyph glyph-name="cacute" unicode="&#x107;" horiz-adv-x="1052" 
d="M617 1188h-149l191 278h193zM103 483v98q1 219 121 355t314 136t306 -100t120 -239h-194q-16 70 -72 119t-135 49q-121 -1 -189 -87t-68 -238v-94q0 -150 70 -239t174 -89t158 43t69 110h193q-23 -153 -131 -239q-107 -86 -267 -86t-262 65q-206 131 -207 436z" />
    <glyph glyph-name="Ccircumflex" unicode="&#x108;" horiz-adv-x="1258" 
d="M367 1510l217 291h124l217 -291h-160l-117 172h-4l-117 -172h-160zM310 764v-171q0 -221 92 -331t245 -110q154 0 235 80t81 197h201v-11q0 -135 -81 -247q-144 -199 -434 -199q-256 0 -401 160t-145 460v174q1 300 147 464t400 163q121 0 221 -40q101 -40 163 -106
q130 -138 130 -321v-10h-201q0 115 -81 206t-235 91q-153 0 -245 -114t-92 -335z" />
    <glyph glyph-name="ccircumflex" unicode="&#x109;" horiz-adv-x="1052" 
d="M103 483v98q1 219 121 355t314 136t306 -100t120 -239h-194q-16 70 -72 119t-135 49q-121 -1 -189 -87t-68 -238v-94q0 -150 70 -239t174 -89t158 43t69 110h193q-23 -153 -131 -239q-107 -86 -267 -86t-262 65q-206 131 -207 436zM275 1188l217 303h126l217 -303h-161
l-117 180h-4l-117 -180h-161z" />
    <glyph glyph-name="Cdotaccent" unicode="&#x10a;" horiz-adv-x="1258" 
d="M310 764v-171q0 -221 92 -331t245 -110q154 0 235 80t81 197h201v-11q0 -135 -81 -247q-144 -199 -434 -199q-256 0 -401 160t-145 460v174q1 300 147 464t400 163q121 0 221 -40q101 -40 163 -106q130 -138 130 -321v-10h-201q0 115 -81 206t-235 91q-153 0 -245 -114
t-92 -335zM530 1642q0 48 34 80q34 34 82 34t82 -34t34 -80q0 -48 -34 -82t-82 -33q-48 -1 -82 33t-34 82z" />
    <glyph glyph-name="cdotaccent" unicode="&#x10b;" horiz-adv-x="1052" 
d="M442 1304q0 48 32 81t80 33t81 -33t33 -81t-33 -80t-81 -32t-80 32t-32 80zM103 483v98q1 219 121 355t314 136t306 -100t120 -239h-194q-16 70 -72 119t-135 49q-121 -1 -189 -87t-68 -238v-94q0 -150 70 -239t174 -89t158 43t69 110h193q-23 -153 -131 -239
q-107 -86 -267 -86t-262 65q-206 131 -207 436z" />
    <glyph glyph-name="Ccaron" unicode="&#x10c;" horiz-adv-x="1258" 
d="M367 1801h160l117 -172h4l117 172h160l-217 -291h-124zM310 764v-171q0 -221 92 -331t245 -110q154 0 235 80t81 197h201v-11q0 -135 -81 -247q-144 -199 -434 -199q-256 0 -401 160t-145 460v174q1 300 147 464t400 163q121 0 221 -40q101 -40 163 -106
q130 -138 130 -321v-10h-201q0 115 -81 206t-235 91q-153 0 -245 -114t-92 -335z" />
    <glyph glyph-name="ccaron" unicode="&#x10d;" horiz-adv-x="1052" 
d="M103 483v98q1 219 121 355t314 136t306 -100t120 -239h-194q-16 70 -72 119t-135 49q-121 -1 -189 -87t-68 -238v-94q0 -150 70 -239t174 -89t158 43t69 110h193q-23 -153 -131 -239q-107 -86 -267 -86t-262 65q-206 131 -207 436zM275 1491h161l117 -180h3l117 180h162
l-217 -303h-127z" />
    <glyph glyph-name="Dcaron" unicode="&#x10e;" horiz-adv-x="1303" 
d="M364 1188v-1011h233q207 0 308 125t101 379q0 373 -218 471q-80 36 -191 36h-233zM158 1365h457q375 0 517 -269q86 -163 87 -412q0 -530 -370 -650q-103 -34 -234 -34h-457v1365zM319 1801h160l117 -172h4l117 172h160l-217 -291h-124z" />
    <glyph glyph-name="dcaron" unicode="&#x10f;" horiz-adv-x="1384" 
d="M567 901q-119 1 -189 -85t-69 -248v-81q0 -161 70 -247t190 -85q121 1 191 87t70 244v82q0 153 -72 243t-191 90zM519 1071q103 1 183 -45t119 -120h7v531h202v-1437h-196v160h-6q-44 -82 -124 -128t-185 -47q-199 0 -307 134t-108 362v94q0 223 111 359t304 137z
M1207 1436h174l-45 -488h-129v488z" />
    <glyph glyph-name="Dcroat" unicode="&#x110;" horiz-adv-x="1384" 
d="M444 179h233q207 1 308 125t101 379q0 373 -218 471q-80 36 -191 36h-233v-404h288v-179h-288v-428zM696 0h-457v607h-162v179h162v579h457q376 0 518 -269q86 -163 86 -412q0 -530 -370 -650q-103 -34 -234 -34z" />
    <glyph glyph-name="dcroat" unicode="&#x111;" horiz-adv-x="1181" 
d="M519 -15q-199 0 -307 134t-108 362v94q0 223 111 359t304 137q103 1 181 -45t118 -120h7v261h-260v136h264v134h199v-134h119v-136h-115v-1167h-196v160h-7q-43 -82 -124 -128t-186 -47zM568 901q-118 1 -188 -85t-70 -248v-81q0 -162 70 -247t189 -85t189 86t70 245v82
q0 153 -71 243t-189 90z" />
    <glyph glyph-name="Emacron" unicode="&#x112;" horiz-adv-x="1107" 
d="M847 1518h-552v116h552v-116zM996 177v-177h-838v1365h838v-177h-633v-408h597v-170h-597v-433h633z" />
    <glyph glyph-name="emacron" unicode="&#x113;" horiz-adv-x="1093" 
d="M827 1237h-558v128h558v-128zM304 628h490v3q0 120 -68 200t-177 80t-177 -80t-68 -200v-3zM541 -18q-194 0 -316 134t-122 363v111q-1 218 119 350t327 132t325 -134t119 -358v-100h-689v-22q0 -141 70 -227t187 -86q85 0 143 40t81 112h195q-28 -139 -136 -227
t-303 -88z" />
    <glyph glyph-name="Ebreve" unicode="&#x114;" horiz-adv-x="1107" 
d="M280 1762h127q-1 -67 41 -111t123 -44t123 44t41 111h126q0 -103 -71 -187t-218 -84t-220 83q-72 83 -72 188zM996 177v-177h-838v1365h838v-177h-633v-408h597v-170h-597v-433h633z" />
    <glyph glyph-name="ebreve" unicode="&#x115;" horiz-adv-x="1093" 
d="M253 1466h130q0 -69 42 -116t123 -47t123 47t42 116h129q0 -106 -73 -193q-73 -88 -221 -88q-149 0 -222 87t-73 194zM304 628h490v3q0 120 -68 200t-177 80t-177 -80t-68 -200v-3zM541 -18q-194 0 -316 134t-122 363v111q-1 218 119 350t327 132t325 -134t119 -358v-100
h-689v-22q0 -141 70 -227t187 -86q85 0 143 40t81 112h195q-28 -139 -136 -227t-303 -88z" />
    <glyph glyph-name="Edotaccent" unicode="&#x116;" horiz-adv-x="1107" 
d="M996 177v-177h-838v1365h838v-177h-633v-408h597v-170h-597v-433h633zM455 1642q0 48 34 80q34 34 82 34t82 -34t34 -80q0 -48 -34 -82t-82 -33q-48 -1 -82 33t-34 82z" />
    <glyph glyph-name="edotaccent" unicode="&#x117;" horiz-adv-x="1093" 
d="M304 628h490v3q0 120 -68 200t-177 80t-177 -80t-68 -200v-3zM541 -18q-194 0 -316 134t-122 363v111q-1 218 119 350t327 132t325 -134t119 -358v-100h-689v-22q0 -141 70 -227t187 -86q85 0 143 40t81 112h195q-28 -139 -136 -227t-303 -88zM435 1304q1 48 33 81t80 33
t80 -33q33 -33 33 -81t-33 -80q-32 -32 -80 -32t-80 32t-33 80z" />
    <glyph glyph-name="Eogonek" unicode="&#x118;" horiz-adv-x="1108" 
d="M858 -387q-82 0 -148 49q-66 48 -66 156t117 179v3h-603v1365h838v-177h-634v-408h598v-170h-597v-433h633v-151q-75 -16 -134 -62t-59 -104q0 -110 119 -110q46 0 75 8v-126q-57 -19 -139 -19z" />
    <glyph glyph-name="eogonek" unicode="&#x119;" horiz-adv-x="1093" 
d="M304 628h490v3q0 120 -68 200t-177 80t-177 -80t-68 -200v-3zM762 -387q-86 -1 -152 51t-66 144q0 46 18 86t31 55q14 16 43 44l-5 10q-36 -19 -100 -19q-186 0 -307 134t-121 361v111q-1 218 119 350t327 132t325 -134t119 -358v-100h-689v-22q0 -142 69 -228t189 -85
q85 1 143 41t80 111h194q-23 -130 -167 -248q-108 -87 -108 -189q0 -50 34 -78t79 -27q45 0 79 9v-132q-48 -19 -134 -19z" />
    <glyph glyph-name="Ecaron" unicode="&#x11a;" horiz-adv-x="1107" 
d="M996 177v-177h-838v1365h838v-177h-633v-408h597v-170h-597v-433h633zM292 1801h160l117 -172h4l117 172h160l-217 -291h-124z" />
    <glyph glyph-name="ecaron" unicode="&#x11b;" horiz-adv-x="1093" 
d="M304 628h490v3q0 120 -68 200t-177 80t-177 -80t-68 -200v-3zM541 -18q-194 0 -316 134t-122 363v111q-1 218 119 350t327 132t325 -134t119 -358v-100h-689v-22q0 -141 70 -227t187 -86q85 0 143 40t81 112h195q-28 -139 -136 -227t-303 -88zM268 1491h161l117 -180h3
l117 180h162l-217 -303h-127z" />
    <glyph glyph-name="Gcircumflex" unicode="&#x11c;" horiz-adv-x="1283" 
d="M644 1213q-140 -1 -238 -109t-97 -327v-182q0 -208 88 -326t245 -118t248 80t91 203v117h-329v168h528v-278q0 -133 -72 -247q-138 -221 -452 -222q-272 0 -412 167t-141 456v183q0 287 151 451t408 164q118 0 216 -37q98 -36 160 -100q128 -130 139 -314h-203
q-16 133 -104 202q-86 69 -226 69zM378 1510l217 291h124l217 -291h-160l-117 172h-4l-117 -172h-160z" />
    <glyph glyph-name="gcircumflex" unicode="&#x11d;" horiz-adv-x="1177" 
d="M568 902q-120 0 -190 -86t-69 -246v-63q-1 -157 69 -245t192 -87q122 0 190 88t67 244v63q0 152 -69 242q-70 90 -190 90zM580 -235q108 1 177 67q70 66 70 183v163h-7q-32 -72 -114 -120t-186 -47q-188 0 -302 129t-113 362v80q-1 232 113 360t302 128q104 0 186 -47
t119 -119h7v150h196v-1045q0 -233 -196 -341q-113 -62 -290 -62q-176 0 -286 86t-128 226h202q14 -65 78 -109t172 -44zM307 1188l217 303h126l217 -303h-161l-117 180h-4l-117 -180h-161z" />
    <glyph glyph-name="Gbreve" unicode="&#x11e;" horiz-adv-x="1283" 
d="M366 1762h127q-1 -67 41 -111t123 -44t123 44t41 111h126q0 -103 -71 -187t-218 -84t-220 83q-72 83 -72 188zM644 1213q-140 -1 -238 -109t-97 -327v-182q0 -208 88 -326t245 -118t248 80t91 203v117h-329v168h528v-278q0 -133 -72 -247q-138 -221 -452 -222
q-272 0 -412 167t-141 456v183q0 287 151 451t408 164q118 0 216 -37q98 -36 160 -100q128 -130 139 -314h-203q-16 133 -104 202q-86 69 -226 69z" />
    <glyph glyph-name="gbreve" unicode="&#x11f;" horiz-adv-x="1177" 
d="M568 902q-120 0 -190 -86t-69 -246v-63q-1 -157 69 -245t192 -87q122 0 190 88t67 244v63q0 152 -69 242q-70 90 -190 90zM580 -235q108 1 177 67q70 66 70 183v163h-7q-32 -72 -114 -120t-186 -47q-188 0 -302 129t-113 362v80q-1 232 113 360t302 128q104 0 186 -47
t119 -119h7v150h196v-1045q0 -233 -196 -341q-113 -62 -290 -62q-176 0 -286 86t-128 226h202q14 -65 78 -109t172 -44zM292 1466h130q0 -69 42 -116t123 -47t123 47t42 116h129q0 -106 -73 -193q-73 -88 -221 -88q-149 0 -222 87t-73 194z" />
    <glyph glyph-name="Gdotaccent" unicode="&#x120;" horiz-adv-x="1283" 
d="M644 1213q-140 -1 -238 -109t-97 -327v-182q0 -208 88 -326t245 -118t248 80t91 203v117h-329v168h528v-278q0 -133 -72 -247q-138 -221 -452 -222q-272 0 -412 167t-141 456v183q0 287 151 451t408 164q118 0 216 -37q98 -36 160 -100q128 -130 139 -314h-203
q-16 133 -104 202q-86 69 -226 69zM541 1642q0 48 34 80q34 34 82 34t82 -34t34 -80q0 -48 -34 -82t-82 -33q-48 -1 -82 33t-34 82z" />
    <glyph glyph-name="gdotaccent" unicode="&#x121;" horiz-adv-x="1177" 
d="M568 902q-120 0 -190 -86t-69 -246v-63q-1 -157 69 -245t192 -87q122 0 190 88t67 244v63q0 152 -69 242q-70 90 -190 90zM580 -235q108 1 177 67q70 66 70 183v163h-7q-32 -72 -114 -120t-186 -47q-188 0 -302 129t-113 362v80q-1 232 113 360t302 128q104 0 186 -47
t119 -119h7v150h196v-1045q0 -233 -196 -341q-113 -62 -290 -62q-176 0 -286 86t-128 226h202q14 -65 78 -109t172 -44zM474 1304q0 48 32 81t80 33t81 -33t33 -81t-33 -80t-81 -32t-80 32t-32 80z" />
    <glyph glyph-name="Gcommaaccent" unicode="&#x122;" horiz-adv-x="1283" 
d="M644 1213q-140 -1 -238 -109t-97 -327v-182q0 -208 88 -326t245 -118t248 80t91 203v117h-329v168h528v-278q0 -133 -72 -247q-138 -221 -452 -222q-272 0 -412 167t-141 456v183q0 287 151 451t408 164q118 0 216 -37q98 -36 160 -100q128 -130 139 -314h-203
q-16 133 -104 202q-86 69 -226 69zM643 -489h-149l85 335h178z" />
    <glyph glyph-name="gcommaaccent" unicode="&#x123;" horiz-adv-x="1173" 
d="M568 902q-120 0 -190 -86t-69 -246v-63q-1 -157 69 -245t192 -87q122 0 190 88t67 244v63q0 152 -69 242q-70 90 -190 90zM580 -235q108 1 177 67q70 66 70 183v163h-7q-32 -72 -114 -120t-186 -47q-188 0 -302 129t-113 362v80q-1 232 113 360t302 128q104 0 186 -47
t119 -119h7v150h196v-1045q0 -233 -196 -341q-113 -62 -290 -62q-176 0 -286 86t-128 226h202q14 -65 78 -109t172 -44zM549 1589h149l-85 -335h-178z" />
    <glyph glyph-name="Hcircumflex" unicode="&#x124;" horiz-adv-x="1377" 
d="M409 1510l217 291h124l217 -291h-160l-117 172h-4l-117 -172h-160zM1220 0h-206v615h-650v-615h-206v1365h206v-572h650v572h206v-1365z" />
    <glyph glyph-name="hcircumflex" unicode="&#x125;" horiz-adv-x="1167" 
d="M-33 1582l217 291h124l217 -291h-160l-117 172h-4l-117 -172h-160zM149 0v1437h202v-527h7q34 64 111 112t194 49q167 0 271 -103t103 -291v-677h-202v639q1 125 -65 189t-180 65q-114 0 -177 -73q-62 -73 -62 -186v-634h-202z" />
    <glyph glyph-name="Hbar" unicode="&#x126;" horiz-adv-x="1378" 
d="M364 590v-590h-206v999h-105v145h105v221h206v-221h650v221h206v-221h105v-145h-105v-999h-206v590h-650zM364 768h650v231h-650v-231z" />
    <glyph glyph-name="hbar" unicode="&#x127;" horiz-adv-x="1167" 
d="M351 634v-634h-202v1167h-119v136h123v175h194v-175h263v-136h-259v-257h7q34 63 112 112t193 49q167 0 271 -103t103 -291v-677h-202v639q1 125 -65 189t-180 65q-114 0 -177 -73q-62 -73 -62 -186z" />
    <glyph glyph-name="Itilde" unicode="&#x128;" horiz-adv-x="521" 
d="M367 1588q54 0 62 96h115q0 -80 -47 -142t-120 -62t-121 40q-20 16 -48 44t-57 29q-55 0 -58 -94h-115q0 83 44 143t125 59t134 -57t86 -56zM364 0h-206v1365h206v-1365z" />
    <glyph glyph-name="itilde" unicode="&#x129;" horiz-adv-x="514" 
d="M360 1304q63 0 73 110h128q1 -89 -53 -160t-142 -71t-147 64t-98 64q-62 0 -66 -108h-128q0 95 50 161t139 67q45 0 84 -20q39 -19 61 -43q59 -64 99 -64zM156 0v1054h202v-1054h-202z" />
    <glyph glyph-name="Imacron" unicode="&#x12a;" horiz-adv-x="521" 
d="M536 1518h-552v116h552v-116zM364 0h-206v1365h206v-1365z" />
    <glyph glyph-name="imacron" unicode="&#x12b;" horiz-adv-x="514" 
d="M533 1237h-558v128h558v-128zM156 0v1054h202v-1054h-202z" />
    <glyph glyph-name="Ibreve" unicode="&#x12c;" horiz-adv-x="521" 
d="M-31 1762h127q0 -67 42 -111t122 -44t122 44t42 111h126q0 -103 -71 -187t-218 -84t-220 83q-72 83 -72 188zM364 0h-206v1365h206v-1365z" />
    <glyph glyph-name="ibreve" unicode="&#x12d;" horiz-adv-x="514" 
d="M-41 1466h130q0 -69 42 -116t123 -47t123 47t42 116h129q0 -106 -73 -193q-73 -88 -221 -88q-149 0 -222 87t-73 194zM156 0v1054h202v-1054h-202z" />
    <glyph glyph-name="Iogonek" unicode="&#x12e;" horiz-adv-x="521" 
d="M251 -387q-95 -1 -157 51t-62 146q0 141 140 216v3h-14v1336h206v-1350q-170 -58 -170 -167q0 -48 31 -74t81 -25q50 0 82 9v-124q-42 -21 -137 -21z" />
    <glyph glyph-name="iogonek" unicode="&#x12f;" horiz-adv-x="514" 
d="M134 1311q0 51 36 85t87 34t87 -34t36 -85t-36 -85t-87 -34t-87 34t-36 85zM238 -387q-94 0 -160 51t-65 147q0 141 143 218v1025h202v-1035q-122 -38 -162 -108q-16 -29 -16 -69t32 -66t82 -26t84 8v-126q-46 -19 -140 -19z" />
    <glyph glyph-name="Idotaccent" unicode="&#x130;" horiz-adv-x="521" 
d="M144 1642q0 48 34 80q34 34 82 34t82 -34t34 -80q0 -48 -34 -82t-82 -33q-48 -1 -82 33t-34 82zM364 0h-206v1365h206v-1365z" />
    <glyph glyph-name="dotlessi" unicode="&#x131;" horiz-adv-x="514" 
d="M156 0v1054h202v-1054h-202z" />
    <glyph glyph-name="Jcircumflex" unicode="&#x134;" horiz-adv-x="997" 
d="M462 1510l217 291h124l217 -291h-160l-117 172h-4l-117 -172h-160zM25 338h200q3 -83 59 -132t148 -49q92 1 150 59t57 180v969h207v-956q0 -215 -114 -326t-303 -111t-297 103t-107 263z" />
    <glyph glyph-name="jcircumflex" unicode="&#x135;" horiz-adv-x="514" 
d="M-31 1188l217 303h126l217 -303h-161l-117 180h-4l-117 -180h-161zM357 1054v-1080q1 -178 -79 -262t-226 -84q-67 0 -103 9v154q25 -5 63 -5q76 0 110 45t34 145v1078h201z" />
    <glyph glyph-name="Kcommaaccent" unicode="&#x136;" horiz-adv-x="1209" 
d="M590 -489h-149l85 335h178zM364 0h-206v1365h206v-644h9l568 644h236l-502 -583l527 -782h-256l-423 641l-159 -175v-466z" />
    <glyph glyph-name="kcommaaccent" unicode="&#x137;" horiz-adv-x="1007" 
d="M528 -489h-149l85 335h178zM350 0h-202v1437h202v-838h9l395 455h243l-406 -457l432 -597h-244l-339 474l-90 -100v-374z" />
    <glyph glyph-name="Lacute" unicode="&#x139;" horiz-adv-x="999" 
d="M976 181v-181h-818v1365h206v-1184h612zM323 1510h-149l191 279h193z" />
    <glyph glyph-name="lacute" unicode="&#x13a;" horiz-adv-x="507" 
d="M153 0v1437h201v-1437h-201zM317 1582h-149l191 279h193z" />
    <glyph glyph-name="Lcommaaccent" unicode="&#x13b;" horiz-adv-x="999" 
d="M976 181v-181h-818v1365h206v-1184h612zM493 -489h-149l85 335h178z" />
    <glyph glyph-name="lcommaaccent" unicode="&#x13c;" horiz-adv-x="507" 
d="M153 0v1437h201v-1437h-201zM239 -489h-149l85 335h178z" />
    <glyph glyph-name="Lcaron" unicode="&#x13d;" horiz-adv-x="999" 
d="M976 181v-181h-818v1365h206v-1184h612zM588 1437h183l-50 -488h-133v488z" />
    <glyph glyph-name="lcaron" unicode="&#x13e;" horiz-adv-x="708" 
d="M153 0v1437h201v-1437h-201zM526 1436h175l-45 -488h-130v488z" />
    <glyph glyph-name="Lslash" unicode="&#x141;" horiz-adv-x="1007" 
d="M984 0h-818v531l-127 -74v189l127 74v645h206v-528l358 210v-192l-358 -208v-466h612v-181z" />
    <glyph glyph-name="lslash" unicode="&#x142;" horiz-adv-x="631" 
d="M416 0h-201v601l-151 -101v185l151 102v650h201v-519l151 102v-189l-151 -102v-729z" />
    <glyph glyph-name="Nacute" unicode="&#x143;" horiz-adv-x="1368" 
d="M352 0h-194v1365h187l664 -1014h6v1014h195v-1365h-187l-665 1016h-6v-1016zM747 1510h-149l191 279h193z" />
    <glyph glyph-name="nacute" unicode="&#x144;" horiz-adv-x="1163" 
d="M146 0v1054h199v-144h7q34 64 112 112t195 49q167 0 270 -103t103 -291v-677h-201v639q0 125 -66 189t-180 65q-114 0 -176 -73t-62 -186v-634h-201zM647 1188h-149l191 278h193z" />
    <glyph glyph-name="Ncommaaccent" unicode="&#x145;" horiz-adv-x="1368" 
d="M352 0h-194v1365h187l664 -1014h6v1014h195v-1365h-187l-665 1016h-6v-1016zM669 -489h-149l85 335h178z" />
    <glyph glyph-name="ncommaaccent" unicode="&#x146;" horiz-adv-x="1163" 
d="M146 0v1054h199v-144h7q34 64 112 112t195 49q167 0 270 -103t103 -291v-677h-201v639q0 125 -66 189t-180 65q-114 0 -176 -73t-62 -186v-634h-201zM571 -489h-149l85 335h178z" />
    <glyph glyph-name="Ncaron" unicode="&#x147;" horiz-adv-x="1368" 
d="M352 0h-194v1365h187l664 -1014h6v1014h195v-1365h-187l-665 1016h-6v-1016zM404 1801h160l117 -172h4l117 172h160l-217 -291h-124z" />
    <glyph glyph-name="ncaron" unicode="&#x148;" horiz-adv-x="1163" 
d="M146 0v1054h199v-144h7q34 64 112 112t195 49q167 0 270 -103t103 -291v-677h-201v639q0 125 -66 189t-180 65q-114 0 -176 -73t-62 -186v-634h-201zM305 1491h161l117 -180h3l117 180h162l-217 -303h-127z" />
    <glyph glyph-name="Omacron" unicode="&#x14c;" horiz-adv-x="1326" 
d="M939 1518h-552v116h552v-116zM103 580v192q0 289 152 455t410 166q258 1 408 -165t150 -456v-192q0 -288 -151 -448q-150 -160 -410 -160t-410 160t-149 448zM311 774v-194q0 -211 97 -320t255 -109t255 109t97 320v194q1 212 -97 326t-254 114t-255 -114
q-98 -114 -98 -326z" />
    <glyph glyph-name="omacron" unicode="&#x14d;" horiz-adv-x="1132" 
d="M566 906q-124 0 -192 -91t-68 -246v-81q0 -154 68 -246t192 -92q126 0 192 92t67 246v81q0 155 -67 246t-192 91zM566 1072q218 0 340 -138t122 -360v-89q0 -227 -121 -365t-341 -138t-341 138q-122 138 -122 365v88q1 221 123 360t340 139zM846 1237h-558v128h558v-128z
" />
    <glyph glyph-name="Obreve" unicode="&#x14e;" horiz-adv-x="1326" 
d="M370 1762h127q-1 -67 41 -111t123 -44t123 44t41 111h126q0 -103 -71 -187t-218 -84t-220 83q-72 83 -72 188zM103 580v192q0 289 152 455t410 166q258 1 408 -165t150 -456v-192q0 -288 -151 -448q-150 -160 -410 -160t-410 160t-149 448zM311 774v-194q0 -211 97 -320
t255 -109t255 109t97 320v194q1 212 -97 326t-254 114t-255 -114q-98 -114 -98 -326z" />
    <glyph glyph-name="obreve" unicode="&#x14f;" horiz-adv-x="1132" 
d="M566 906q-124 0 -192 -91t-68 -246v-81q0 -154 68 -246t192 -92q126 0 192 92t67 246v81q0 155 -67 246t-192 91zM566 1072q218 0 340 -138t122 -360v-89q0 -227 -121 -365t-341 -138t-341 138q-122 138 -122 365v88q1 221 123 360t340 139zM272 1466h130q0 -69 42 -116
t123 -47t123 47t42 116h129q0 -106 -73 -193q-73 -88 -221 -88q-149 0 -222 87t-73 194z" />
    <glyph glyph-name="Ohungarumlaut" unicode="&#x150;" horiz-adv-x="1326" 
d="M103 580v192q0 289 152 455t410 166q258 1 408 -165t150 -456v-192q0 -288 -151 -448q-150 -160 -410 -160t-410 160t-149 448zM311 774v-194q0 -211 97 -320t255 -109t255 109t97 320v194q1 212 -97 326t-254 114t-255 -114q-98 -114 -98 -326zM719 1510l201 266h192
l-245 -266h-148zM411 1510l201 266h191l-245 -266h-147z" />
    <glyph glyph-name="ohungarumlaut" unicode="&#x151;" horiz-adv-x="1132" 
d="M566 906q-124 0 -192 -91t-68 -246v-81q0 -154 68 -246t192 -92q126 0 192 92t67 246v81q0 155 -67 246t-192 91zM566 1072q218 0 340 -138t122 -360v-89q0 -227 -121 -365t-341 -138t-341 138q-122 138 -122 365v88q1 221 123 360t340 139zM750 1188h-131l193 278h168z
M457 1188h-129l192 278h168z" />
    <glyph glyph-name="OE" unicode="&#x152;" horiz-adv-x="1958" 
d="M644 -28q-250 0 -396 162t-145 447v191q1 292 149 456t396 165q120 -1 218 -43t150 -124h15v139h815v-177h-625v-408h589v-170h-589v-433h625v-177h-815v144h-14q-55 -82 -154 -127t-219 -45zM314 774v-195q0 -211 97 -320t255 -109t256 104t98 314v224q0 210 -98 316
t-256 106t-254 -114q-98 -114 -98 -326z" />
    <glyph glyph-name="oe" unicode="&#x153;" horiz-adv-x="1802" 
d="M558 906q-120 0 -190 -88t-71 -229v-123q1 -144 69 -230t192 -86t191 86t67 230v123q0 141 -69 229t-189 88zM1020 628h491v3q0 120 -68 200t-177 80q-108 1 -176 -79t-70 -200v-4zM1276 -18q-120 0 -210 45t-141 126h-13q-54 -79 -148 -125t-211 -46q-204 0 -331 125
t-127 348v146q-1 215 129 343t338 128q110 0 204 -43t146 -129h13q46 76 137 124t209 48q201 0 319 -135t119 -357v-100h-689v-22q0 -142 70 -228t189 -85q84 0 142 40t80 112h196q-28 -135 -136 -225t-285 -90z" />
    <glyph glyph-name="Racute" unicode="&#x154;" horiz-adv-x="1228" 
d="M362 701h272q133 0 203 62t70 181q0 120 -72 184t-195 64h-278v-491zM668 1365q228 0 340 -121t112 -294q0 -218 -164 -334q-42 -30 -88 -47l277 -569h-233l-248 532h-302v-532h-204v1365h510zM645 1510h-149l191 279h193z" />
    <glyph glyph-name="racute" unicode="&#x155;" horiz-adv-x="718" 
d="M146 0v1054h202v-134h7q27 58 91 104t164 46q36 0 71 -5v-181q-28 6 -90 6q-241 0 -241 -254v-636h-204zM468 1188h-149l191 278h193z" />
    <glyph glyph-name="Rcommaaccent" unicode="&#x156;" horiz-adv-x="1228" 
d="M567 -489h-149l85 335h178zM362 701h272q133 0 203 62t70 181q0 120 -72 184t-195 64h-278v-491zM668 1365q228 0 340 -121t112 -294q0 -218 -164 -334q-42 -30 -88 -47l277 -569h-233l-248 532h-302v-532h-204v1365h510z" />
    <glyph glyph-name="rcommaaccent" unicode="&#x157;" horiz-adv-x="718" 
d="M235 -489h-149l85 335h178zM146 0v1054h202v-134h7q27 58 91 104t164 46q36 0 71 -5v-181q-28 6 -90 6q-241 0 -241 -254v-636h-204z" />
    <glyph glyph-name="Rcaron" unicode="&#x158;" horiz-adv-x="1228" 
d="M302 1801h160l117 -172h4l117 172h160l-217 -291h-124zM362 701h272q133 0 203 62t70 181q0 120 -72 184t-195 64h-278v-491zM668 1365q228 0 340 -121t112 -294q0 -218 -164 -334q-42 -30 -88 -47l277 -569h-233l-248 532h-302v-532h-204v1365h510z" />
    <glyph glyph-name="rcaron" unicode="&#x159;" horiz-adv-x="718" 
d="M146 0v1054h202v-134h7q27 58 91 104t164 46q36 0 71 -5v-181q-28 6 -90 6q-241 0 -241 -254v-636h-204zM126 1491h161l117 -180h3l117 180h162l-217 -303h-127z" />
    <glyph glyph-name="Sacute" unicode="&#x15a;" horiz-adv-x="1172" 
d="M578 146q140 0 219 60t79 152t-52 140t-167 76l-230 58q-137 34 -232 120q-96 86 -96 227q1 143 69 235q135 182 414 182t414 -178q69 -91 71 -216h-199q-8 97 -82 159t-202 62q-128 -1 -202 -57q-76 -56 -76 -155q0 -144 191 -190l228 -58q209 -51 293 -161
q66 -86 66 -215q0 -195 -144 -305t-376 -110q-301 0 -431 182q-69 97 -73 221h203q10 -99 93 -164q82 -65 222 -65zM647 1510h-149l191 279h193z" />
    <glyph glyph-name="sacute" unicode="&#x15b;" horiz-adv-x="1005" 
d="M568 1188h-149l191 278h193zM105 756q0 76 33 138q34 64 90 102q113 76 286 76q174 0 275 -88t101 -230h-184q-6 68 -54 116t-145 47q-97 0 -152 -39t-55 -109q0 -105 180 -142q38 -8 60 -11q21 -4 55 -10t82 -20q116 -31 179 -93t63 -177q1 -158 -115 -246t-307 -88
t-301 82t-110 224h197q10 -70 68 -110t159 -40q100 0 156 44t56 104q0 61 -28 84q-49 39 -99 52q-49 14 -91 22q-43 8 -85 17q-41 9 -99 29t-110 54t-78 84q-26 52 -27 128z" />
    <glyph glyph-name="Scircumflex" unicode="&#x15c;" horiz-adv-x="1172" 
d="M304 1510l217 291h124l217 -291h-160l-117 172h-4l-117 -172h-160zM578 146q140 0 219 60t79 152t-52 140t-167 76l-230 58q-137 34 -232 120q-96 86 -96 227q1 143 69 235q135 182 414 182t414 -178q69 -91 71 -216h-199q-8 97 -82 159t-202 62q-128 -1 -202 -57
q-76 -56 -76 -155q0 -144 191 -190l228 -58q209 -51 293 -161q66 -86 66 -215q0 -195 -144 -305t-376 -110q-301 0 -431 182q-69 97 -73 221h203q10 -99 93 -164q82 -65 222 -65z" />
    <glyph glyph-name="scircumflex" unicode="&#x15d;" horiz-adv-x="1005" 
d="M105 756q0 76 33 138q34 64 90 102q113 76 286 76q174 0 275 -88t101 -230h-184q-6 68 -54 116t-145 47q-97 0 -152 -39t-55 -109q0 -105 180 -142q38 -8 60 -11q21 -4 55 -10t82 -20q116 -31 179 -93t63 -177q1 -158 -115 -246t-307 -88t-301 82t-110 224h197
q10 -70 68 -110t159 -40q100 0 156 44t56 104q0 61 -28 84q-49 39 -99 52q-49 14 -91 22q-43 8 -85 17q-41 9 -99 29t-110 54t-78 84q-26 52 -27 128zM226 1188l217 303h126l217 -303h-161l-117 180h-4l-117 -180h-161z" />
    <glyph glyph-name="Scedilla" unicode="&#x15e;" horiz-adv-x="1172" 
d="M614 -115q199 0 199 -169q0 -86 -63 -133t-159 -51t-156 15v111q47 -14 114 -14q116 0 116 73q0 46 -36 56t-100 10h-53v85l44 105q-275 14 -393 190q-63 93 -67 212h203q10 -99 93 -164q82 -65 222 -65t219 60t79 152t-52 140t-167 76l-230 58q-137 34 -232 120
q-96 86 -96 227q1 143 69 235q135 182 414 182t414 -178q69 -91 71 -216h-199q-8 97 -82 159t-202 62q-128 -1 -202 -57q-76 -56 -76 -155q0 -144 191 -190l228 -58q209 -51 293 -161q66 -86 66 -215q0 -176 -118 -283t-314 -127z" />
    <glyph glyph-name="scedilla" unicode="&#x15f;" horiz-adv-x="1005" 
d="M466 -351q115 0 115 73q0 50 -60 60q-33 6 -83 6h-53v85l42 112q-157 15 -249 95t-92 208h197q10 -70 65 -110t158 -40q104 0 160 42t56 111q0 87 -104 124q-42 15 -99 26t-91 18t-82 21q-241 73 -241 256q0 178 118 257q117 79 291 79t275 -88t101 -230h-184
q-6 68 -54 116t-146 47q-98 0 -152 -39t-54 -103t52 -99q52 -36 164 -56q112 -21 160 -34q117 -32 180 -94q63 -64 63 -192q-1 -128 -97 -214t-263 -100l-36 -96q95 0 151 -42t56 -128t-63 -132q-63 -47 -157 -51t-159 15v111q47 -14 115 -14z" />
    <glyph glyph-name="Scaron" unicode="&#x160;" horiz-adv-x="1172" 
d="M304 1801h160l117 -172h4l117 172h160l-217 -291h-124zM578 146q140 0 219 60t79 152t-52 140t-167 76l-230 58q-137 34 -232 120q-96 86 -96 227q1 143 69 235q135 182 414 182t414 -178q69 -91 71 -216h-199q-8 97 -82 159t-202 62q-128 -1 -202 -57q-76 -56 -76 -155
q0 -144 191 -190l228 -58q209 -51 293 -161q66 -86 66 -215q0 -195 -144 -305t-376 -110q-301 0 -431 182q-69 97 -73 221h203q10 -99 93 -164q82 -65 222 -65z" />
    <glyph glyph-name="scaron" unicode="&#x161;" horiz-adv-x="1005" 
d="M105 756q0 76 33 138q34 64 90 102q113 76 286 76q174 0 275 -88t101 -230h-184q-6 68 -54 116t-145 47q-97 0 -152 -39t-55 -109q0 -105 180 -142q38 -8 60 -11q21 -4 55 -10t82 -20q116 -31 179 -93t63 -177q1 -158 -115 -246t-307 -88t-301 82t-110 224h197
q10 -70 68 -110t159 -40q100 0 156 44t56 104q0 61 -28 84q-49 39 -99 52q-49 14 -91 22q-43 8 -85 17q-41 9 -99 29t-110 54t-78 84q-26 52 -27 128zM226 1491h161l117 -180h3l117 180h162l-217 -303h-127z" />
    <glyph glyph-name="Tcedilla" unicode="&#x162;" horiz-adv-x="1054" 
d="M504 -373q116 0 116 73q0 62 -98 64q-16 0 -45 1h-53v86l55 149h-54v1186h-407v179h1018v-179h-407v-1186h-19l-49 -132q95 0 151 -42t56 -128t-63 -132q-63 -47 -157 -51t-159 15v110q44 -13 115 -13z" />
    <glyph glyph-name="tcedilla" unicode="&#x163;" horiz-adv-x="714" 
d="M372 -353q115 0 115 74q-1 63 -99 65h-44h-53v86l55 149q-73 30 -102 96t-29 179v594h-144v164h146v260h199v-260h207v-164h-207v-584q0 -88 36 -120t130 -32q20 0 48 2v-157q-40 -7 -82 -7t-79 2l-40 -105q95 0 151 -42t56 -128t-63 -133q-63 -46 -157 -50t-159 15v110
q47 -14 115 -14z" />
    <glyph glyph-name="Tcaron" unicode="&#x164;" horiz-adv-x="1054" 
d="M629 0h-204v1186h-407v179h1018v-179h-407v-1186zM247 1801h160l117 -172h4l117 172h160l-217 -291h-124z" />
    <glyph glyph-name="tcaron" unicode="&#x165;" horiz-adv-x="719" 
d="M217 1054v260h199v-260h207v-164h-207v-584q0 -88 36 -120t130 -32q20 0 48 2v-157q-40 -7 -116 -7q-168 0 -234 72q-65 72 -65 232v594h-144v164h146zM589 1698h175l-45 -488h-130v488z" />
    <glyph glyph-name="Tbar" unicode="&#x166;" horiz-adv-x="1055" 
d="M861 631h-232v-631h-204v631h-231v144h231v411h-406v179h1017v-179h-407v-411h232v-144z" />
    <glyph glyph-name="tbar" unicode="&#x167;" horiz-adv-x="713" 
d="M512 -8q-167 0 -232 72t-65 232v233h-137v137h137v224h-144v164h146v260h199v-260h207v-164h-207v-224h206v-137h-206v-223q0 -88 36 -120t130 -32q24 0 48 3v-158q-42 -7 -118 -7z" />
    <glyph glyph-name="Utilde" unicode="&#x168;" horiz-adv-x="1341" 
d="M954 1684q0 -80 -47 -142t-120 -62t-121 40q-20 16 -48 44t-57 29q-55 0 -58 -94h-115q0 83 44 143t125 59t134 -57t86 -56q54 0 62 96h115zM346 1365v-881q0 -153 88 -242t236 -89q148 -1 236 89t89 242v881h204v-909q0 -216 -142 -350q-143 -134 -387 -134t-386 134
t-142 350v909h204z" />
    <glyph glyph-name="utilde" unicode="&#x169;" horiz-adv-x="1158" 
d="M681 1304q63 0 73 110h128q0 -89 -54 -160t-141 -71q-88 0 -147 64t-98 64q-62 0 -66 -108h-128q0 95 50 161t139 67q45 0 84 -20q39 -19 61 -43q59 -64 99 -64zM1012 1054v-1054h-199v143h-8q-30 -69 -108 -115t-197 -45q-168 -1 -268 95t-101 274v702h202v-646
q0 -133 65 -190t172 -57q108 0 174 66t66 184v643h202z" />
    <glyph glyph-name="Umacron" unicode="&#x16a;" horiz-adv-x="1341" 
d="M946 1518h-552v116h552v-116zM346 1365v-881q0 -153 88 -242t236 -89q148 -1 236 89t89 242v881h204v-909q0 -216 -142 -350q-143 -134 -387 -134t-386 134t-142 350v909h204z" />
    <glyph glyph-name="umacron" unicode="&#x16b;" horiz-adv-x="1158" 
d="M854 1237h-558v128h558v-128zM1012 1054v-1054h-199v143h-8q-30 -69 -108 -115t-197 -45q-168 -1 -268 95t-101 274v702h202v-646q0 -133 65 -190t172 -57q108 0 174 66t66 184v643h202z" />
    <glyph glyph-name="Ubreve" unicode="&#x16c;" horiz-adv-x="1341" 
d="M379 1762h127q0 -67 42 -111t122 -44t122 44t42 111h126q0 -103 -71 -187t-218 -84t-220 83q-72 83 -72 188zM346 1365v-881q0 -153 88 -242t236 -89q148 -1 236 89t89 242v881h204v-909q0 -216 -142 -350q-143 -134 -387 -134t-386 134t-142 350v909h204z" />
    <glyph glyph-name="ubreve" unicode="&#x16d;" horiz-adv-x="1158" 
d="M280 1466h130q0 -69 42 -116t123 -47t123 47t42 116h129q0 -106 -73 -193q-73 -88 -221 -88q-149 0 -222 87t-73 194zM1012 1054v-1054h-199v143h-8q-30 -69 -108 -115t-197 -45q-168 -1 -268 95t-101 274v702h202v-646q0 -133 65 -190t172 -57q108 0 174 66t66 184v643
h202z" />
    <glyph glyph-name="Uring" unicode="&#x16e;" horiz-adv-x="1341" 
d="M346 1365v-881q0 -153 88 -242t236 -89q148 -1 236 89t89 242v881h204v-909q0 -216 -142 -350q-143 -134 -387 -134t-386 134t-142 350v909h204zM571 1678q1 -42 29 -72q28 -29 70 -29t70 29q28 30 29 72q-1 42 -29 71t-70 29t-70 -29t-29 -71zM670 1485q-84 0 -140 55
q-58 56 -58 138t58 137t140 55q84 0 141 -55t57 -137t-57 -138q-57 -55 -141 -55z" />
    <glyph glyph-name="uring" unicode="&#x16f;" horiz-adv-x="1158" 
d="M476 1374q0 -42 28 -71t71 -29t71 29t28 71t-28 72q-28 29 -71 29t-71 -29q-28 -30 -28 -72zM576 1182q-84 0 -142 55t-57 137q-1 82 57 138q58 55 142 55t140 -55q57 -56 57 -138t-57 -137q-56 -55 -140 -55zM1012 1054v-1054h-199v143h-8q-30 -69 -108 -115t-197 -45
q-168 -1 -268 95t-101 274v702h202v-646q0 -133 65 -190t172 -57q108 0 174 66t66 184v643h202z" />
    <glyph glyph-name="Uhungarumlaut" unicode="&#x170;" horiz-adv-x="1341" 
d="M728 1510l201 266h192l-245 -266h-148zM420 1510l201 266h191l-245 -266h-147zM346 1365v-881q0 -153 88 -242t236 -89q148 -1 236 89t89 242v881h204v-909q0 -216 -142 -350q-143 -134 -387 -134t-386 134t-142 350v909h204z" />
    <glyph glyph-name="uhungarumlaut" unicode="&#x171;" horiz-adv-x="1158" 
d="M1012 1054v-1054h-199v143h-8q-30 -69 -108 -115t-197 -45q-168 -1 -268 95t-101 274v702h202v-646q0 -133 65 -190t172 -57q108 0 174 66t66 184v643h202zM758 1188h-131l193 278h168zM465 1188h-129l192 278h168z" />
    <glyph glyph-name="Uogonek" unicode="&#x172;" horiz-adv-x="1341" 
d="M950 -387q-80 0 -146 51t-67 158q0 107 97 184l-4 8q-80 -42 -172 -42q-224 0 -370 140t-146 365v888h206v-881q0 -153 87 -242t235 -89q148 -1 236 89t88 242v881h205v-891q0 -231 -151 -391q-14 -15 -52 -55t-54 -58q-46 -55 -46 -111q0 -105 117 -105q37 0 76 10v-131
q-59 -20 -139 -20z" />
    <glyph glyph-name="uogonek" unicode="&#x173;" horiz-adv-x="1158" 
d="M886 -387q-88 -1 -153 49q-66 50 -66 144q-1 94 73 167q26 26 38 34q11 8 39 30v106h-8q-31 -68 -109 -114t-198 -46q-167 -1 -269 95t-102 274v702h202v-646q0 -133 65 -190t172 -57q108 0 174 66t66 184v643h202v-1047q-72 -23 -128 -65t-56 -91q0 -96 115 -96
q45 0 80 8v-129q-49 -21 -137 -21z" />
    <glyph glyph-name="Wcircumflex" unicode="&#x174;" horiz-adv-x="1696" 
d="M569 0h-187l-371 1365h224l247 -1037h7l261 1037h197l260 -1037h7l247 1037h224l-371 -1365h-186l-276 1030h-7zM570 1510l217 291h124l217 -291h-160l-117 172h-4l-117 -172h-160z" />
    <glyph glyph-name="wcircumflex" unicode="&#x175;" horiz-adv-x="1503" 
d="M1467 1054l-274 -1054h-211l-228 792h-5l-228 -792h-211l-274 1054h204l182 -815h9l225 815h192l226 -815h8l182 815h203zM471 1188l217 303h126l217 -303h-161l-117 180h-4l-117 -180h-161z" />
    <glyph glyph-name="Ycircumflex" unicode="&#x176;" horiz-adv-x="1108" 
d="M275 1510l217 291h124l217 -291h-160l-117 172h-4l-117 -172h-160zM656 0h-204v565l-457 800h232l325 -597h7l326 597h228l-457 -797v-568z" />
    <glyph glyph-name="ycircumflex" unicode="&#x177;" horiz-adv-x="986" 
d="M218 1188l217 303h126l217 -303h-161l-117 180h-4l-117 -180h-161zM188 -221q142 0 183 160l14 50l-381 1065h224l265 -848h7l267 848h215q-365 -1044 -366 -1048l-27 -73q-68 -186 -159 -250q-92 -65 -218 -65q-64 0 -123 9v157q27 -5 99 -5z" />
    <glyph glyph-name="Ydieresis" unicode="&#x178;" horiz-adv-x="1109" 
d="M714 1489q-40 -1 -66 27q-27 28 -27 69q1 41 27 69t66 27q40 1 67 -27t27 -69t-27 -69t-67 -27zM394 1489q-40 -1 -66 27t-26 69t26 69t67 27q41 1 67 -27t26 -70t-27 -68q-27 -27 -67 -27zM656 0h-204v565l-457 800h232l325 -597h7l326 597h228l-457 -797v-568z" />
    <glyph glyph-name="Zacute" unicode="&#x179;" horiz-adv-x="1156" 
d="M83 0v141l708 1041v6h-685v177h937v-139l-703 -1042v-7h721v-177h-978zM642 1510h-149l191 279h193z" />
    <glyph glyph-name="zacute" unicode="&#x17a;" horiz-adv-x="978" 
d="M96 0v136l546 743v7h-540v168h789v-141l-540 -738v-7h548v-168h-803zM557 1188h-149l191 278h193z" />
    <glyph glyph-name="Zdotaccent" unicode="&#x17b;" horiz-adv-x="1156" 
d="M83 0v141l708 1041v6h-685v177h937v-139l-703 -1042v-7h721v-177h-978zM462 1642q0 48 34 80q34 34 82 34t82 -34t34 -80q0 -48 -34 -82t-82 -33q-48 -1 -82 33t-34 82z" />
    <glyph glyph-name="zdotaccent" unicode="&#x17c;" horiz-adv-x="978" 
d="M96 0v136l546 743v7h-540v168h789v-141l-540 -738v-7h548v-168h-803zM382 1304q0 48 32 81t80 33t81 -33t33 -81t-33 -80t-81 -32t-80 32t-32 80z" />
    <glyph glyph-name="Zcaron" unicode="&#x17d;" horiz-adv-x="1156" 
d="M299 1801h160l117 -172h4l117 172h160l-217 -291h-124zM83 0v141l708 1041v6h-685v177h937v-139l-703 -1042v-7h721v-177h-978z" />
    <glyph glyph-name="zcaron" unicode="&#x17e;" horiz-adv-x="978" 
d="M96 0v136l546 743v7h-540v168h789v-141l-540 -738v-7h548v-168h-803zM215 1491h161l117 -180h3l117 180h162l-217 -303h-127z" />
    <glyph glyph-name="florin" unicode="&#x192;" horiz-adv-x="1158" 
d="M773 1393q193 -1 266 -131q38 -69 32 -145h-187q2 53 -34 83t-90 31q-130 0 -158 -167l-28 -164h294l-29 -164h-294l-168 -922h-211l168 922h-208l29 164h209l30 179q53 314 379 314z" />
    <glyph glyph-name="Ohorn" unicode="&#x1a0;" horiz-adv-x="1335" 
d="M310 774v-195q0 -211 97 -320t255 -109t254 109q97 109 97 320v195q1 212 -97 326t-254 114t-254 -114t-98 -326zM1221 580q0 -288 -151 -448t-410 -160t-408 160t-149 448v192q0 289 151 455t409 166q125 1 229 -43q104 -43 179 -44q73 0 103 40t30 113v99h172v-109
q0 -135 -67 -208t-191 -73l-3 -6q43 -63 75 -170t31 -220v-192z" />
    <glyph glyph-name="ohorn" unicode="&#x1a1;" horiz-adv-x="1188" 
d="M567 906q-87 0 -147 -48q-113 -90 -113 -294v-76q0 -203 112 -291q60 -47 148 -47q87 0 147 47q110 87 111 291v76q1 204 -111 294q-60 48 -147 48zM567 -18q-215 0 -339 133t-124 362v99q0 220 123 358t340 138q69 0 151 -21t138 -21q114 0 114 147v156h172v-157
q0 -262 -206 -276v-8q36 -52 64 -138t28 -177v-99q0 -228 -122 -362t-339 -134z" />
    <glyph glyph-name="Uhorn" unicode="&#x1af;" horiz-adv-x="1411" 
d="M670 -27q-238 0 -382 139q-146 139 -146 365v888h206v-880q0 -153 87 -243t235 -89q148 -1 236 89t88 243v880h207q71 -1 99 37t28 110v107h170v-117q0 -126 -64 -204t-188 -77h-47v-747q1 -226 -145 -364t-384 -137z" />
    <glyph glyph-name="uhorn" unicode="&#x1b0;" horiz-adv-x="1274" 
d="M500 -17q-168 -1 -268 95t-101 274v702h202v-646q0 -133 65 -190t172 -57q108 0 174 66t66 184v643h182q70 0 96 37t27 110v132h172v-142q1 -125 -63 -202t-191 -77h-21v-912h-199v143h-8q-30 -69 -108 -115t-197 -45z" />
    <glyph glyph-name="Acaron" unicode="&#x1cd;" horiz-adv-x="1219" 
d="M328 1801h160l117 -172h4l117 172h160l-217 -291h-124zM608 1141h-7l-193 -590h392zM231 0h-209l476 1365h223l476 -1365h-221l-127 391h-490z" />
    <glyph glyph-name="acaron" unicode="&#x1ce;" horiz-adv-x="1067" 
d="M255 1491h161l117 -180h3l117 180h162l-217 -303h-127zM501 142q93 0 161 58t68 149v119h-243q-99 0 -147 -42t-48 -118t58 -122q58 -44 151 -44zM432 -17q-154 -1 -249 87t-95 232t96 224q96 81 275 82h271v103q0 96 -54 147t-149 51t-149 -44t-61 -119h-190
q8 145 109 235t287 90t297 -91t111 -258v-722h-193v130h-7q-88 -147 -299 -147z" />
    <glyph glyph-name="Icaron" unicode="&#x1cf;" horiz-adv-x="520" 
d="M-20 1801h160l117 -172h4l117 172h160l-217 -291h-124zM364 0h-206v1365h206v-1365z" />
    <glyph glyph-name="icaron" unicode="&#x1d0;" horiz-adv-x="514" 
d="M156 0v1054h202v-1054h-202zM-26 1491h161l117 -180h3l117 180h162l-217 -303h-127z" />
    <glyph glyph-name="Ocaron" unicode="&#x1d1;" horiz-adv-x="1326" 
d="M103 580v192q0 289 152 455t410 166q258 1 408 -165t150 -456v-192q0 -288 -151 -448q-150 -160 -410 -160t-410 160t-149 448zM311 774v-194q0 -211 97 -320t255 -109t255 109t97 320v194q1 212 -97 326t-254 114t-255 -114q-98 -114 -98 -326zM382 1801h160l117 -172h4
l117 172h160l-217 -291h-124z" />
    <glyph glyph-name="ocaron" unicode="&#x1d2;" horiz-adv-x="1132" 
d="M566 906q-124 0 -192 -91t-68 -246v-81q0 -154 68 -246t192 -92q126 0 192 92t67 246v81q0 155 -67 246t-192 91zM566 1072q218 0 340 -138t122 -360v-89q0 -227 -121 -365t-341 -138t-341 138q-122 138 -122 365v88q1 221 123 360t340 139zM287 1491h161l117 -180h3
l117 180h162l-217 -303h-127z" />
    <glyph glyph-name="Ucaron" unicode="&#x1d3;" horiz-adv-x="1341" 
d="M346 1365v-881q0 -153 88 -242t236 -89q148 -1 236 89t89 242v881h204v-909q0 -216 -142 -350q-143 -134 -387 -134t-386 134t-142 350v909h204zM391 1801h160l117 -172h4l117 172h160l-217 -291h-124z" />
    <glyph glyph-name="ucaron" unicode="&#x1d4;" horiz-adv-x="1158" 
d="M1012 1054v-1054h-199v143h-8q-30 -69 -108 -115t-197 -45q-168 -1 -268 95t-101 274v702h202v-646q0 -133 65 -190t172 -57q108 0 174 66t66 184v643h202zM295 1491h161l117 -180h3l117 180h162l-217 -303h-127z" />
    <glyph glyph-name="Udieresismacron" unicode="&#x1d5;" horiz-adv-x="1341" 
d="M946 1791h-552v116h552v-116zM831 1489q-39 -1 -66 27t-27 69t26 69t67 27q40 1 67 -27t27 -69q1 -41 -27 -69t-67 -27zM512 1489q-40 -1 -66 27t-27 69q1 41 27 69t66 27q40 1 66 -27t27 -70q0 -42 -27 -68q-26 -27 -66 -27zM346 1365v-881q0 -153 88 -242t236 -89
q148 -1 236 89t89 242v881h204v-909q0 -216 -142 -350q-143 -134 -387 -134t-386 134t-142 350v909h204z" />
    <glyph glyph-name="udieresismacron" unicode="&#x1d6;" horiz-adv-x="1158" 
d="M854 1545h-558v128h558v-128zM754 1198q-42 0 -71 29q-28 29 -28 73t28 72q29 29 71 29t70 -29q28 -28 29 -72q-1 -44 -29 -73t-70 -29zM396 1198q-42 0 -70 29t-29 73q0 44 28 72q29 29 71 29t70 -29q28 -28 29 -72q-1 -44 -29 -73t-70 -29zM1012 1054v-1054h-199v143
h-8q-30 -69 -108 -115t-197 -45q-168 -1 -268 95t-101 274v702h202v-646q0 -133 65 -190t172 -57q108 0 174 66t66 184v643h202z" />
    <glyph glyph-name="Udieresisacute" unicode="&#x1d7;" horiz-adv-x="1341" 
d="M346 1365v-881q0 -153 88 -242t236 -89q148 -1 236 89t89 242v881h204v-909q0 -216 -142 -350q-143 -134 -387 -134t-386 134t-142 350v909h204zM831 1489q-39 -1 -66 27t-27 69t26 69t67 27q40 1 67 -27t27 -69q1 -41 -27 -69t-67 -27zM512 1489q-40 -1 -66 27t-27 69
q1 41 27 69t66 27q40 1 66 -27t27 -70q0 -42 -27 -68q-26 -27 -66 -27zM576 1738l233 195h208l-275 -195h-166z" />
    <glyph glyph-name="udieresisacute" unicode="&#x1d8;" horiz-adv-x="1158" 
d="M1012 1054v-1054h-199v143h-8q-30 -69 -108 -115t-197 -45q-168 -1 -268 95t-101 274v702h202v-646q0 -133 65 -190t172 -57q108 0 174 66t66 184v643h202zM754 1198q-42 0 -71 29q-28 29 -28 73t28 72q29 29 71 29t70 -29q28 -28 29 -72q-1 -44 -29 -73t-70 -29z
M396 1198q-42 0 -70 29t-29 73q0 44 28 72q29 29 71 29t70 -29q28 -28 29 -72q-1 -44 -29 -73t-70 -29zM640 1505h-149l191 278h193z" />
    <glyph glyph-name="Udieresiscaron" unicode="&#x1d9;" horiz-adv-x="1341" 
d="M346 1365v-881q0 -153 88 -242t236 -89q148 -1 236 89t89 242v881h204v-909q0 -216 -142 -350q-143 -134 -387 -134t-386 134t-142 350v909h204zM335 1925h186l147 -110h4l147 110h186l-279 -203h-112zM738 1585q0 41 26 69t67 27q40 1 67 -27t27 -69q1 -41 -27 -69
t-67 -27q-39 -1 -66 27t-27 69zM419 1585q1 41 27 69t66 27q40 1 66 -27t27 -70q0 -42 -27 -68q-26 -27 -66 -27q-40 -1 -66 27t-27 69z" />
    <glyph glyph-name="udieresiscaron" unicode="&#x1da;" horiz-adv-x="1158" 
d="M1012 1054v-1054h-199v143h-8q-30 -69 -108 -115t-197 -45q-168 -1 -268 95t-101 274v702h202v-646q0 -133 65 -190t172 -57q108 0 174 66t66 184v643h202zM754 1198q-42 0 -71 29q-28 29 -28 73t28 72q29 29 71 29t70 -29q28 -28 29 -72q-1 -44 -29 -73t-70 -29z
M396 1198q-42 0 -70 29t-29 73q0 44 28 72q29 29 71 29t70 -29q28 -28 29 -72q-1 -44 -29 -73t-70 -29zM295 1790h161l117 -180h3l117 180h162l-217 -303h-127z" />
    <glyph glyph-name="Udieresisgrave" unicode="&#x1db;" horiz-adv-x="1341" 
d="M346 1365v-881q0 -153 88 -242t236 -89q148 -1 236 89t89 242v881h204v-909q0 -216 -142 -350q-143 -134 -387 -134t-386 134t-142 350v909h204zM831 1489q-39 -1 -66 27t-27 69t26 69t67 27q40 1 67 -27t27 -69q1 -41 -27 -69t-67 -27zM512 1489q-40 -1 -66 27t-27 69
q1 41 27 69t66 27q40 1 66 -27t27 -70q0 -42 -27 -68q-26 -27 -66 -27zM764 1738h-166l-275 195h208z" />
    <glyph glyph-name="udieresisgrave" unicode="&#x1dc;" horiz-adv-x="1158" 
d="M1012 1054v-1054h-199v143h-8q-30 -69 -108 -115t-197 -45q-168 -1 -268 95t-101 274v702h202v-646q0 -133 65 -190t172 -57q108 0 174 66t66 184v643h202zM754 1198q-42 0 -71 29q-28 29 -28 73t28 72q29 29 71 29t70 -29q28 -28 29 -72q-1 -44 -29 -73t-70 -29z
M396 1198q-42 0 -70 29t-29 73q0 44 28 72q29 29 71 29t70 -29q28 -28 29 -72q-1 -44 -29 -73t-70 -29zM662 1505h-149l-235 278h194z" />
    <glyph glyph-name="Adieresismacron" unicode="&#x1de;" horiz-adv-x="1219" 
d="M886 1791h-552v116h552v-116zM771 1489q-39 -1 -66 27t-27 69t26 69t67 27q40 1 67 -27t27 -69q1 -41 -27 -69t-67 -27zM452 1489q-40 -1 -66 27t-27 69q1 41 27 69t66 27q40 1 66 -27t27 -70q0 -42 -27 -68q-26 -27 -66 -27zM608 1141h-7l-193 -590h392zM231 0h-209
l476 1365h223l476 -1365h-221l-127 391h-490z" />
    <glyph glyph-name="adieresismacron" unicode="&#x1df;" horiz-adv-x="1067" 
d="M814 1545h-558v128h558v-128zM714 1198q-42 0 -71 29q-28 29 -28 73t28 72q29 29 71 29t70 -29q28 -28 29 -72q-1 -44 -29 -73t-70 -29zM356 1198q-42 0 -70 29t-29 73q0 44 28 72q29 29 71 29t70 -29q28 -28 29 -72q-1 -44 -29 -73t-70 -29zM501 142q93 0 161 58t68 149
v119h-243q-99 0 -147 -42t-48 -118t58 -122q58 -44 151 -44zM432 -17q-154 -1 -249 87t-95 232t96 224q96 81 275 82h271v103q0 96 -54 147t-149 51t-149 -44t-61 -119h-190q8 145 109 235t287 90t297 -91t111 -258v-722h-193v130h-7q-88 -147 -299 -147z" />
    <glyph glyph-name="Adotmacron" unicode="&#x1e0;" horiz-adv-x="1219" 
d="M886 1791h-552v116h552v-116zM499 1578q1 46 33 77q32 32 78 32t78 -32q32 -31 33 -77q-1 -46 -33 -78t-78 -32t-78 32t-33 78zM608 1141h-7l-193 -590h392zM231 0h-209l476 1365h223l476 -1365h-221l-127 391h-490z" />
    <glyph glyph-name="adotmacron" unicode="&#x1e1;" horiz-adv-x="1067" 
d="M814 1545h-558v128h558v-128zM421 1299q1 48 33 81t80 33t80 -33q33 -33 33 -81t-33 -80q-32 -32 -80 -32t-80 32t-33 80zM501 142q93 0 161 58t68 149v119h-243q-99 0 -147 -42t-48 -118t58 -122q58 -44 151 -44zM432 -17q-154 -1 -249 87t-95 232t96 224q96 81 275 82
h271v103q0 96 -54 147t-149 51t-149 -44t-61 -119h-190q8 145 109 235t287 90t297 -91t111 -258v-722h-193v130h-7q-88 -147 -299 -147z" />
    <glyph glyph-name="AEmacron" unicode="&#x1e2;" horiz-adv-x="1864" 
d="M1617 1518h-552v116h552v-116zM922 405h-468l-212 -405h-230l719 1365h1021v-177h-626v-408h590v-170h-590v-433h626v-177h-830v405zM922 570v618h-71l-316 -618h387z" />
    <glyph glyph-name="aemacron" unicode="&#x1e3;" horiz-adv-x="1727" 
d="M1135 1237h-558v128h558v-128zM494 477q-202 -1 -202 -167q0 -80 58 -124t151 -44t161 58t68 149v128h-236zM938 628h491v3q0 123 -66 201t-179 77q-114 0 -180 -78t-66 -200v-3zM447 -18q-163 0 -261 88t-98 234t96 232t275 87h271v88q0 96 -54 147t-149 51t-149 -44
t-61 -119h-190q8 146 109 236t294 90q107 0 193 -38t135 -104h3q111 142 324 142t328 -136t115 -364v-92h-690v-30q0 -124 64 -212q64 -89 194 -89q96 0 150 42t68 106h201q-16 -115 -115 -215t-303 -100q-262 0 -376 199h-3q-123 -199 -371 -199z" />
    <glyph glyph-name="Gcaron" unicode="&#x1e6;" horiz-adv-x="1283" 
d="M644 1213q-140 -1 -238 -109t-97 -327v-182q0 -208 88 -326t245 -118t248 80t91 203v117h-329v168h528v-278q0 -133 -72 -247q-138 -221 -452 -222q-272 0 -412 167t-141 456v183q0 287 151 451t408 164q118 0 216 -37q98 -36 160 -100q128 -130 139 -314h-203
q-16 133 -104 202q-86 69 -226 69zM378 1801h160l117 -172h4l117 172h160l-217 -291h-124z" />
    <glyph glyph-name="gcaron" unicode="&#x1e7;" horiz-adv-x="1177" 
d="M568 902q-120 0 -190 -86t-69 -246v-63q-1 -157 69 -245t192 -87q122 0 190 88t67 244v63q0 152 -69 242q-70 90 -190 90zM580 -235q108 1 177 67q70 66 70 183v163h-7q-32 -72 -114 -120t-186 -47q-188 0 -302 129t-113 362v80q-1 232 113 360t302 128q104 0 186 -47
t119 -119h7v150h196v-1045q0 -233 -196 -341q-113 -62 -290 -62q-176 0 -286 86t-128 226h202q14 -65 78 -109t172 -44zM307 1491h161l117 -180h3l117 180h162l-217 -303h-127z" />
    <glyph glyph-name="Kcaron" unicode="&#x1e8;" horiz-adv-x="1209" 
d="M305 1801h160l117 -172h4l117 172h160l-217 -291h-124zM364 0h-206v1365h206v-644h9l568 644h236l-502 -583l527 -782h-256l-423 641l-159 -175v-466z" />
    <glyph glyph-name="kcaron" unicode="&#x1e9;" horiz-adv-x="1007" 
d="M-33 1873h160l117 -172h4l117 172h160l-217 -291h-124zM350 0h-202v1437h202v-838h9l395 455h243l-406 -457l432 -597h-244l-339 474l-90 -100v-374z" />
    <glyph glyph-name="Oogonek" unicode="&#x1ea;" horiz-adv-x="1326" 
d="M886 -144q0 -100 119 -100q39 0 74 9l-1 -133q-179 -50 -286 33q-66 51 -66 157t102 186l-5 10q-78 -45 -183 -45q-240 0 -388 163t-149 444v192q-1 289 151 455t410 166q258 1 408 -165t151 -456v-192q0 -185 -53 -296t-124 -192l-57 -60t-55 -60q-48 -56 -48 -116z
M311 774v-194q0 -211 97 -320q96 -109 254 -109t256 109t97 320v194q0 212 -98 326q-99 114 -255 114t-254 -114t-97 -326z" />
    <glyph glyph-name="oogonek" unicode="&#x1eb;" horiz-adv-x="1132" 
d="M527 -16q-181 0 -303 142t-121 359v88q1 221 123 360t340 139t340 -138t122 -360v-89q0 -251 -173 -413q-48 -45 -71 -70q-65 -71 -65 -131q0 -116 120 -116q41 0 73 9v-132q-58 -19 -120 -19t-112 19t-86 65q-35 46 -35 112q0 117 106 199l-7 10q-60 -34 -131 -34z
M566 906q-124 0 -192 -91t-68 -246v-81q0 -154 68 -246t192 -92q126 0 192 92t67 246v81q0 155 -67 246t-192 91z" />
    <glyph glyph-name="Oogonekmacron" unicode="&#x1ec;" horiz-adv-x="1324" 
d="M937 1518h-552v116h552v-116zM886 -144q0 -100 119 -100q39 0 74 9l-1 -133q-179 -50 -286 33q-66 51 -66 157t102 186l-5 10q-78 -45 -183 -45q-240 0 -388 163t-149 444v192q-1 289 151 455t410 166q258 1 408 -165t151 -456v-192q0 -185 -53 -296t-124 -192l-57 -60
t-55 -60q-48 -56 -48 -116zM311 774v-194q0 -211 97 -320q96 -109 254 -109t256 109t97 320v194q0 212 -98 326q-99 114 -255 114t-254 -114t-97 -326z" />
    <glyph glyph-name="oogonekmacron" unicode="&#x1ed;" horiz-adv-x="1132" 
d="M845 1237h-558v128h558v-128zM527 -16q-181 0 -303 142t-121 359v88q1 221 123 360t340 139t340 -138t122 -360v-89q0 -251 -173 -413q-48 -45 -71 -70q-65 -71 -65 -131q0 -116 120 -116q41 0 73 9v-132q-58 -19 -120 -19t-112 19t-86 65q-35 46 -35 112q0 117 106 199
l-7 10q-60 -34 -131 -34zM566 906q-124 0 -192 -91t-68 -246v-81q0 -154 68 -246t192 -92q126 0 192 92t67 246v81q0 155 -67 246t-192 91z" />
    <glyph glyph-name="Gacute" unicode="&#x1f4;" horiz-adv-x="1283" 
d="M644 1213q-140 -1 -238 -109t-97 -327v-182q0 -208 88 -326t245 -118t248 80t91 203v117h-329v168h528v-278q0 -133 -72 -247q-138 -221 -452 -222q-272 0 -412 167t-141 456v183q0 287 151 451t408 164q118 0 216 -37q98 -36 160 -100q128 -130 139 -314h-203
q-16 133 -104 202q-86 69 -226 69zM721 1510h-149l191 279h193z" />
    <glyph glyph-name="gacute" unicode="&#x1f5;" horiz-adv-x="1177" 
d="M568 902q-120 0 -190 -86t-69 -246v-63q-1 -157 69 -245t192 -87q122 0 190 88t67 244v63q0 152 -69 242q-70 90 -190 90zM580 -235q108 1 177 67q70 66 70 183v163h-7q-32 -72 -114 -120t-186 -47q-188 0 -302 129t-113 362v80q-1 232 113 360t302 128q104 0 186 -47
t119 -119h7v150h196v-1045q0 -233 -196 -341q-113 -62 -290 -62q-176 0 -286 86t-128 226h202q14 -65 78 -109t172 -44zM649 1188h-149l191 278h193z" />
    <glyph glyph-name="Ngrave" unicode="&#x1f8;" horiz-adv-x="1368" 
d="M352 0h-194v1365h187l664 -1014h6v1014h195v-1365h-187l-665 1016h-6v-1016zM768 1510h-149l-235 279h193z" />
    <glyph glyph-name="ngrave" unicode="&#x1f9;" horiz-adv-x="1163" 
d="M146 0v1054h199v-144h7q34 64 112 112t195 49q167 0 270 -103t103 -291v-677h-201v639q0 125 -66 189t-180 65q-114 0 -176 -73t-62 -186v-634h-201zM672 1188h-149l-235 278h194z" />
    <glyph glyph-name="Aringacute" unicode="&#x1fa;" horiz-adv-x="1219" 
d="M525 1596q0 -36 25 -62t61 -25q37 -1 61 25t24 62t-24 62q-24 25 -61 25t-61 -25q-24 -26 -25 -62zM610 1424q-74 0 -125 50t-51 122q0 73 51 122t125 49t126 -49t51 -122q1 -72 -51 -122t-126 -50zM528 1811l100 133h205l-142 -133h-163zM608 1141h-7l-193 -590h392z
M231 0h-209l476 1365h223l476 -1365h-221l-127 391h-490z" />
    <glyph glyph-name="aringacute" unicode="&#x1fb;" horiz-adv-x="1067" 
d="M435 1374q1 -42 29 -71t70 -29t70 29t29 71q-1 42 -29 72q-28 29 -70 29t-70 -29q-28 -30 -29 -72zM534 1182q-84 0 -140 55q-58 55 -58 137t58 138q58 55 140 55q84 0 141 -55q57 -56 57 -138t-57 -137t-141 -55zM615 1619h-150l136 190h194zM501 142q93 0 161 58
t68 149v119h-243q-99 0 -147 -42t-48 -118t58 -122q58 -44 151 -44zM432 -17q-154 -1 -249 87t-95 232t96 224q96 81 275 82h271v103q0 96 -54 147t-149 51t-149 -44t-61 -119h-190q8 145 109 235t287 90t297 -91t111 -258v-722h-193v130h-7q-88 -147 -299 -147z" />
    <glyph glyph-name="AEacute" unicode="&#x1fc;" horiz-adv-x="1864" 
d="M922 405h-468l-212 -405h-230l719 1365h1021v-177h-626v-408h590v-170h-590v-433h626v-177h-830v405zM922 570v618h-71l-316 -618h387zM1405 1510h-149l191 279h193z" />
    <glyph glyph-name="aeacute" unicode="&#x1fd;" horiz-adv-x="1727" 
d="M494 477q-202 -1 -202 -167q0 -80 58 -124t151 -44t161 58t68 149v128h-236zM938 628h491v3q0 123 -66 201t-179 77q-114 0 -180 -78t-66 -200v-3zM447 -18q-163 0 -261 88t-98 234t96 232t275 87h271v88q0 96 -54 147t-149 51t-149 -44t-61 -119h-190q8 146 109 236
t294 90q107 0 193 -38t135 -104h3q111 142 324 142t328 -136t115 -364v-92h-690v-30q0 -124 64 -212q64 -89 194 -89q96 0 150 42t68 106h201q-16 -115 -115 -215t-303 -100q-262 0 -376 199h-3q-123 -199 -371 -199zM918 1188h-149l191 278h193z" />
    <glyph glyph-name="Oslashacute" unicode="&#x1fe;" horiz-adv-x="1324" 
d="M725 1510h-149l191 279h193zM659 148q162 0 259 110t97 321v195q0 117 -34 204l-578 -718q94 -112 256 -112zM308 579q0 -107 28 -186l576 714q-96 109 -252 109t-254 -114t-98 -328v-195zM672 -28q-248 0 -392 136l-100 -124l-105 86l116 145q-88 148 -88 365v192
q0 289 151 455t394 166t388 -133l95 118l109 -79l-116 -144q97 -154 97 -383v-192q0 -288 -151 -448q-150 -160 -398 -160z" />
    <glyph glyph-name="oslashacute" unicode="&#x1ff;" horiz-adv-x="1132" 
d="M628 1188h-149l191 278h193zM567 -18q-168 0 -279 82l-103 -139l-99 75l113 153q-96 131 -96 332v88q1 221 123 360t341 139q157 0 265 -74l96 129l99 -77l-103 -138q104 -131 104 -338v-89q0 -227 -121 -365t-340 -138zM305 488q0 -98 30 -169l389 534q-62 56 -173 56
t-179 -92t-67 -247v-82zM578 148q114 0 182 92q67 92 67 248v82q0 109 -36 181l-392 -538q65 -65 179 -65z" />
    <glyph glyph-name="Adblgrave" unicode="&#x200;" horiz-adv-x="1219" 
d="M861 1510h-147l-246 266h192zM553 1510h-148l-245 266h191zM608 1141h-7l-193 -590h392zM231 0h-209l476 1365h223l476 -1365h-221l-127 391h-490z" />
    <glyph glyph-name="adblgrave" unicode="&#x201;" horiz-adv-x="1067" 
d="M625 1188l-230 279h168l191 -279h-129zM332 1188l-229 279h169l191 -279h-131zM501 142q93 0 161 58t68 149v119h-243q-99 0 -147 -42t-48 -118t58 -122q58 -44 151 -44zM432 -17q-154 -1 -249 87t-95 232t96 224q96 81 275 82h271v103q0 96 -54 147t-149 51t-149 -44
t-61 -119h-190q8 145 109 235t287 90t297 -91t111 -258v-722h-193v130h-7q-88 -147 -299 -147z" />
    <glyph glyph-name="Ainvertedbreve" unicode="&#x202;" horiz-adv-x="1219" 
d="M610 1665q-80 0 -122 -44t-42 -111h-127q0 106 72 189t219 83q208 0 272 -174q18 -47 18 -98h-126q0 67 -42 111t-122 44zM608 1141h-7l-193 -590h392zM231 0h-209l476 1365h223l476 -1365h-221l-127 391h-490z" />
    <glyph glyph-name="ainvertedbreve" unicode="&#x203;" horiz-adv-x="1067" 
d="M237 1209q0 107 74 195q74 89 224 89q212 0 279 -183q18 -49 18 -101h-131q0 69 -42 117t-124 47q-82 1 -124 -47t-42 -117h-132zM501 142q93 0 161 58t68 149v119h-243q-99 0 -147 -42t-48 -118t58 -122q58 -44 151 -44zM432 -17q-154 -1 -249 87t-95 232t96 224
q96 81 275 82h271v103q0 96 -54 147t-149 51t-149 -44t-61 -119h-190q8 145 109 235t287 90t297 -91t111 -258v-722h-193v130h-7q-88 -147 -299 -147z" />
    <glyph glyph-name="Edblgrave" unicode="&#x204;" horiz-adv-x="1107" 
d="M996 177v-177h-838v1365h838v-177h-633v-408h597v-170h-597v-433h633zM822 1510h-147l-246 266h192zM514 1510h-148l-245 266h191z" />
    <glyph glyph-name="edblgrave" unicode="&#x205;" horiz-adv-x="1093" 
d="M638 1188l-230 279h168l191 -279h-129zM345 1188l-229 279h169l191 -279h-131zM304 628h490v3q0 120 -68 200t-177 80t-177 -80t-68 -200v-3zM541 -18q-194 0 -316 134t-122 363v111q-1 218 119 350t327 132t325 -134t119 -358v-100h-689v-22q0 -141 70 -227t187 -86
q85 0 143 40t81 112h195q-28 -139 -136 -227t-303 -88z" />
    <glyph glyph-name="Einvertedbreve" unicode="&#x206;" horiz-adv-x="1107" 
d="M571 1665q-81 0 -123 -44t-41 -111h-127q0 106 72 189t219 83q209 0 273 -174q18 -47 17 -98h-126q1 67 -41 111t-123 44zM996 177v-177h-838v1365h838v-177h-633v-408h597v-170h-597v-433h633z" />
    <glyph glyph-name="einvertedbreve" unicode="&#x207;" horiz-adv-x="1093" 
d="M250 1209q0 107 74 195q74 89 224 89q212 0 279 -183q18 -49 18 -101h-131q0 69 -42 117t-124 47q-82 1 -124 -47t-42 -117h-132zM304 628h490v3q0 120 -68 200t-177 80t-177 -80t-68 -200v-3zM541 -18q-194 0 -316 134t-122 363v111q-1 218 119 350t327 132t325 -134
t119 -358v-100h-689v-22q0 -141 70 -227t187 -86q85 0 143 40t81 112h195q-28 -139 -136 -227t-303 -88z" />
    <glyph glyph-name="Idblgrave" unicode="&#x208;" horiz-adv-x="521" 
d="M511 1510h-147l-246 266h192zM203 1510h-148l-245 266h191zM364 0h-206v1365h206v-1365z" />
    <glyph glyph-name="idblgrave" unicode="&#x209;" horiz-adv-x="514" 
d="M344 1188l-230 279h168l191 -279h-129zM51 1188l-229 279h169l191 -279h-131zM156 0v1054h202v-1054h-202z" />
    <glyph glyph-name="Iinvertedbreve" unicode="&#x20a;" horiz-adv-x="521" 
d="M260 1665q-80 0 -122 -44t-42 -111h-127q0 106 72 189t219 83q208 0 272 -174q18 -47 18 -98h-126q0 67 -42 111t-122 44zM364 0h-206v1365h206v-1365z" />
    <glyph glyph-name="iinvertedbreve" unicode="&#x20b;" horiz-adv-x="514" 
d="M-44 1209q0 107 74 195q74 89 224 89q212 0 279 -183q18 -49 18 -101h-131q0 69 -42 117t-124 47q-82 1 -124 -47t-42 -117h-132zM156 0v1054h202v-1054h-202z" />
    <glyph glyph-name="Odblgrave" unicode="&#x20c;" horiz-adv-x="1326" 
d="M103 580v192q0 289 152 455t410 166q258 1 408 -165t150 -456v-192q0 -288 -151 -448q-150 -160 -410 -160t-410 160t-149 448zM311 774v-194q0 -211 97 -320t255 -109t255 109t97 320v194q1 212 -97 326t-254 114t-255 -114q-98 -114 -98 -326zM912 1510h-147l-246 266
h192zM604 1510h-148l-245 266h191z" />
    <glyph glyph-name="odblgrave" unicode="&#x20d;" horiz-adv-x="1132" 
d="M657 1188l-230 279h168l191 -279h-129zM364 1188l-229 279h169l191 -279h-131zM566 906q-124 0 -192 -91t-68 -246v-81q0 -154 68 -246t192 -92q126 0 192 92t67 246v81q0 155 -67 246t-192 91zM566 1072q218 0 340 -138t122 -360v-89q0 -227 -121 -365t-341 -138
t-341 138q-122 138 -122 365v88q1 221 123 360t340 139z" />
    <glyph glyph-name="Oinvertedbreve" unicode="&#x20e;" horiz-adv-x="1326" 
d="M103 580v192q0 289 152 455t410 166q258 1 408 -165t150 -456v-192q0 -288 -151 -448q-150 -160 -410 -160t-410 160t-149 448zM311 774v-194q0 -211 97 -320t255 -109t255 109t97 320v194q1 212 -97 326t-254 114t-255 -114q-98 -114 -98 -326zM661 1665q-81 0 -123 -44
t-41 -111h-127q0 106 72 189t219 83q209 0 273 -174q18 -47 17 -98h-126q1 67 -41 111t-123 44z" />
    <glyph glyph-name="oinvertedbreve" unicode="&#x20f;" horiz-adv-x="1132" 
d="M269 1209q0 107 74 195q74 89 224 89q212 0 279 -183q18 -49 18 -101h-131q0 69 -42 117t-124 47q-82 1 -124 -47t-42 -117h-132zM566 906q-124 0 -192 -91t-68 -246v-81q0 -154 68 -246t192 -92q126 0 192 92t67 246v81q0 155 -67 246t-192 91zM566 1072q218 0 340 -138
t122 -360v-89q0 -227 -121 -365t-341 -138t-341 138q-122 138 -122 365v88q1 221 123 360t340 139z" />
    <glyph glyph-name="Rdblgrave" unicode="&#x210;" horiz-adv-x="1228" 
d="M362 701h272q133 0 203 62t70 181q0 120 -72 184t-195 64h-278v-491zM668 1365q228 0 340 -121t112 -294q0 -218 -164 -334q-42 -30 -88 -47l277 -569h-233l-248 532h-302v-532h-204v1365h510zM832 1510h-147l-246 266h192zM524 1510h-148l-245 266h191z" />
    <glyph glyph-name="rdblgrave" unicode="&#x211;" horiz-adv-x="718" 
d="M496 1188l-230 279h168l191 -279h-129zM203 1188l-229 279h169l191 -279h-131zM146 0v1054h202v-134h7q27 58 91 104t164 46q36 0 71 -5v-181q-28 6 -90 6q-241 0 -241 -254v-636h-204z" />
    <glyph glyph-name="Rinvertedbreve" unicode="&#x212;" horiz-adv-x="1228" 
d="M581 1665q-81 0 -123 -44t-41 -111h-127q0 106 72 189t219 83q209 0 273 -174q18 -47 17 -98h-126q1 67 -41 111t-123 44zM362 701h272q133 0 203 62t70 181q0 120 -72 184t-195 64h-278v-491zM668 1365q228 0 340 -121t112 -294q0 -218 -164 -334q-42 -30 -88 -47
l277 -569h-233l-248 532h-302v-532h-204v1365h510z" />
    <glyph glyph-name="rinvertedbreve" unicode="&#x213;" horiz-adv-x="718" 
d="M108 1209q0 107 74 195q74 89 224 89q212 0 279 -183q18 -49 18 -101h-131q0 69 -42 117t-124 47q-82 1 -124 -47t-42 -117h-132zM146 0v1054h202v-134h7q27 58 91 104t164 46q36 0 71 -5v-181q-28 6 -90 6q-241 0 -241 -254v-636h-204z" />
    <glyph glyph-name="Udblgrave" unicode="&#x214;" horiz-adv-x="1341" 
d="M346 1365v-881q0 -153 88 -242t236 -89q148 -1 236 89t89 242v881h204v-909q0 -216 -142 -350q-143 -134 -387 -134t-386 134t-142 350v909h204zM921 1510h-147l-246 266h192zM613 1510h-148l-245 266h191z" />
    <glyph glyph-name="udblgrave" unicode="&#x215;" horiz-adv-x="1158" 
d="M665 1188l-230 279h168l191 -279h-129zM372 1188l-229 279h169l191 -279h-131zM1012 1054v-1054h-199v143h-8q-30 -69 -108 -115t-197 -45q-168 -1 -268 95t-101 274v702h202v-646q0 -133 65 -190t172 -57q108 0 174 66t66 184v643h202z" />
    <glyph glyph-name="Uinvertedbreve" unicode="&#x216;" horiz-adv-x="1341" 
d="M670 1665q-80 0 -122 -44t-42 -111h-127q0 106 72 189t219 83q208 0 272 -174q18 -47 18 -98h-126q0 67 -42 111t-122 44zM346 1365v-881q0 -153 88 -242t236 -89q148 -1 236 89t89 242v881h204v-909q0 -216 -142 -350q-143 -134 -387 -134t-386 134t-142 350v909h204z
" />
    <glyph glyph-name="uinvertedbreve" unicode="&#x217;" horiz-adv-x="1158" 
d="M277 1209q0 107 74 195q74 89 224 89q212 0 279 -183q18 -49 18 -101h-131q0 69 -42 117t-124 47q-82 1 -124 -47t-42 -117h-132zM1012 1054v-1054h-199v143h-8q-30 -69 -108 -115t-197 -45q-168 -1 -268 95t-101 274v702h202v-646q0 -133 65 -190t172 -57q108 0 174 66
t66 184v643h202z" />
    <glyph glyph-name="Scommaaccent" unicode="&#x218;" horiz-adv-x="1172" 
d="M550 -489h-149l85 335h178zM578 146q140 0 219 60t79 152t-52 140t-167 76l-230 58q-137 34 -232 120q-96 86 -96 227q1 143 69 235q135 182 414 182t414 -178q69 -91 71 -216h-199q-8 97 -82 159t-202 62q-128 -1 -202 -57q-76 -56 -76 -155q0 -144 191 -190l228 -58
q209 -51 293 -161q66 -86 66 -215q0 -195 -144 -305t-376 -110q-301 0 -431 182q-69 97 -73 221h203q10 -99 93 -164q82 -65 222 -65z" />
    <glyph glyph-name="scommaaccent" unicode="&#x219;" horiz-adv-x="1005" 
d="M492 -489h-149l85 335h178zM105 756q0 76 33 138q34 64 90 102q113 76 286 76q174 0 275 -88t101 -230h-184q-6 68 -54 116t-145 47q-97 0 -152 -39t-55 -109q0 -105 180 -142q38 -8 60 -11q21 -4 55 -10t82 -20q116 -31 179 -93t63 -177q1 -158 -115 -246t-307 -88
t-301 82t-110 224h197q10 -70 68 -110t159 -40q100 0 156 44t56 104q0 61 -28 84q-49 39 -99 52q-49 14 -91 22q-43 8 -85 17q-41 9 -99 29t-110 54t-78 84q-26 52 -27 128z" />
    <glyph glyph-name="Tcommaaccent" unicode="&#x21a;" horiz-adv-x="1054" 
d="M629 0h-204v1186h-407v179h1018v-179h-407v-1186zM512 -489h-149l85 335h178z" />
    <glyph glyph-name="tcommaaccent" unicode="&#x21b;" horiz-adv-x="713" 
d="M217 1054v260h199v-260h207v-164h-207v-584q0 -88 36 -120t130 -32q20 0 48 2v-157q-40 -7 -116 -7q-168 0 -234 72q-65 72 -65 232v594h-144v164h146zM417 -489h-149l85 335h178z" />
    <glyph glyph-name="Hcaron" unicode="&#x21e;" horiz-adv-x="1377" 
d="M408 1801h160l117 -172h4l117 172h160l-217 -291h-124zM1220 0h-206v615h-650v-615h-206v1365h206v-572h650v572h206v-1365z" />
    <glyph glyph-name="hcaron" unicode="&#x21f;" horiz-adv-x="1167" 
d="M-33 1873h160l117 -172h4l117 172h160l-217 -291h-124zM149 0v1437h202v-527h7q34 64 111 112t194 49q167 0 271 -103t103 -291v-677h-202v639q1 125 -65 189t-180 65q-114 0 -177 -73q-62 -73 -62 -186v-634h-202z" />
    <glyph glyph-name="Adotaccent" unicode="&#x226;" horiz-adv-x="1219" 
d="M494 1642q0 48 34 80q34 34 82 34t82 -34t34 -80q0 -48 -34 -82t-82 -33q-48 -1 -82 33t-34 82zM608 1141h-7l-193 -590h392zM231 0h-209l476 1365h223l476 -1365h-221l-127 391h-490z" />
    <glyph glyph-name="adotaccent" unicode="&#x227;" horiz-adv-x="1067" 
d="M422 1304q0 48 32 81t80 33t81 -33t33 -81t-33 -80t-81 -32t-80 32t-32 80zM501 142q93 0 161 58t68 149v119h-243q-99 0 -147 -42t-48 -118t58 -122q58 -44 151 -44zM432 -17q-154 -1 -249 87t-95 232t96 224q96 81 275 82h271v103q0 96 -54 147t-149 51t-149 -44
t-61 -119h-190q8 145 109 235t287 90t297 -91t111 -258v-722h-193v130h-7q-88 -147 -299 -147z" />
    <glyph glyph-name="Ecedilla" unicode="&#x228;" horiz-adv-x="1107" 
d="M538 -357q116 0 116 73q0 46 -39 56t-104 10h-53v85l50 133h-350v1365h838v-177h-633v-408h597v-170h-597v-433h633v-177h-357l-44 -115q95 0 151 -42t56 -128t-63 -133q-63 -46 -155 -50t-160 14v111q47 -14 114 -14z" />
    <glyph glyph-name="ecedilla" unicode="&#x229;" horiz-adv-x="1093" 
d="M525 -373q115 0 115 73q0 62 -98 64q-16 0 -45 1h-53v86l51 135q-183 20 -287 150t-105 343v111q-1 218 119 350t327 132t325 -134t119 -358v-100h-689v-22q0 -141 70 -227t187 -86q85 0 143 40t81 112h195q-24 -124 -115 -209t-239 -102l-44 -118q95 0 151 -42t56 -128
t-63 -132q-64 -47 -158 -51t-158 15v110q44 -13 115 -13zM304 628h490v3q0 120 -68 200t-177 80t-177 -80t-68 -200v-3z" />
    <glyph glyph-name="Odieresismacron" unicode="&#x22a;" horiz-adv-x="1326" 
d="M937 1791h-552v116h552v-116zM822 1489q-40 -1 -66 27q-27 28 -27 69q1 41 27 69t66 27q40 1 67 -27t27 -69t-27 -69t-67 -27zM502 1489q-40 -1 -66 27t-26 69t26 69t67 27q41 1 67 -27t26 -70t-27 -68q-27 -27 -67 -27zM103 580v192q0 289 152 455t410 166
q258 1 408 -165t150 -456v-192q0 -288 -151 -448q-150 -160 -410 -160t-410 160t-149 448zM311 774v-194q0 -211 97 -320t255 -109t255 109t97 320v194q1 212 -97 326t-254 114t-255 -114q-98 -114 -98 -326z" />
    <glyph glyph-name="odieresismacron" unicode="&#x22b;" horiz-adv-x="1132" 
d="M566 906q-124 0 -192 -91t-68 -246v-81q0 -154 68 -246t192 -92q126 0 192 92t67 246v81q0 155 -67 246t-192 91zM566 1072q218 0 340 -138t122 -360v-89q0 -227 -121 -365t-341 -138t-341 138q-122 138 -122 365v88q1 221 123 360t340 139zM846 1545h-558v128h558v-128z
M746 1198q-42 0 -71 29q-28 29 -28 73t28 72q29 29 71 29t70 -29q28 -28 29 -72q-1 -44 -29 -73t-70 -29zM388 1198q-42 0 -70 29t-29 73q0 44 28 72q29 29 71 29t70 -29q28 -28 29 -72q-1 -44 -29 -73t-70 -29z" />
    <glyph glyph-name="Otildemacron" unicode="&#x22c;" horiz-adv-x="1326" 
d="M103 580v192q0 289 152 455t410 166q258 1 408 -165t150 -456v-192q0 -288 -151 -448q-150 -160 -410 -160t-410 160t-149 448zM311 774v-194q0 -211 97 -320t255 -109t255 109t97 320v194q1 212 -97 326t-254 114t-255 -114q-98 -114 -98 -326zM937 1791h-552v116h552
v-116zM768 1588q54 0 62 96h115q0 -80 -47 -142t-120 -62q-72 0 -120 40q-20 16 -48 44t-58 29q-55 0 -58 -94h-115q0 83 44 143t125 59t134 -57t86 -56z" />
    <glyph glyph-name="otildemacron" unicode="&#x22d;" horiz-adv-x="1132" 
d="M566 906q-124 0 -192 -91t-68 -246v-81q0 -154 68 -246t192 -92q126 0 192 92t67 246v81q0 155 -67 246t-192 91zM566 1072q218 0 340 -138t122 -360v-89q0 -227 -121 -365t-341 -138t-341 138q-122 138 -122 365v88q1 221 123 360t340 139zM846 1545h-558v128h558v-128z
M673 1304q63 0 73 110h128q0 -89 -54 -160t-141 -71q-88 0 -147 64t-98 64q-62 0 -66 -108h-128q0 95 50 161t139 67q45 0 84 -20q39 -19 61 -43q59 -64 99 -64z" />
    <glyph glyph-name="Odotaccent" unicode="&#x22e;" horiz-adv-x="1326" 
d="M103 580v192q0 289 152 455t410 166q258 1 408 -165t150 -456v-192q0 -288 -151 -448q-150 -160 -410 -160t-410 160t-149 448zM311 774v-194q0 -211 97 -320t255 -109t255 109t97 320v194q1 212 -97 326t-254 114t-255 -114q-98 -114 -98 -326zM545 1642q0 48 34 80
q34 34 82 34t82 -34t34 -80q0 -48 -34 -82t-82 -33q-48 -1 -82 33t-34 82z" />
    <glyph glyph-name="odotaccent" unicode="&#x22f;" horiz-adv-x="1132" 
d="M566 906q-124 0 -192 -91t-68 -246v-81q0 -154 68 -246t192 -92q126 0 192 92t67 246v81q0 155 -67 246t-192 91zM566 1072q218 0 340 -138t122 -360v-89q0 -227 -121 -365t-341 -138t-341 138q-122 138 -122 365v88q1 221 123 360t340 139zM454 1304q0 48 32 81t80 33
t81 -33t33 -81t-33 -80t-81 -32t-80 32t-32 80z" />
    <glyph glyph-name="Odotaccentmacron" unicode="&#x230;" horiz-adv-x="1326" 
d="M103 580v192q0 289 152 455t410 166q258 1 408 -165t150 -456v-192q0 -288 -151 -448q-150 -160 -410 -160t-410 160t-149 448zM311 774v-194q0 -211 97 -320t255 -109t255 109t97 320v194q1 212 -97 326t-254 114t-255 -114q-98 -114 -98 -326zM937 1791h-552v116h552
v-116zM550 1578q0 46 32 77q32 32 79 32t79 -32q32 -31 32 -77t-32 -78t-79 -32t-79 32t-32 78z" />
    <glyph glyph-name="odotaccentmacron" unicode="&#x231;" horiz-adv-x="1132" 
d="M846 1545h-558v128h558v-128zM453 1299q1 48 33 81t80 33t80 -33q33 -33 33 -81t-33 -80q-32 -32 -80 -32t-80 32t-33 80zM566 906q-124 0 -192 -91t-68 -246v-81q0 -154 68 -246t192 -92q126 0 192 92t67 246v81q0 155 -67 246t-192 91zM566 1072q218 0 340 -138
t122 -360v-89q0 -227 -121 -365t-341 -138t-341 138q-122 138 -122 365v88q1 221 123 360t340 139z" />
    <glyph glyph-name="Ymacron" unicode="&#x232;" horiz-adv-x="1109" 
d="M830 1518h-552v116h552v-116zM656 0h-204v565l-457 800h232l325 -597h7l326 597h228l-457 -797v-568z" />
    <glyph glyph-name="ymacron" unicode="&#x233;" horiz-adv-x="986" 
d="M777 1237h-558v128h558v-128zM188 -221q142 0 183 160l14 50l-381 1065h224l265 -848h7l267 848h215q-365 -1044 -366 -1048l-27 -73q-68 -186 -159 -250q-92 -65 -218 -65q-64 0 -123 9v157q27 -5 99 -5z" />
    <glyph glyph-name="circumflex" unicode="&#x2c6;" horiz-adv-x="945" 
d="M192 1188l217 303h126l217 -303h-161l-117 180h-4l-117 -180h-161z" />
    <glyph glyph-name="caron" unicode="&#x2c7;" horiz-adv-x="946" 
d="M188 1491h161l117 -180h3l117 180h162l-217 -303h-127z" />
    <glyph glyph-name="breve" unicode="&#x2d8;" horiz-adv-x="946" 
d="M173 1466h130q0 -69 42 -116t123 -47t123 47t42 116h129q0 -106 -73 -193q-73 -88 -221 -88q-149 0 -222 87t-73 194z" />
    <glyph glyph-name="dotaccent" unicode="&#x2d9;" horiz-adv-x="944" 
d="M359 1317q1 48 33 81t80 33t80 -33q33 -33 33 -81t-33 -80q-32 -32 -80 -32t-80 32t-33 80z" />
    <glyph glyph-name="ring" unicode="&#x2da;" horiz-adv-x="945" 
d="M385 1374q1 -42 29 -71t70 -29t70 29t29 71q-1 42 -29 72q-28 29 -70 29t-70 -29q-28 -30 -29 -72zM484 1182q-84 0 -140 55q-58 55 -58 137t58 138q58 55 140 55q84 0 141 -55q57 -56 57 -138t-57 -137t-141 -55z" />
    <glyph glyph-name="ogonek" unicode="&#x2db;" horiz-adv-x="946" 
d="M510 -387q-90 1 -150 49t-60 139q0 46 22 95t46 79q24 31 60 71t47 52h128q-104 -112 -125 -164t-21 -92q1 -40 31 -63q30 -24 76 -24t85 9v-129q-50 -22 -139 -22z" />
    <glyph glyph-name="tilde" unicode="&#x2dc;" horiz-adv-x="946" 
d="M579 1315q63 0 73 110h128q0 -89 -54 -160t-141 -71q-88 0 -147 64t-98 64q-62 0 -66 -108h-128q0 96 50 162t139 66q45 0 84 -20t61 -44q59 -64 99 -63z" />
    <glyph glyph-name="hungarumlaut" unicode="&#x2dd;" horiz-adv-x="946" 
d="M544 1188h-131l193 278h168zM251 1188h-129l192 278h168z" />
    <glyph glyph-name="gravecmb" unicode="&#x300;" 
d="M87 1188h-149l-235 278h194z" />
    <glyph glyph-name="acutecmb" unicode="&#x301;" 
d="M62 1188h-149l191 278h193z" />
    <glyph glyph-name="circumflexcmb" unicode="&#x302;" 
d="M-280 1188l217 303h126l217 -303h-161l-117 180h-4l-117 -180h-161z" />
    <glyph glyph-name="tildecmb" unicode="&#x303;" 
d="M106 1315q63 0 73 110h128q1 -89 -53 -160t-142 -71t-147 64t-98 64q-62 0 -66 -108h-128q0 96 50 162t139 66q45 0 84 -20t61 -44q59 -64 99 -63z" />
    <glyph glyph-name="macroncmb" unicode="&#x304;" 
d="M279 1237h-558v128h558v-128z" />
    <glyph glyph-name="brevecmb" unicode="&#x306;" 
d="M-295 1466h130q0 -69 42 -116t123 -47t123 47t42 116h129q0 -106 -73 -193q-73 -88 -221 -88q-149 0 -222 87t-73 194z" />
    <glyph glyph-name="dotaccentcmb" unicode="&#x307;" 
d="M-113 1304q1 48 33 81t80 33t80 -33q33 -33 33 -81t-33 -80q-32 -32 -80 -32t-80 32t-33 80z" />
    <glyph glyph-name="dieresiscmb" unicode="&#x308;" 
d="M178 1198q-42 0 -70 29t-28 73t28 72q28 29 70 29t72 -29q28 -28 28 -72t-28 -73q-30 -29 -72 -29zM-179 1198q-43 0 -71 29t-28 73t28 72q28 29 70 29t72 -29q28 -28 28 -72t-28 -73t-71 -29z" />
    <glyph glyph-name="hookabovecmb" unicode="&#x309;" 
d="M50 1355q0 37 -30 62t-76 25t-86 -19v105q36 18 119 18t139 -51t57 -133q0 -128 -153 -193l-64 85q94 41 94 101z" />
    <glyph glyph-name="ringcmb" unicode="&#x30a;" 
d="M-99 1374q1 -42 29 -71t70 -29t70 29t29 71q-1 42 -29 72q-28 29 -70 29t-70 -29q-28 -30 -29 -72zM0 1182q-84 0 -140 55q-58 55 -58 137t58 138q58 55 140 55q84 0 141 -55q57 -56 57 -138t-57 -137t-141 -55z" />
    <glyph glyph-name="hungarumlautcmb" unicode="&#x30b;" 
d="M183 1188h-131l193 278h168zM-110 1188h-129l192 278h168z" />
    <glyph glyph-name="caroncmb" unicode="&#x30c;" 
d="M-280 1491h161l117 -180h3l117 180h162l-217 -303h-127z" />
    <glyph glyph-name="dblgravecmb" unicode="&#x30f;" 
d="M90 1188l-230 279h168l191 -279h-129zM-203 1188l-229 279h169l191 -279h-131z" />
    <glyph glyph-name="invertedbrevecmb" unicode="&#x311;" 
d="M-298 1209q0 107 74 195q74 89 224 89q212 0 279 -183q18 -49 18 -101h-131q0 69 -42 117t-124 47q-82 1 -124 -47t-42 -117h-132z" />
    <glyph glyph-name="horncmb" unicode="&#x31b;" 
d="M214 1219v156h172v-166q0 -123 -59 -212t-190 -89q-93 0 -135 30v167q36 -33 98 -33q114 0 114 147z" />
    <glyph glyph-name="dotbelowcmb" unicode="&#x323;" 
d="M-98 -267q0 43 29 73t71 29q42 1 71 -29t29 -74t-29 -72q-29 -29 -71 -29q-42 -1 -71 29t-29 73z" />
    <glyph glyph-name="dieresisbelowcmb" unicode="&#x324;" 
d="M178 -379q-42 0 -70 29q-28 28 -28 72t28 73t70 29t72 -29q28 -29 28 -73t-28 -72q-30 -29 -72 -29zM-179 -379q-43 0 -71 29q-28 28 -28 72t28 73t70 29t72 -29q28 -29 28 -73t-28 -72q-28 -29 -71 -29z" />
    <glyph glyph-name="ringbelowcmb" unicode="&#x325;" 
d="M-99 -312q1 -42 29 -71t70 -29t70 29t29 71q-1 42 -29 72q-28 29 -70 29t-70 -29q-28 -30 -29 -72zM0 -504q-84 0 -140 55q-58 55 -58 137t58 138q58 55 140 55q84 0 141 -55q57 -56 57 -138t-57 -137t-141 -55z" />
    <glyph glyph-name="commabelowcmb" unicode="&#x326;" 
d="M-14 -489h-149l85 335h178z" />
    <glyph glyph-name="cedillacmb" unicode="&#x327;" 
d="M-37 -373q116 0 116 73q-1 62 -99 64q-16 0 -44 1h-53v86l59 157h131l-53 -140q96 0 152 -42t55 -128q0 -86 -63 -132q-63 -47 -157 -51t-158 15v110q44 -13 114 -13z" />
    <glyph glyph-name="ogonekcmb" unicode="&#x328;" 
d="M16 -387q-90 1 -150 49t-61 139q0 46 22 95t46 79q25 31 61 71t46 52h128q-104 -112 -125 -164t-21 -92t30 -63q30 -24 77 -24q46 0 85 9v-129q-48 -22 -138 -22z" />
    <glyph glyph-name="circumflexbelowcmb" unicode="&#x32d;" 
d="M-277 -400l212 287h130l212 -287h-159l-116 178h-4l-116 -178h-159z" />
    <glyph glyph-name="brevebelowcmb" unicode="&#x32e;" 
d="M-313 -137h139q0 -68 45 -116t129 -48t129 48t45 116h131q0 -108 -73 -196t-232 -88q-224 0 -294 181q-19 49 -19 103z" />
    <glyph glyph-name="tildebelowcmb" unicode="&#x330;" 
d="M-302 -355q0 89 46 153t132 64q42 0 80 -19t59 -42q56 -61 89 -61q63 0 71 104h123q0 -85 -50 -152t-135 -67t-140 61q-56 61 -92 61q-57 0 -60 -102h-123z" />
    <glyph glyph-name="macronbelowcmb" unicode="&#x331;" 
d="M279 -340h-558v128h558v-128z" />
    <glyph glyph-name="Delta" unicode="&#x394;" horiz-adv-x="1219" 
d="M600 1141l-313 -958h633l-311 958h-9zM22 0l476 1365h223l476 -1365h-1175z" />
    <glyph glyph-name="Omega" unicode="&#x3a9;" horiz-adv-x="1331" 
d="M764 0v204q108 34 180 158t73 293v157q1 206 -95 304t-257 98t-256 -98t-95 -304v-157q0 -165 68 -288t172 -159v-207h-468v175h236v19q-94 43 -154 171t-61 291v157q1 285 149 432t410 147t410 -147t148 -432v-157q0 -162 -64 -290t-161 -172v-22h247v-173h-482z" />
    <glyph glyph-name="mu" unicode="&#x3bc;" horiz-adv-x="1183" 
d="M138 -336v1390h202v-676q0 -170 136 -212q38 -12 84 -12q108 0 183 70t75 171v659h202v-811q0 -96 93 -96q36 0 55 5v-153q-52 -13 -132 -13t-138 44t-63 123l-2 24h-11q-24 -77 -102 -135t-201 -58q-61 0 -117 19t-81 52h-10l16 -391h-189z" />
    <glyph glyph-name="pi" unicode="&#x3c0;" horiz-adv-x="1293" 
d="M1045 -12q-87 0 -148 55t-61 147v701h-362v-891h-202v891h-225v163h1200v-163h-210v-648q0 -43 23 -67t62 -25q39 0 63 6v-157q-53 -12 -140 -12z" />
    <glyph glyph-name="Aringbelow" unicode="&#x1e00;" horiz-adv-x="1219" 
d="M511 -312q1 -42 29 -71t70 -29t70 29t29 71q-1 42 -29 72q-28 29 -70 29t-70 -29q-28 -30 -29 -72zM610 -504q-84 0 -140 55q-58 55 -58 137t58 138q58 55 140 55q84 0 141 -55q57 -56 57 -138t-57 -137t-141 -55zM608 1141h-7l-193 -590h392zM231 0h-209l476 1365h223
l476 -1365h-221l-127 391h-490z" />
    <glyph glyph-name="aringbelow" unicode="&#x1e01;" horiz-adv-x="1067" 
d="M436 -312q0 -42 28 -71t71 -29t71 29t28 71t-28 72q-28 29 -71 29t-71 -29q-28 -30 -28 -72zM536 -504q-84 0 -142 55t-57 137q-1 82 57 138q58 55 142 55t140 -55q57 -56 57 -138t-57 -137q-56 -55 -140 -55zM501 142q93 0 161 58t68 149v119h-243q-99 0 -147 -42
t-48 -118t58 -122q58 -44 151 -44zM432 -17q-154 -1 -249 87t-95 232t96 224q96 81 275 82h271v103q0 96 -54 147t-149 51t-149 -44t-61 -119h-190q8 145 109 235t287 90t297 -91t111 -258v-722h-193v130h-7q-88 -147 -299 -147z" />
    <glyph glyph-name="Bdotaccent" unicode="&#x1e02;" horiz-adv-x="1234" 
d="M363 621v-452h225q264 0 328 110q26 44 25 109q0 114 -73 174t-200 59h-305zM562 784q308 0 308 206q0 106 -60 156t-161 50h-286v-412h199zM158 0v1365h531q175 1 281 -89t106 -247q0 -120 -60 -196t-164 -105v-9q139 -17 219 -106t80 -230q1 -183 -131 -283t-345 -100
h-517zM464 1642q0 48 34 80q34 34 82 34t82 -34t34 -80q0 -48 -34 -82t-82 -33q-48 -1 -82 33t-34 82z" />
    <glyph glyph-name="bdotaccent" unicode="&#x1e03;" horiz-adv-x="1182" 
d="M614 154q122 0 190 88t69 245v80q-1 157 -69 245t-189 88t-193 -86t-73 -247v-78q0 -163 72 -249q71 -86 193 -86zM664 -16q-216 0 -312 176h-7v-160h-196v1437h202v-530h7q40 71 124 117t183 46q187 0 300 -129t113 -363v-100q0 -230 -112 -362t-302 -132zM138 1714
q0 48 34 80q34 34 82 34t82 -34t34 -80q0 -48 -34 -82t-82 -33q-48 -1 -82 33t-34 82z" />
    <glyph glyph-name="Bdotbelow" unicode="&#x1e04;" horiz-adv-x="1234" 
d="M363 621v-452h225q264 0 328 110q26 44 25 109q0 114 -73 174t-200 59h-305zM562 784q308 0 308 206q0 106 -60 156t-161 50h-286v-412h199zM158 0v1365h531q175 1 281 -89t106 -247q0 -120 -60 -196t-164 -105v-9q139 -17 219 -106t80 -230q1 -183 -131 -283t-345 -100
h-517zM482 -267q0 43 29 73t71 29q42 1 71 -29t29 -74t-29 -72q-29 -29 -71 -29q-42 -1 -71 29t-29 73z" />
    <glyph glyph-name="bdotbelow" unicode="&#x1e05;" horiz-adv-x="1182" 
d="M614 154q122 0 190 88t69 245v80q-1 157 -69 245t-189 88t-193 -86t-73 -247v-78q0 -163 72 -249q71 -86 193 -86zM664 -16q-216 0 -312 176h-7v-160h-196v1437h202v-530h7q40 71 124 117t183 46q187 0 300 -129t113 -363v-100q0 -230 -112 -362t-302 -132zM492 -267
q0 43 29 73t71 29q42 1 71 -29t29 -74t-29 -72q-29 -29 -71 -29q-42 -1 -71 29t-29 73z" />
    <glyph glyph-name="Blinebelow" unicode="&#x1e06;" horiz-adv-x="1234" 
d="M859 -340h-558v128h558v-128zM363 621v-452h225q264 0 328 110q26 44 25 109q0 114 -73 174t-200 59h-305zM562 784q308 0 308 206q0 106 -60 156t-161 50h-286v-412h199zM158 0v1365h531q175 1 281 -89t106 -247q0 -120 -60 -196t-164 -105v-9q139 -17 219 -106t80 -230
q1 -183 -131 -283t-345 -100h-517z" />
    <glyph glyph-name="blinebelow" unicode="&#x1e07;" horiz-adv-x="1182" 
d="M614 154q122 0 190 88t69 245v80q-1 157 -69 245t-189 88t-193 -86t-73 -247v-78q0 -163 72 -249q71 -86 193 -86zM664 -16q-216 0 -312 176h-7v-160h-196v1437h202v-530h7q40 71 124 117t183 46q187 0 300 -129t113 -363v-100q0 -230 -112 -362t-302 -132zM869 -340
h-558v128h558v-128z" />
    <glyph glyph-name="Ccedillaacute" unicode="&#x1e08;" horiz-adv-x="1258" 
d="M606 -373q116 0 116 73q0 62 -98 64q-16 0 -45 1h-53v86l47 125q-222 24 -346 182t-124 434v174q1 300 147 464t400 163q121 0 221 -40q101 -40 163 -106q130 -138 130 -321v-10h-201q0 115 -81 206t-235 91q-153 0 -245 -114t-92 -335v-171q0 -221 92 -331t245 -110
q154 0 235 80t81 197h201v-11q0 -156 -112 -286q-56 -64 -146 -106t-203 -51l-40 -107q95 0 151 -42t56 -128t-63 -132q-63 -47 -157 -51t-159 15v110q44 -13 115 -13zM710 1510h-149l191 279h193z" />
    <glyph glyph-name="ccedillaacute" unicode="&#x1e09;" horiz-adv-x="1052" 
d="M574 -115q199 0 199 -169q0 -86 -63 -133q-62 -47 -158 -51t-158 15v111q47 -14 115 -14q115 0 115 73q0 63 -90 65q-16 0 -44 1h-53v85l51 118q-181 20 -283 156t-102 341v98q1 219 121 355t314 136t306 -100t120 -239h-194q-16 70 -72 119t-135 49q-121 -1 -189 -87
t-68 -238v-94q0 -150 70 -239t174 -89t158 43t69 110h193q-21 -136 -111 -221t-240 -100zM617 1188h-149l191 278h193z" />
    <glyph glyph-name="Ddotaccent" unicode="&#x1e0a;" horiz-adv-x="1303" 
d="M364 1188v-1011h233q207 0 308 125t101 379q0 373 -218 471q-80 36 -191 36h-233zM158 1365h457q375 0 517 -269q86 -163 87 -412q0 -530 -370 -650q-103 -34 -234 -34h-457v1365zM482 1642q0 48 34 80q34 34 82 34t82 -34t34 -80q0 -48 -34 -82t-82 -33q-48 -1 -82 33
t-34 82z" />
    <glyph glyph-name="ddotaccent" unicode="&#x1e0b;" horiz-adv-x="1179" 
d="M567 901q-119 1 -189 -85t-69 -248v-81q0 -161 70 -247t190 -85q121 1 191 87t70 244v82q0 153 -72 243t-191 90zM519 1071q103 1 183 -45t119 -120h7v531h202v-1437h-196v160h-6q-44 -82 -124 -128t-185 -47q-199 0 -307 134t-108 362v94q0 223 111 359t304 137z
M811 1714q0 48 34 80q34 34 82 34t82 -34t34 -80q0 -48 -34 -82t-82 -33q-48 -1 -82 33t-34 82z" />
    <glyph glyph-name="Ddotbelow" unicode="&#x1e0c;" horiz-adv-x="1303" 
d="M364 1188v-1011h233q207 0 308 125t101 379q0 373 -218 471q-80 36 -191 36h-233zM158 1365h457q375 0 517 -269q86 -163 87 -412q0 -530 -370 -650q-103 -34 -234 -34h-457v1365zM500 -267q0 43 29 73t71 29q42 1 71 -29t29 -74t-29 -72q-29 -29 -71 -29q-42 -1 -71 29
t-29 73z" />
    <glyph glyph-name="ddotbelow" unicode="&#x1e0d;" horiz-adv-x="1179" 
d="M567 901q-119 1 -189 -85t-69 -248v-81q0 -161 70 -247t190 -85q121 1 191 87t70 244v82q0 153 -72 243t-191 90zM519 1071q103 1 183 -45t119 -120h7v531h202v-1437h-196v160h-6q-44 -82 -124 -128t-185 -47q-199 0 -307 134t-108 362v94q0 223 111 359t304 137z
M492 -267q0 43 29 73t71 29q42 1 71 -29t29 -74t-29 -72q-29 -29 -71 -29q-42 -1 -71 29t-29 73z" />
    <glyph glyph-name="Dlinebelow" unicode="&#x1e0e;" horiz-adv-x="1303" 
d="M364 1188v-1011h233q207 0 308 125t101 379q0 373 -218 471q-80 36 -191 36h-233zM158 1365h457q375 0 517 -269q86 -163 87 -412q0 -530 -370 -650q-103 -34 -234 -34h-457v1365zM877 -340h-558v128h558v-128z" />
    <glyph glyph-name="dlinebelow" unicode="&#x1e0f;" horiz-adv-x="1179" 
d="M567 901q-119 1 -189 -85t-69 -248v-81q0 -161 70 -247t190 -85q121 1 191 87t70 244v82q0 153 -72 243t-191 90zM519 1071q103 1 183 -45t119 -120h7v531h202v-1437h-196v160h-6q-44 -82 -124 -128t-185 -47q-199 0 -307 134t-108 362v94q0 223 111 359t304 137z
M869 -340h-558v128h558v-128z" />
    <glyph glyph-name="Dcommaaccent" unicode="&#x1e10;" horiz-adv-x="1303" 
d="M364 1188v-1011h233q207 0 308 125t101 379q0 373 -218 471q-80 36 -191 36h-233zM158 1365h457q375 0 517 -269q86 -163 87 -412q0 -530 -370 -650q-103 -34 -234 -34h-457v1365zM584 -489h-149l85 335h178z" />
    <glyph glyph-name="dcommaaccent" unicode="&#x1e11;" horiz-adv-x="1179" 
d="M567 901q-119 1 -189 -85t-69 -248v-81q0 -161 70 -247t190 -85q121 1 191 87t70 244v82q0 153 -72 243t-191 90zM519 1071q103 1 183 -45t119 -120h7v531h202v-1437h-196v160h-6q-44 -82 -124 -128t-185 -47q-199 0 -307 134t-108 362v94q0 223 111 359t304 137z
M576 -489h-149l85 335h178z" />
    <glyph glyph-name="Dcircumflexbelow" unicode="&#x1e12;" horiz-adv-x="1303" 
d="M321 -400l212 287h130l212 -287h-159l-116 178h-4l-116 -178h-159zM364 1188v-1011h233q207 0 308 125t101 379q0 373 -218 471q-80 36 -191 36h-233zM158 1365h457q375 0 517 -269q86 -163 87 -412q0 -530 -370 -650q-103 -34 -234 -34h-457v1365z" />
    <glyph glyph-name="dcircumflexbelow" unicode="&#x1e13;" horiz-adv-x="1179" 
d="M313 -400l212 287h130l212 -287h-159l-116 178h-4l-116 -178h-159zM567 901q-119 1 -189 -85t-69 -248v-81q0 -161 70 -247t190 -85q121 1 191 87t70 244v82q0 153 -72 243t-191 90zM519 1071q103 1 183 -45t119 -120h7v531h202v-1437h-196v160h-6q-44 -82 -124 -128
t-185 -47q-199 0 -307 134t-108 362v94q0 223 111 359t304 137z" />
    <glyph glyph-name="Emacrongrave" unicode="&#x1e14;" horiz-adv-x="1107" 
d="M996 177v-177h-838v1365h838v-177h-633v-408h597v-170h-597v-433h633zM847 1518h-552v116h552v-116zM665 1738h-166l-275 195h208z" />
    <glyph glyph-name="emacrongrave" unicode="&#x1e15;" horiz-adv-x="1093" 
d="M827 1237h-558v128h558v-128zM635 1503h-149l-235 278h194zM304 628h490v3q0 120 -68 200t-177 80t-177 -80t-68 -200v-3zM541 -18q-194 0 -316 134t-122 363v111q-1 218 119 350t327 132t325 -134t119 -358v-100h-689v-22q0 -141 70 -227t187 -86q85 0 143 40t81 112
h195q-28 -139 -136 -227t-303 -88z" />
    <glyph glyph-name="Emacronacute" unicode="&#x1e16;" horiz-adv-x="1107" 
d="M996 177v-177h-838v1365h838v-177h-633v-408h597v-170h-597v-433h633zM847 1518h-552v116h552v-116zM477 1738l233 195h208l-275 -195h-166z" />
    <glyph glyph-name="emacronacute" unicode="&#x1e17;" horiz-adv-x="1093" 
d="M827 1237h-558v128h558v-128zM613 1505h-149l191 278h193zM304 628h490v3q0 120 -68 200t-177 80t-177 -80t-68 -200v-3zM541 -18q-194 0 -316 134t-122 363v111q-1 218 119 350t327 132t325 -134t119 -358v-100h-689v-22q0 -141 70 -227t187 -86q85 0 143 40t81 112h195
q-28 -139 -136 -227t-303 -88z" />
    <glyph glyph-name="Ecircumflexbelow" unicode="&#x1e18;" horiz-adv-x="1107" 
d="M294 -400l212 287h130l212 -287h-159l-116 178h-4l-116 -178h-159zM996 177v-177h-838v1365h838v-177h-633v-408h597v-170h-597v-433h633z" />
    <glyph glyph-name="ecircumflexbelow" unicode="&#x1e19;" horiz-adv-x="1093" 
d="M277 -400l212 287h130l212 -287h-159l-116 178h-4l-116 -178h-159zM304 628h490v3q0 120 -68 200t-177 80t-177 -80t-68 -200v-3zM541 -18q-194 0 -316 134t-122 363v111q-1 218 119 350t327 132t325 -134t119 -358v-100h-689v-22q0 -141 70 -227t187 -86q85 0 143 40
t81 112h195q-28 -139 -136 -227t-303 -88z" />
    <glyph glyph-name="Etildebelow" unicode="&#x1e1a;" horiz-adv-x="1107" 
d="M996 177v-177h-838v1365h838v-177h-633v-408h597v-170h-597v-433h633zM269 -355q1 89 47 153t131 64q43 0 81 -19t58 -42q56 -61 89 -61q63 0 71 104h123q0 -85 -50 -152t-135 -67t-140 61q-56 61 -92 61q-57 0 -60 -102h-123z" />
    <glyph glyph-name="etildebelow" unicode="&#x1e1b;" horiz-adv-x="1093" 
d="M304 628h490v3q0 120 -68 200t-177 80t-177 -80t-68 -200v-3zM541 -18q-194 0 -316 134t-122 363v111q-1 218 119 350t327 132t325 -134t119 -358v-100h-689v-22q0 -141 70 -227t187 -86q85 0 143 40t81 112h195q-28 -139 -136 -227t-303 -88zM252 -355q0 89 46 153
t132 64q42 0 80 -19t59 -42q56 -61 89 -61q63 0 71 104h123q0 -85 -50 -152t-135 -67t-140 61q-56 61 -92 61q-57 0 -60 -102h-123z" />
    <glyph glyph-name="Ecedillabreve" unicode="&#x1e1c;" horiz-adv-x="1107" 
d="M280 1762h127q-1 -67 41 -111t123 -44t123 44t41 111h126q0 -103 -71 -187t-218 -84t-220 83q-72 83 -72 188zM538 -357q116 0 116 73q0 46 -39 56t-104 10h-53v85l50 133h-350v1365h838v-177h-633v-408h597v-170h-597v-433h633v-177h-357l-44 -115q95 0 151 -42t56 -128
t-63 -133q-63 -46 -155 -50t-160 14v111q47 -14 114 -14z" />
    <glyph glyph-name="ecedillabreve" unicode="&#x1e1d;" horiz-adv-x="1093" 
d="M525 -373q115 0 115 73q0 62 -98 64q-16 0 -45 1h-53v86l51 135q-183 20 -287 150t-105 343v111q-1 218 119 350t327 132t325 -134t119 -358v-100h-689v-22q0 -141 70 -227t187 -86q85 0 143 40t81 112h195q-24 -124 -115 -209t-239 -102l-44 -118q95 0 151 -42t56 -128
t-63 -132q-64 -47 -158 -51t-158 15v110q44 -13 115 -13zM304 628h490v3q0 120 -68 200t-177 80t-177 -80t-68 -200v-3zM242 1466h130q0 -69 42 -116t123 -47t123 47t42 116h129q0 -106 -73 -193q-73 -88 -221 -88q-149 0 -222 87t-73 194z" />
    <glyph glyph-name="Fdotaccent" unicode="&#x1e1e;" horiz-adv-x="1042" 
d="M364 0h-206v1365h827v-178h-621v-437h569v-176h-569v-574zM451 1642q0 48 34 80q34 34 82 34t82 -34t34 -80q0 -48 -34 -82t-82 -33q-48 -1 -82 33t-34 82z" />
    <glyph glyph-name="fdotaccent" unicode="&#x1e1f;" horiz-adv-x="700" 
d="M217 0v890h-145v164h145v105q0 154 80 225t250 71q53 0 89 -6v-156q-30 4 -57 4q-87 0 -125 -34t-38 -120v-89h206v-164h-204v-890h-201zM271 1728q0 48 34 80q34 34 82 34t82 -34t34 -80q0 -48 -34 -82t-82 -33q-48 -1 -82 33t-34 82z" />
    <glyph glyph-name="Gmacron" unicode="&#x1e20;" horiz-adv-x="1283" 
d="M933 1518h-552v116h552v-116zM644 1213q-140 -1 -238 -109t-97 -327v-182q0 -208 88 -326t245 -118t248 80t91 203v117h-329v168h528v-278q0 -133 -72 -247q-138 -221 -452 -222q-272 0 -412 167t-141 456v183q0 287 151 451t408 164q118 0 216 -37q98 -36 160 -100
q128 -130 139 -314h-203q-16 133 -104 202q-86 69 -226 69z" />
    <glyph glyph-name="gmacron" unicode="&#x1e21;" horiz-adv-x="1177" 
d="M568 902q-120 0 -190 -86t-69 -246v-63q-1 -157 69 -245t192 -87q122 0 190 88t67 244v63q0 152 -69 242q-70 90 -190 90zM580 -235q108 1 177 67q70 66 70 183v163h-7q-32 -72 -114 -120t-186 -47q-188 0 -302 129t-113 362v80q-1 232 113 360t302 128q104 0 186 -47
t119 -119h7v150h196v-1045q0 -233 -196 -341q-113 -62 -290 -62q-176 0 -286 86t-128 226h202q14 -65 78 -109t172 -44zM866 1237h-558v128h558v-128z" />
    <glyph glyph-name="Hdotaccent" unicode="&#x1e22;" horiz-adv-x="1377" 
d="M572 1642q0 48 34 80q34 34 82 34t82 -34t34 -80q0 -48 -34 -82t-82 -33q-48 -1 -82 33t-34 82zM1220 0h-206v615h-650v-615h-206v1365h206v-572h650v572h206v-1365z" />
    <glyph glyph-name="hdotaccent" unicode="&#x1e23;" horiz-adv-x="1167" 
d="M130 1714q0 48 34 80q34 34 82 34t82 -34t34 -80q0 -48 -34 -82t-82 -33q-48 -1 -82 33t-34 82zM149 0v1437h202v-527h7q34 64 111 112t194 49q167 0 271 -103t103 -291v-677h-202v639q1 125 -65 189t-180 65q-114 0 -177 -73q-62 -73 -62 -186v-634h-202z" />
    <glyph glyph-name="Hdotbelow" unicode="&#x1e24;" horiz-adv-x="1377" 
d="M588 -267q0 43 29 73t71 29q42 1 71 -29t29 -74t-29 -72q-29 -29 -71 -29q-42 -1 -71 29t-29 73zM1220 0h-206v615h-650v-615h-206v1365h206v-572h650v572h206v-1365z" />
    <glyph glyph-name="hdotbelow" unicode="&#x1e25;" horiz-adv-x="1167" 
d="M484 -267q0 43 29 73t71 29q42 1 71 -29t29 -74t-29 -72q-29 -29 -71 -29q-42 -1 -71 29t-29 73zM149 0v1437h202v-527h7q34 64 111 112t194 49q167 0 271 -103t103 -291v-677h-202v639q1 125 -65 189t-180 65q-114 0 -177 -73q-62 -73 -62 -186v-634h-202z" />
    <glyph glyph-name="Hdieresis" unicode="&#x1e26;" horiz-adv-x="1377" 
d="M848 1489q-40 -1 -66 27q-27 28 -27 69q1 41 27 69t66 27q40 1 67 -27t27 -69t-27 -69t-67 -27zM528 1489q-40 -1 -66 27t-26 69t26 69t67 27q41 1 67 -27t26 -70t-27 -68q-27 -27 -67 -27zM1220 0h-206v615h-650v-615h-206v1365h206v-572h650v572h206v-1365z" />
    <glyph glyph-name="hdieresis" unicode="&#x1e27;" horiz-adv-x="1167" 
d="M407 1561q-39 -1 -66 27t-27 69t26 69t67 27q40 1 67 -27t27 -69q1 -41 -27 -69t-67 -27zM88 1561q-40 -1 -66 27t-27 69q1 41 27 69t66 27q40 1 66 -27t27 -70q0 -42 -27 -68q-26 -27 -66 -27zM149 0v1437h202v-527h7q34 64 111 112t194 49q167 0 271 -103t103 -291
v-677h-202v639q1 125 -65 189t-180 65q-114 0 -177 -73q-62 -73 -62 -186v-634h-202z" />
    <glyph glyph-name="Hcedilla" unicode="&#x1e28;" horiz-adv-x="1377" 
d="M265 -357q115 0 115 73q0 46 -39 56t-104 10h-53v85l50 133h-76v1365h206v-572h650v572h206v-1365h-206v615h-650v-615l-42 -115q95 0 151 -42t56 -128t-63 -133q-64 -46 -156 -50t-160 14v111q47 -14 115 -14z" />
    <glyph glyph-name="hcedilla" unicode="&#x1e29;" horiz-adv-x="1167" 
d="M245 -373q115 0 115 73q0 62 -98 64q-16 0 -45 1h-53v86l56 149h-71v1437h202v-527h7q34 64 111 112t194 49q167 0 271 -103t103 -291v-677h-202v639q1 125 -65 189t-180 65q-114 0 -177 -73q-62 -73 -62 -186v-634l-49 -132q95 0 151 -42t56 -128t-63 -132
q-64 -47 -158 -51t-158 15v110q44 -13 115 -13z" />
    <glyph glyph-name="Hbrevebelow" unicode="&#x1e2a;" horiz-adv-x="1377" 
d="M1220 0h-206v615h-650v-615h-206v1365h206v-572h650v572h206v-1365zM375 -137h139q0 -68 45 -116t129 -48t129 48t45 116h131q0 -108 -73 -196t-232 -88q-224 0 -294 181q-19 49 -19 103z" />
    <glyph glyph-name="hbrevebelow" unicode="&#x1e2b;" horiz-adv-x="1167" 
d="M149 0v1437h202v-527h7q34 64 111 112t194 49q167 0 271 -103t103 -291v-677h-202v639q1 125 -65 189t-180 65q-114 0 -177 -73q-62 -73 -62 -186v-634h-202zM269 -137h139q0 -68 45 -116t129 -48t129 48t45 116h131q0 -108 -73 -196t-232 -88q-224 0 -294 181
q-19 49 -19 103z" />
    <glyph glyph-name="Itildebelow" unicode="&#x1e2c;" horiz-adv-x="521" 
d="M-42 -355q0 89 46 153t132 64q42 0 80 -19t59 -42q56 -61 89 -61q63 0 71 104h123q0 -85 -50 -152t-135 -67t-140 61q-56 61 -92 61q-57 0 -60 -102h-123zM364 0h-206v1365h206v-1365z" />
    <glyph glyph-name="itildebelow" unicode="&#x1e2d;" horiz-adv-x="514" 
d="M138 -253q-57 0 -60 -102h-123q1 89 47 153t131 64q43 0 81 -19t58 -42q56 -61 89 -61q63 0 71 104h123q0 -85 -50 -152t-135 -67t-140 61q-56 61 -92 61zM134 1311q0 51 36 85t87 34t87 -34t36 -85t-36 -85t-87 -34t-87 34t-36 85zM156 0v1054h202v-1054h-202z" />
    <glyph glyph-name="Idieresisacute" unicode="&#x1e2e;" horiz-adv-x="521" 
d="M421 1489q-39 -1 -66 27t-27 69t26 69t67 27q40 1 67 -27t27 -69q1 -41 -27 -69t-67 -27zM102 1489q-40 -1 -66 27t-27 69q1 41 27 69t66 27q40 1 66 -27t27 -70q0 -42 -27 -68q-26 -27 -66 -27zM166 1738l233 195h208l-275 -195h-166zM364 0h-206v1365h206v-1365z" />
    <glyph glyph-name="idieresisacute" unicode="&#x1e2f;" horiz-adv-x="514" 
d="M156 0v1054h202v-1054h-202zM432 1198q-42 0 -70 29t-28 73t28 72q28 29 70 29t72 -29q28 -28 28 -72t-28 -73q-30 -29 -72 -29zM75 1198q-43 0 -71 29t-28 73t28 72q28 29 70 29t72 -29q28 -28 28 -72t-28 -73t-71 -29zM319 1505h-149l191 278h193z" />
    <glyph glyph-name="Kacute" unicode="&#x1e30;" horiz-adv-x="1209" 
d="M364 0h-206v1365h206v-644h9l568 644h236l-502 -583l527 -782h-256l-423 641l-159 -175v-466zM648 1510h-149l191 279h193z" />
    <glyph glyph-name="kacute" unicode="&#x1e31;" horiz-adv-x="1007" 
d="M350 0h-202v1437h202v-838h9l395 455h243l-406 -457l432 -597h-244l-339 474l-90 -100v-374zM310 1582h-149l191 279h193z" />
    <glyph glyph-name="Kdotbelow" unicode="&#x1e32;" horiz-adv-x="1209" 
d="M364 0h-206v1365h206v-644h9l568 644h236l-502 -583l527 -782h-256l-423 641l-159 -175v-466zM506 -267q0 43 29 73t71 29q42 1 71 -29t29 -74t-29 -72q-29 -29 -71 -29q-42 -1 -71 29t-29 73z" />
    <glyph glyph-name="kdotbelow" unicode="&#x1e33;" horiz-adv-x="1007" 
d="M350 0h-202v1437h202v-838h9l395 455h243l-406 -457l432 -597h-244l-339 474l-90 -100v-374zM444 -267q0 43 29 73t71 29q42 1 71 -29t29 -74t-29 -72q-29 -29 -71 -29q-42 -1 -71 29t-29 73z" />
    <glyph glyph-name="Klinebelow" unicode="&#x1e34;" horiz-adv-x="1209" 
d="M883 -340h-558v128h558v-128zM364 0h-206v1365h206v-644h9l568 644h236l-502 -583l527 -782h-256l-423 641l-159 -175v-466z" />
    <glyph glyph-name="klinebelow" unicode="&#x1e35;" horiz-adv-x="1007" 
d="M821 -340h-558v128h558v-128zM350 0h-202v1437h202v-838h9l395 455h243l-406 -457l432 -597h-244l-339 474l-90 -100v-374z" />
    <glyph glyph-name="Ldotbelow" unicode="&#x1e36;" horiz-adv-x="999" 
d="M976 181v-181h-818v1365h206v-1184h612zM409 -267q0 43 29 73t71 29q42 1 71 -29t29 -74t-29 -72q-28 -29 -70 -29q-42 -1 -72 29t-29 73z" />
    <glyph glyph-name="ldotbelow" unicode="&#x1e37;" horiz-adv-x="507" 
d="M153 0v1437h201v-1437h-201zM155 -267q0 43 29 73t71 29q42 1 71 -29t29 -74t-29 -72q-28 -29 -70 -29q-42 -1 -72 29t-29 73z" />
    <glyph glyph-name="Ldotbelowmacron" unicode="&#x1e38;" horiz-adv-x="999" 
d="M535 1518h-552v116h552v-116zM976 181v-181h-818v1365h206v-1184h612zM409 -267q0 43 29 73t71 29q42 1 71 -29t29 -74t-29 -72q-28 -29 -70 -29q-42 -1 -72 29t-29 73z" />
    <glyph glyph-name="ldotbelowmacron" unicode="&#x1e39;" horiz-adv-x="507" 
d="M529 1590h-552v116h552v-116zM153 0v1437h201v-1437h-201zM155 -267q0 43 29 73t71 29q42 1 71 -29t29 -74t-29 -72q-28 -29 -70 -29q-42 -1 -72 29t-29 73z" />
    <glyph glyph-name="Llinebelow" unicode="&#x1e3a;" horiz-adv-x="999" 
d="M976 181v-181h-818v1365h206v-1184h612zM786 -340h-558v128h558v-128z" />
    <glyph glyph-name="llinebelow" unicode="&#x1e3b;" horiz-adv-x="507" 
d="M153 0v1437h201v-1437h-201zM532 -340h-558v128h558v-128z" />
    <glyph glyph-name="Lcircumflexbelow" unicode="&#x1e3c;" horiz-adv-x="999" 
d="M230 -400l212 287h130l212 -287h-159l-116 178h-4l-116 -178h-159zM976 181v-181h-818v1365h206v-1184h612z" />
    <glyph glyph-name="lcircumflexbelow" unicode="&#x1e3d;" horiz-adv-x="507" 
d="M-24 -400l212 287h130l212 -287h-159l-116 178h-4l-116 -178h-159zM153 0v1437h201v-1437h-201z" />
    <glyph glyph-name="Macute" unicode="&#x1e3e;" horiz-adv-x="1600" 
d="M347 0h-185v1365h204l432 -998h5l431 998h204v-1365h-186v963h-8l-366 -830h-157l-367 830h-7v-963zM863 1510h-149l191 279h193z" />
    <glyph glyph-name="macute" unicode="&#x1e3f;" horiz-adv-x="1749" 
d="M625 1071q238 0 301 -173h9q31 73 115 123t207 50q165 0 258 -95t93 -258v-718h-201v671q1 103 -55 163t-158 61q-102 0 -160 -65t-58 -173v-657h-198v657q0 116 -57 177t-155 61t-158 -62q-61 -62 -61 -174v-659h-201v1054h199v-136h10q29 62 99 108t171 45zM936 1188
h-149l191 278h193z" />
    <glyph glyph-name="Mdotaccent" unicode="&#x1e40;" horiz-adv-x="1600" 
d="M347 0h-185v1365h204l432 -998h5l431 998h204v-1365h-186v963h-8l-366 -830h-157l-367 830h-7v-963zM683 1642q0 48 34 80q34 34 82 34t82 -34t34 -80q0 -48 -34 -82t-82 -33q-48 -1 -82 33t-34 82z" />
    <glyph glyph-name="mdotaccent" unicode="&#x1e41;" horiz-adv-x="1749" 
d="M625 1071q238 0 301 -173h9q31 73 115 123t207 50q165 0 258 -95t93 -258v-718h-201v671q1 103 -55 163t-158 61q-102 0 -160 -65t-58 -173v-657h-198v657q0 116 -57 177t-155 61t-158 -62q-61 -62 -61 -174v-659h-201v1054h199v-136h10q29 62 99 108t171 45zM761 1304
q1 48 33 81t80 33t80 -33q33 -33 33 -81t-33 -80q-32 -32 -80 -32t-80 32t-33 80z" />
    <glyph glyph-name="Mdotbelow" unicode="&#x1e42;" horiz-adv-x="1600" 
d="M347 0h-185v1365h204l432 -998h5l431 998h204v-1365h-186v963h-8l-366 -830h-157l-367 830h-7v-963zM699 -267q0 43 29 73t71 29q42 1 71 -29t29 -74t-29 -72q-28 -29 -70 -29q-42 -1 -72 29t-29 73z" />
    <glyph glyph-name="mdotbelow" unicode="&#x1e43;" horiz-adv-x="1749" 
d="M625 1071q238 0 301 -173h9q31 73 115 123t207 50q165 0 258 -95t93 -258v-718h-201v671q1 103 -55 163t-158 61q-102 0 -160 -65t-58 -173v-657h-198v657q0 116 -57 177t-155 61t-158 -62q-61 -62 -61 -174v-659h-201v1054h199v-136h10q29 62 99 108t171 45zM776 -267
q0 43 29 73t71 29q42 1 71 -29t29 -74t-29 -72q-29 -29 -71 -29q-42 -1 -71 29t-29 73z" />
    <glyph glyph-name="Ndotaccent" unicode="&#x1e44;" horiz-adv-x="1368" 
d="M352 0h-194v1365h187l664 -1014h6v1014h195v-1365h-187l-665 1016h-6v-1016zM567 1642q0 48 34 80q34 34 82 34t82 -34t34 -80q0 -48 -34 -82t-82 -33q-48 -1 -82 33t-34 82z" />
    <glyph glyph-name="ndotaccent" unicode="&#x1e45;" horiz-adv-x="1163" 
d="M146 0v1054h199v-144h7q34 64 112 112t195 49q167 0 270 -103t103 -291v-677h-201v639q0 125 -66 189t-180 65q-114 0 -176 -73t-62 -186v-634h-201zM472 1304q0 48 32 81t80 33t81 -33t33 -81t-33 -80t-81 -32t-80 32t-32 80z" />
    <glyph glyph-name="Ndotbelow" unicode="&#x1e46;" horiz-adv-x="1368" 
d="M352 0h-194v1365h187l664 -1014h6v1014h195v-1365h-187l-665 1016h-6v-1016zM585 -267q0 43 29 73t71 29q42 1 71 -29t29 -74t-29 -72q-28 -29 -70 -29q-42 -1 -72 29t-29 73z" />
    <glyph glyph-name="ndotbelow" unicode="&#x1e47;" horiz-adv-x="1163" 
d="M146 0v1054h199v-144h7q34 64 112 112t195 49q167 0 270 -103t103 -291v-677h-201v639q0 125 -66 189t-180 65q-114 0 -176 -73t-62 -186v-634h-201zM487 -267q0 43 29 73t71 29q42 1 71 -29t29 -74t-29 -72q-28 -29 -70 -29q-42 -1 -72 29t-29 73z" />
    <glyph glyph-name="Nlinebelow" unicode="&#x1e48;" horiz-adv-x="1368" 
d="M352 0h-194v1365h187l664 -1014h6v1014h195v-1365h-187l-665 1016h-6v-1016zM962 -340h-558v128h558v-128z" />
    <glyph glyph-name="nlinebelow" unicode="&#x1e49;" horiz-adv-x="1163" 
d="M146 0v1054h199v-144h7q34 64 112 112t195 49q167 0 270 -103t103 -291v-677h-201v639q0 125 -66 189t-180 65q-114 0 -176 -73t-62 -186v-634h-201zM864 -340h-558v128h558v-128z" />
    <glyph glyph-name="Ncircumflexbelow" unicode="&#x1e4a;" horiz-adv-x="1368" 
d="M406 -400l212 287h130l212 -287h-159l-116 178h-4l-116 -178h-159zM352 0h-194v1365h187l664 -1014h6v1014h195v-1365h-187l-665 1016h-6v-1016z" />
    <glyph glyph-name="ncircumflexbelow" unicode="&#x1e4b;" horiz-adv-x="1163" 
d="M308 -400l212 287h130l212 -287h-159l-116 178h-4l-116 -178h-159zM146 0v1054h199v-144h7q34 64 112 112t195 49q167 0 270 -103t103 -291v-677h-201v639q0 125 -66 189t-180 65q-114 0 -176 -73t-62 -186v-634h-201z" />
    <glyph glyph-name="Otildeacute" unicode="&#x1e4c;" horiz-adv-x="1326" 
d="M768 1588q54 0 62 96h115q0 -80 -47 -142t-120 -62q-72 0 -120 40q-20 16 -48 44t-58 29q-55 0 -58 -94h-115q0 83 44 143t125 59t134 -57t86 -56zM560 1738l234 195h204l-274 -195h-164zM103 580v192q0 289 152 455t410 166q258 1 408 -165t150 -456v-192
q0 -288 -151 -448q-150 -160 -410 -160t-410 160t-149 448zM311 774v-194q0 -211 97 -320t255 -109t255 109t97 320v194q1 212 -97 326t-254 114t-255 -114q-98 -114 -98 -326z" />
    <glyph glyph-name="otildeacute" unicode="&#x1e4d;" horiz-adv-x="1132" 
d="M566 906q-124 0 -192 -91t-68 -246v-81q0 -154 68 -246t192 -92q126 0 192 92t67 246v81q0 155 -67 246t-192 91zM566 1072q218 0 340 -138t122 -360v-89q0 -227 -121 -365t-341 -138t-341 138q-122 138 -122 365v88q1 221 123 360t340 139zM671 1304q63 0 73 110h128
q0 -89 -54 -160t-141 -71q-88 0 -147 64t-98 64q-62 0 -66 -108h-128q0 95 50 161t139 67q45 0 84 -20q39 -19 61 -43q59 -64 99 -64zM627 1505h-149l191 278h193z" />
    <glyph glyph-name="Otildedieresis" unicode="&#x1e4e;" horiz-adv-x="1326" 
d="M103 580v192q0 289 152 455t410 166q258 1 408 -165t150 -456v-192q0 -288 -151 -448q-150 -160 -410 -160t-410 160t-149 448zM311 774v-194q0 -211 97 -320t255 -109t255 109t97 320v194q1 212 -97 326t-254 114t-255 -114q-98 -114 -98 -326zM768 1575q54 0 62 96h115
q0 -80 -47 -142t-121 -62q-73 0 -119 40q-20 17 -49 45t-57 28q-55 0 -58 -94h-115q0 82 44 142t125 60t134 -56t86 -57zM822 1728q-40 0 -66 28q-27 28 -27 68q1 40 27 68t66 28t67 -28t27 -68q0 -42 -27 -69t-67 -27zM502 1728q-40 0 -66 28t-26 68t26 68t67 28t67 -28
t26 -68q0 -42 -27 -69t-67 -27z" />
    <glyph glyph-name="otildedieresis" unicode="&#x1e4f;" horiz-adv-x="1132" 
d="M566 906q-124 0 -192 -91t-68 -246v-81q0 -154 68 -246t192 -92q126 0 192 92t67 246v81q0 155 -67 246t-192 91zM566 1072q218 0 340 -138t122 -360v-89q0 -227 -121 -365t-341 -138t-341 138q-122 138 -122 365v88q1 221 123 360t340 139zM746 1507q-42 0 -71 29
q-28 28 -28 72t28 73q29 29 71 29t70 -29t29 -73q-1 -44 -29 -72q-28 -29 -70 -29zM388 1507q-42 0 -70 29q-28 28 -29 72q0 44 28 73q29 29 71 29t70 -29t29 -73q-1 -44 -29 -72q-28 -29 -70 -29zM673 1304q63 0 73 110h128q0 -89 -54 -160t-141 -71q-88 0 -147 64t-98 64
q-62 0 -66 -108h-128q0 95 50 161t139 67q45 0 84 -20q39 -19 61 -43q59 -64 99 -64z" />
    <glyph glyph-name="Omacrongrave" unicode="&#x1e50;" horiz-adv-x="1326" 
d="M103 580v192q0 289 152 455t410 166q258 1 408 -165t150 -456v-192q0 -288 -151 -448q-150 -160 -410 -160t-410 160t-149 448zM311 774v-194q0 -211 97 -320t255 -109t255 109t97 320v194q1 212 -97 326t-254 114t-255 -114q-98 -114 -98 -326zM937 1518h-552v116h552
v-116zM755 1738h-166l-275 195h208z" />
    <glyph glyph-name="omacrongrave" unicode="&#x1e51;" horiz-adv-x="1132" 
d="M846 1237h-558v128h558v-128zM654 1503h-149l-235 278h194zM566 906q-124 0 -192 -91t-68 -246v-81q0 -154 68 -246t192 -92q126 0 192 92t67 246v81q0 155 -67 246t-192 91zM566 1072q218 0 340 -138t122 -360v-89q0 -227 -121 -365t-341 -138t-341 138
q-122 138 -122 365v88q1 221 123 360t340 139z" />
    <glyph glyph-name="Omacronacute" unicode="&#x1e52;" horiz-adv-x="1326" 
d="M103 580v192q0 289 152 455t410 166q258 1 408 -165t150 -456v-192q0 -288 -151 -448q-150 -160 -410 -160t-410 160t-149 448zM311 774v-194q0 -211 97 -320t255 -109t255 109t97 320v194q1 212 -97 326t-254 114t-255 -114q-98 -114 -98 -326zM937 1518h-552v116h552
v-116zM567 1738l233 195h208l-275 -195h-166z" />
    <glyph glyph-name="omacronacute" unicode="&#x1e53;" horiz-adv-x="1132" 
d="M846 1237h-558v128h558v-128zM632 1505h-149l191 278h193zM566 906q-124 0 -192 -91t-68 -246v-81q0 -154 68 -246t192 -92q126 0 192 92t67 246v81q0 155 -67 246t-192 91zM566 1072q218 0 340 -138t122 -360v-89q0 -227 -121 -365t-341 -138t-341 138
q-122 138 -122 365v88q1 221 123 360t340 139z" />
    <glyph glyph-name="Pacute" unicode="&#x1e54;" horiz-adv-x="1165" 
d="M363 1190v-520h192q171 0 260 53q88 53 88 192q1 139 -67 207t-191 68h-282zM158 1365h513q201 0 322 -121q121 -120 121 -314t-121 -314t-323 -119h-307v-497h-205v1365zM621 1510h-149l191 279h193z" />
    <glyph glyph-name="pacute" unicode="&#x1e55;" horiz-adv-x="1172" 
d="M645 1188h-149l191 278h193zM611 154q119 0 186 88t67 251v75q0 158 -66 246t-188 88q-120 0 -191 -90t-71 -243v-76q0 -155 72 -247t191 -92zM654 -16q-99 0 -176 43t-121 117h-7v-506h-202v1416h196v-153h7q46 77 126 123t183 46q180 0 294 -132t114 -363v-95
q0 -230 -114 -363t-300 -133z" />
    <glyph glyph-name="Pdotaccent" unicode="&#x1e56;" horiz-adv-x="1165" 
d="M441 1642q0 48 34 80q34 34 82 34t82 -34t34 -80q0 -48 -34 -82t-82 -33q-48 -1 -82 33t-34 82zM363 1190v-520h192q171 0 260 53q88 53 88 192q1 139 -67 207t-191 68h-282zM158 1365h513q201 0 322 -121q121 -120 121 -314t-121 -314t-323 -119h-307v-497h-205v1365z
" />
    <glyph glyph-name="pdotaccent" unicode="&#x1e57;" horiz-adv-x="1172" 
d="M470 1304q0 48 32 81t80 33t81 -33t33 -81t-33 -80t-81 -32t-80 32t-32 80zM611 154q119 0 186 88t67 251v75q0 158 -66 246t-188 88q-120 0 -191 -90t-71 -243v-76q0 -155 72 -247t191 -92zM654 -16q-99 0 -176 43t-121 117h-7v-506h-202v1416h196v-153h7q46 77 126 123
t183 46q180 0 294 -132t114 -363v-95q0 -230 -114 -363t-300 -133z" />
    <glyph glyph-name="Rdotaccent" unicode="&#x1e58;" horiz-adv-x="1228" 
d="M362 701h272q133 0 203 62t70 181q0 120 -72 184t-195 64h-278v-491zM668 1365q228 0 340 -121t112 -294q0 -218 -164 -334q-42 -30 -88 -47l277 -569h-233l-248 532h-302v-532h-204v1365h510zM465 1642q0 48 34 80q34 34 82 34t82 -34t34 -80q0 -48 -34 -82t-82 -33
q-48 -1 -82 33t-34 82z" />
    <glyph glyph-name="rdotaccent" unicode="&#x1e59;" horiz-adv-x="718" 
d="M293 1304q1 48 33 81t80 33t80 -33q33 -33 33 -81t-33 -80q-32 -32 -80 -32t-80 32t-33 80zM146 0v1054h202v-134h7q27 58 91 104t164 46q36 0 71 -5v-181q-28 6 -90 6q-241 0 -241 -254v-636h-204z" />
    <glyph glyph-name="Rdotbelow" unicode="&#x1e5a;" horiz-adv-x="1228" 
d="M362 701h272q133 0 203 62t70 181q0 120 -72 184t-195 64h-278v-491zM668 1365q228 0 340 -121t112 -294q0 -218 -164 -334q-42 -30 -88 -47l277 -569h-233l-248 532h-302v-532h-204v1365h510zM483 -267q0 43 29 73t71 29q42 1 71 -29t29 -74t-29 -72q-28 -29 -70 -29
q-42 -1 -72 29t-29 73z" />
    <glyph glyph-name="rdotbelow" unicode="&#x1e5b;" horiz-adv-x="718" 
d="M146 0v1054h202v-134h7q27 58 91 104t164 46q36 0 71 -5v-181q-28 6 -90 6q-241 0 -241 -254v-636h-204zM151 -267q0 43 29 73t71 29q42 1 71 -29t29 -74t-29 -72q-28 -29 -70 -29q-42 -1 -72 29t-29 73z" />
    <glyph glyph-name="Rdotbelowmacron" unicode="&#x1e5c;" horiz-adv-x="1228" 
d="M857 1518h-552v116h552v-116zM362 701h272q133 0 203 62t70 181q0 120 -72 184t-195 64h-278v-491zM668 1365q228 0 340 -121t112 -294q0 -218 -164 -334q-42 -30 -88 -47l277 -569h-233l-248 532h-302v-532h-204v1365h510zM483 -267q0 43 29 73t71 29q42 1 71 -29
t29 -74t-29 -72q-28 -29 -70 -29q-42 -1 -72 29t-29 73z" />
    <glyph glyph-name="rdotbelowmacron" unicode="&#x1e5d;" horiz-adv-x="718" 
d="M685 1237h-558v128h558v-128zM146 0v1054h202v-134h7q27 58 91 104t164 46q36 0 71 -5v-181q-28 6 -90 6q-241 0 -241 -254v-636h-204zM151 -267q0 43 29 73t71 29q42 1 71 -29t29 -74t-29 -72q-28 -29 -70 -29q-42 -1 -72 29t-29 73z" />
    <glyph glyph-name="Rlinebelow" unicode="&#x1e5e;" horiz-adv-x="1228" 
d="M860 -340h-558v128h558v-128zM362 701h272q133 0 203 62t70 181q0 120 -72 184t-195 64h-278v-491zM668 1365q228 0 340 -121t112 -294q0 -218 -164 -334q-42 -30 -88 -47l277 -569h-233l-248 532h-302v-532h-204v1365h510z" />
    <glyph glyph-name="rlinebelow" unicode="&#x1e5f;" horiz-adv-x="718" 
d="M528 -340h-558v128h558v-128zM146 0v1054h202v-134h7q27 58 91 104t164 46q36 0 71 -5v-181q-28 6 -90 6q-241 0 -241 -254v-636h-204z" />
    <glyph glyph-name="Sdotaccent" unicode="&#x1e60;" horiz-adv-x="1172" 
d="M578 146q140 0 219 60t79 152t-52 140t-167 76l-230 58q-137 34 -232 120q-96 86 -96 227q1 143 69 235q135 182 414 182t414 -178q69 -91 71 -216h-199q-8 97 -82 159t-202 62q-128 -1 -202 -57q-76 -56 -76 -155q0 -144 191 -190l228 -58q209 -51 293 -161
q66 -86 66 -215q0 -195 -144 -305t-376 -110q-301 0 -431 182q-69 97 -73 221h203q10 -99 93 -164q82 -65 222 -65zM467 1642q0 48 34 80q34 34 82 34t82 -34t34 -80q0 -48 -34 -82t-82 -33q-48 -1 -82 33t-34 82z" />
    <glyph glyph-name="sdotaccent" unicode="&#x1e61;" horiz-adv-x="1005" 
d="M393 1304q1 48 33 81t80 33t80 -33q33 -33 33 -81t-33 -80q-32 -32 -80 -32t-80 32t-33 80zM105 756q0 76 33 138q34 64 90 102q113 76 286 76q174 0 275 -88t101 -230h-184q-6 68 -54 116t-145 47q-97 0 -152 -39t-55 -109q0 -105 180 -142q38 -8 60 -11q21 -4 55 -10
t82 -20q116 -31 179 -93t63 -177q1 -158 -115 -246t-307 -88t-301 82t-110 224h197q10 -70 68 -110t159 -40q100 0 156 44t56 104q0 61 -28 84q-49 39 -99 52q-49 14 -91 22q-43 8 -85 17q-41 9 -99 29t-110 54t-78 84q-26 52 -27 128z" />
    <glyph glyph-name="Sdotbelow" unicode="&#x1e62;" horiz-adv-x="1172" 
d="M578 146q140 0 219 60t79 152t-52 140t-167 76l-230 58q-137 34 -232 120q-96 86 -96 227q1 143 69 235q135 182 414 182t414 -178q69 -91 71 -216h-199q-8 97 -82 159t-202 62q-128 -1 -202 -57q-76 -56 -76 -155q0 -144 191 -190l228 -58q209 -51 293 -161
q66 -86 66 -215q0 -195 -144 -305t-376 -110q-301 0 -431 182q-69 97 -73 221h203q10 -99 93 -164q82 -65 222 -65zM466 -267q0 43 29 73t71 29q42 1 71 -29t29 -74t-29 -72q-29 -29 -71 -29q-42 -1 -71 29t-29 73z" />
    <glyph glyph-name="sdotbelow" unicode="&#x1e63;" horiz-adv-x="1005" 
d="M105 756q0 76 33 138q34 64 90 102q113 76 286 76q174 0 275 -88t101 -230h-184q-6 68 -54 116t-145 47q-97 0 -152 -39t-55 -109q0 -105 180 -142q38 -8 60 -11q21 -4 55 -10t82 -20q116 -31 179 -93t63 -177q1 -158 -115 -246t-307 -88t-301 82t-110 224h197
q10 -70 68 -110t159 -40q100 0 156 44t56 104q0 61 -28 84q-49 39 -99 52q-49 14 -91 22q-43 8 -85 17q-41 9 -99 29t-110 54t-78 84q-26 52 -27 128zM408 -267q0 43 29 73t71 29q42 1 71 -29t29 -74t-29 -72q-29 -29 -71 -29q-42 -1 -71 29t-29 73z" />
    <glyph glyph-name="Sacutedotaccent" unicode="&#x1e64;" horiz-adv-x="1172" 
d="M578 146q140 0 219 60t79 152t-52 140t-167 76l-230 58q-137 34 -232 120q-96 86 -96 227q1 143 69 235q135 182 414 182t414 -178q69 -91 71 -216h-199q-8 97 -82 159t-202 62q-128 -1 -202 -57q-76 -56 -76 -155q0 -144 191 -190l228 -58q209 -51 293 -161
q66 -86 66 -215q0 -195 -144 -305t-376 -110q-301 0 -431 182q-69 97 -73 221h203q10 -99 93 -164q82 -65 222 -65zM274 1686q0 48 34 82t82 33q48 1 82 -33t34 -82t-34 -80q-34 -34 -82 -34t-82 34q-34 32 -34 80zM738 1510h-149l191 279h193z" />
    <glyph glyph-name="sacutedotaccent" unicode="&#x1e65;" horiz-adv-x="1005" 
d="M214 1354q0 48 32 81t80 33t81 -33t33 -81t-33 -80t-81 -32t-80 32t-32 80zM654 1188h-149l191 278h193zM105 756q0 76 33 138q34 64 90 102q113 76 286 76q174 0 275 -88t101 -230h-184q-6 68 -54 116t-145 47q-97 0 -152 -39t-55 -109q0 -105 180 -142q38 -8 60 -11
q21 -4 55 -10t82 -20q116 -31 179 -93t63 -177q1 -158 -115 -246t-307 -88t-301 82t-110 224h197q10 -70 68 -110t159 -40q100 0 156 44t56 104q0 61 -28 84q-49 39 -99 52q-49 14 -91 22q-43 8 -85 17q-41 9 -99 29t-110 54t-78 84q-26 52 -27 128z" />
    <glyph glyph-name="Scarondotaccent" unicode="&#x1e66;" horiz-adv-x="1172" 
d="M578 146q140 0 219 60t79 152t-52 140t-167 76l-230 58q-137 34 -232 120q-96 86 -96 227q1 143 69 235q135 182 414 182t414 -178q69 -91 71 -216h-199q-8 97 -82 159t-202 62q-128 -1 -202 -57q-76 -56 -76 -155q0 -144 191 -190l228 -58q209 -51 293 -161
q66 -86 66 -215q0 -195 -144 -305t-376 -110q-301 0 -431 182q-69 97 -73 221h203q10 -99 93 -164q82 -65 222 -65zM489 1839q0 38 28 66t66 28t66 -28t28 -66q0 -39 -28 -67t-66 -28t-66 28t-28 67zM248 1712h186l147 -109h4l147 109h186l-279 -202h-112z" />
    <glyph glyph-name="scarondotaccent" unicode="&#x1e67;" horiz-adv-x="1005" 
d="M393 1668q1 48 33 81t80 33t80 -33q33 -33 33 -81t-33 -80q-32 -32 -80 -32t-80 32t-33 80zM226 1491h161l117 -180h3l117 180h162l-217 -303h-127zM105 756q0 76 33 138q34 64 90 102q113 76 286 76q174 0 275 -88t101 -230h-184q-6 68 -54 116t-145 47q-97 0 -152 -39
t-55 -109q0 -105 180 -142q38 -8 60 -11q21 -4 55 -10t82 -20q116 -31 179 -93t63 -177q1 -158 -115 -246t-307 -88t-301 82t-110 224h197q10 -70 68 -110t159 -40q100 0 156 44t56 104q0 61 -28 84q-49 39 -99 52q-49 14 -91 22q-43 8 -85 17q-41 9 -99 29t-110 54t-78 84
q-26 52 -27 128z" />
    <glyph glyph-name="Sdotbelowdotaccent" unicode="&#x1e68;" horiz-adv-x="1172" 
d="M467 1642q0 48 34 80q34 34 82 34t82 -34t34 -80q0 -48 -34 -82t-82 -33q-48 -1 -82 33t-34 82zM578 146q140 0 219 60t79 152t-52 140t-167 76l-230 58q-137 34 -232 120q-96 86 -96 227q1 143 69 235q135 182 414 182t414 -178q69 -91 71 -216h-199q-8 97 -82 159
t-202 62q-128 -1 -202 -57q-76 -56 -76 -155q0 -144 191 -190l228 -58q209 -51 293 -161q66 -86 66 -215q0 -195 -144 -305t-376 -110q-301 0 -431 182q-69 97 -73 221h203q10 -99 93 -164q82 -65 222 -65zM466 -267q0 43 29 73t71 29q42 1 71 -29t29 -74t-29 -72
q-29 -29 -71 -29q-42 -1 -71 29t-29 73z" />
    <glyph glyph-name="sdotbelowdotaccent" unicode="&#x1e69;" horiz-adv-x="1005" 
d="M393 1304q1 48 33 81t80 33t80 -33q33 -33 33 -81t-33 -80q-32 -32 -80 -32t-80 32t-33 80zM105 756q0 76 33 138q34 64 90 102q113 76 286 76q174 0 275 -88t101 -230h-184q-6 68 -54 116t-145 47q-97 0 -152 -39t-55 -109q0 -105 180 -142q38 -8 60 -11q21 -4 55 -10
t82 -20q116 -31 179 -93t63 -177q1 -158 -115 -246t-307 -88t-301 82t-110 224h197q10 -70 68 -110t159 -40q100 0 156 44t56 104q0 61 -28 84q-49 39 -99 52q-49 14 -91 22q-43 8 -85 17q-41 9 -99 29t-110 54t-78 84q-26 52 -27 128zM408 -267q0 43 29 73t71 29
q42 1 71 -29t29 -74t-29 -72q-29 -29 -71 -29q-42 -1 -71 29t-29 73z" />
    <glyph glyph-name="Tdotaccent" unicode="&#x1e6a;" horiz-adv-x="1054" 
d="M629 0h-204v1186h-407v179h1018v-179h-407v-1186zM410 1642q0 48 34 80q34 34 82 34t82 -34t34 -80q0 -48 -34 -82t-82 -33q-48 -1 -82 33t-34 82z" />
    <glyph glyph-name="tdotaccent" unicode="&#x1e6b;" horiz-adv-x="713" 
d="M217 1054v260h199v-260h207v-164h-207v-584q0 -88 36 -120t130 -32q20 0 48 2v-157q-40 -7 -116 -7q-168 0 -234 72q-65 72 -65 232v594h-144v164h146zM207 1554q1 48 33 81t80 33t80 -33q33 -33 33 -81t-33 -80q-32 -32 -80 -32t-80 32t-33 80z" />
    <glyph glyph-name="Tdotbelow" unicode="&#x1e6c;" horiz-adv-x="1054" 
d="M629 0h-204v1186h-407v179h1018v-179h-407v-1186zM427 -267q0 43 29 73t71 29q42 1 71 -29t29 -74t-29 -72q-28 -29 -70 -29q-42 -1 -72 29t-29 73z" />
    <glyph glyph-name="tdotbelow" unicode="&#x1e6d;" horiz-adv-x="713" 
d="M217 1054v260h199v-260h207v-164h-207v-584q0 -88 36 -120t130 -32q20 0 48 2v-157q-40 -7 -116 -7q-168 0 -234 72q-65 72 -65 232v594h-144v164h146zM333 -267q0 43 29 73t71 29q42 1 71 -29t29 -74t-29 -72q-28 -29 -70 -29q-42 -1 -72 29t-29 73z" />
    <glyph glyph-name="Tlinebelow" unicode="&#x1e6e;" horiz-adv-x="1054" 
d="M629 0h-204v1186h-407v179h1018v-179h-407v-1186zM806 -340h-558v128h558v-128z" />
    <glyph glyph-name="tlinebelow" unicode="&#x1e6f;" horiz-adv-x="713" 
d="M217 1054v260h199v-260h207v-164h-207v-584q0 -88 36 -120t130 -32q20 0 48 2v-157q-40 -7 -116 -7q-168 0 -234 72q-65 72 -65 232v594h-144v164h146zM710 -340h-558v128h558v-128z" />
    <glyph glyph-name="Tcircumflexbelow" unicode="&#x1e70;" horiz-adv-x="1054" 
d="M250 -400l212 287h130l212 -287h-159l-116 178h-4l-116 -178h-159zM629 0h-204v1186h-407v179h1018v-179h-407v-1186z" />
    <glyph glyph-name="tcircumflexbelow" unicode="&#x1e71;" horiz-adv-x="713" 
d="M154 -400l212 287h130l212 -287h-159l-116 178h-4l-116 -178h-159zM217 1054v260h199v-260h207v-164h-207v-584q0 -88 36 -120t130 -32q20 0 48 2v-157q-40 -7 -116 -7q-168 0 -234 72q-65 72 -65 232v594h-144v164h146z" />
    <glyph glyph-name="Udieresisbelow" unicode="&#x1e72;" horiz-adv-x="1341" 
d="M848 -379q-42 0 -70 29q-28 28 -28 72t28 73t70 29t72 -29q28 -29 28 -73t-28 -72q-30 -29 -72 -29zM491 -379q-43 0 -71 29q-28 28 -28 72t28 73t70 29t72 -29q28 -29 28 -73t-28 -72q-28 -29 -71 -29zM346 1365v-881q0 -153 88 -242t236 -89q148 -1 236 89t89 242v881
h204v-909q0 -216 -142 -350q-143 -134 -387 -134t-386 134t-142 350v909h204z" />
    <glyph glyph-name="udieresisbelow" unicode="&#x1e73;" horiz-adv-x="1158" 
d="M754 -379q-42 0 -71 29q-28 28 -28 72t28 73q29 29 71 29t70 -29t29 -73q-1 -44 -29 -72q-28 -29 -70 -29zM396 -379q-42 0 -70 29q-28 28 -29 72q0 44 28 73q29 29 71 29t70 -29t29 -73q-1 -44 -29 -72q-28 -29 -70 -29zM1012 1054v-1054h-199v143h-8q-30 -69 -108 -115
t-197 -45q-168 -1 -268 95t-101 274v702h202v-646q0 -133 65 -190t172 -57q108 0 174 66t66 184v643h202z" />
    <glyph glyph-name="Utildebelow" unicode="&#x1e74;" horiz-adv-x="1341" 
d="M346 1365v-881q0 -153 88 -242t236 -89q148 -1 236 89t89 242v881h204v-909q0 -216 -142 -350q-143 -134 -387 -134t-386 134t-142 350v909h204zM368 -355q0 89 46 153t132 64q42 0 80 -19t59 -42q56 -61 89 -61q63 0 71 104h123q0 -85 -50 -152t-135 -67t-140 61
q-56 61 -92 61q-57 0 -60 -102h-123z" />
    <glyph glyph-name="utildebelow" unicode="&#x1e75;" horiz-adv-x="1158" 
d="M1012 1054v-1054h-199v143h-8q-30 -69 -108 -115t-197 -45q-168 -1 -268 95t-101 274v702h202v-646q0 -133 65 -190t172 -57q108 0 174 66t66 184v643h202zM273 -355q1 89 47 153t131 64q43 0 81 -19t58 -42q56 -61 89 -61q63 0 71 104h123q0 -85 -50 -152t-135 -67
t-140 61q-56 61 -92 61q-57 0 -60 -102h-123z" />
    <glyph glyph-name="Ucircumflexbelow" unicode="&#x1e76;" horiz-adv-x="1341" 
d="M393 -400l212 287h130l212 -287h-159l-116 178h-4l-116 -178h-159zM346 1365v-881q0 -153 88 -242t236 -89q148 -1 236 89t89 242v881h204v-909q0 -216 -142 -350q-143 -134 -387 -134t-386 134t-142 350v909h204z" />
    <glyph glyph-name="ucircumflexbelow" unicode="&#x1e77;" horiz-adv-x="1158" 
d="M298 -400l212 287h130l212 -287h-159l-116 178h-4l-116 -178h-159zM1012 1054v-1054h-199v143h-8q-30 -69 -108 -115t-197 -45q-168 -1 -268 95t-101 274v702h202v-646q0 -133 65 -190t172 -57q108 0 174 66t66 184v643h202z" />
    <glyph glyph-name="Utildeacute" unicode="&#x1e78;" horiz-adv-x="1341" 
d="M954 1684q0 -80 -47 -142t-120 -62t-121 40q-20 16 -48 44t-57 29q-55 0 -58 -94h-115q0 83 44 143t125 59t134 -57t86 -56q54 0 62 96h115zM569 1738l234 195h204l-274 -195h-164zM346 1365v-881q0 -153 88 -242t236 -89q148 -1 236 89t89 242v881h204v-909
q0 -216 -142 -350q-143 -134 -387 -134t-386 134t-142 350v909h204z" />
    <glyph glyph-name="utildeacute" unicode="&#x1e79;" horiz-adv-x="1158" 
d="M679 1304q63 0 73 110h128q0 -89 -54 -160t-141 -71q-88 0 -147 64t-98 64q-62 0 -66 -108h-128q0 95 50 161t139 67q45 0 84 -20q39 -19 61 -43q59 -64 99 -64zM635 1505h-149l191 278h193zM1012 1054v-1054h-199v143h-8q-30 -69 -108 -115t-197 -45q-168 -1 -268 95
t-101 274v702h202v-646q0 -133 65 -190t172 -57q108 0 174 66t66 184v643h202z" />
    <glyph glyph-name="Umacrondieresis" unicode="&#x1e7a;" horiz-adv-x="1341" 
d="M346 1365v-881q0 -153 88 -242t236 -89q148 -1 236 89t89 242v881h204v-909q0 -216 -142 -350q-143 -134 -387 -134t-386 134t-142 350v909h204zM946 1511h-552v116h552v-116zM831 1728q-39 0 -66 28t-27 68t26 68t67 28q40 0 67 -28t27 -68q1 -42 -27 -69t-67 -27z
M512 1728q-40 0 -66 28t-27 68q1 40 27 68t66 28t66 -28t27 -68q0 -42 -27 -69q-26 -27 -66 -27z" />
    <glyph glyph-name="umacrondieresis" unicode="&#x1e7b;" horiz-adv-x="1158" 
d="M1012 1054v-1054h-199v143h-8q-30 -69 -108 -115t-197 -45q-168 -1 -268 95t-101 274v702h202v-646q0 -133 65 -190t172 -57q108 0 174 66t66 184v643h202zM754 1507q-42 0 -71 29q-28 28 -28 72t28 73q29 29 71 29t70 -29t29 -73q-1 -44 -29 -72q-28 -29 -70 -29z
M396 1507q-42 0 -70 29q-28 28 -29 72q0 44 28 73q29 29 71 29t70 -29t29 -73q-1 -44 -29 -72q-28 -29 -70 -29zM854 1237h-558v128h558v-128z" />
    <glyph glyph-name="Vtilde" unicode="&#x1e7c;" horiz-adv-x="1214" 
d="M721 0h-227l-480 1365h236l357 -1114h8l354 1114h231zM713 1588q54 0 62 96h115q0 -80 -47 -142t-120 -62t-121 40q-20 16 -48 44t-57 29q-55 0 -58 -94h-115q0 83 44 143t125 59t134 -57t86 -56z" />
    <glyph glyph-name="vtilde" unicode="&#x1e7d;" horiz-adv-x="965" 
d="M365 0l-362 1054h214l256 -829h7l276 829h205l-374 -1054h-222zM588 1304q63 0 73 110h128q1 -89 -53 -160t-142 -71t-147 64t-98 64q-62 0 -66 -108h-128q0 95 50 161t139 67q45 0 84 -20q39 -19 61 -43q59 -64 99 -64z" />
    <glyph glyph-name="Vdotbelow" unicode="&#x1e7e;" horiz-adv-x="1214" 
d="M721 0h-227l-480 1365h236l357 -1114h8l354 1114h231zM507 -267q0 43 29 73t71 29q42 1 71 -29t29 -74t-29 -72q-28 -29 -70 -29q-42 -1 -72 29t-29 73z" />
    <glyph glyph-name="vdotbelow" unicode="&#x1e7f;" horiz-adv-x="965" 
d="M365 0l-362 1054h214l256 -829h7l276 829h205l-374 -1054h-222zM384 -267q0 43 29 73t71 29q42 1 71 -29t29 -74t-29 -72q-29 -29 -71 -29q-42 -1 -71 29t-29 73z" />
    <glyph glyph-name="Wgrave" unicode="&#x1e80;" horiz-adv-x="1696" 
d="M569 0h-187l-371 1365h224l247 -1037h7l261 1037h197l260 -1037h7l247 1037h224l-371 -1365h-186l-276 1030h-7zM933 1510h-149l-235 279h193z" />
    <glyph glyph-name="wgrave" unicode="&#x1e81;" horiz-adv-x="1503" 
d="M1467 1054l-274 -1054h-211l-228 792h-5l-228 -792h-211l-274 1054h204l182 -815h9l225 815h192l226 -815h8l182 815h203zM838 1188h-149l-235 278h194z" />
    <glyph glyph-name="Wacute" unicode="&#x1e82;" horiz-adv-x="1696" 
d="M569 0h-187l-371 1365h224l247 -1037h7l261 1037h197l260 -1037h7l247 1037h224l-371 -1365h-186l-276 1030h-7zM912 1510h-149l191 279h193z" />
    <glyph glyph-name="wacute" unicode="&#x1e83;" horiz-adv-x="1503" 
d="M1467 1054l-274 -1054h-211l-228 792h-5l-228 -792h-211l-274 1054h204l182 -815h9l225 815h192l226 -815h8l182 815h203zM813 1188h-149l191 278h193z" />
    <glyph glyph-name="Wdieresis" unicode="&#x1e84;" horiz-adv-x="1696" 
d="M569 0h-187l-371 1365h224l247 -1037h7l261 1037h197l260 -1037h7l247 1037h224l-371 -1365h-186l-276 1030h-7zM1007 1489q-39 -1 -66 27t-27 69t26 69t67 27q40 1 67 -27t27 -69q1 -41 -27 -69t-67 -27zM688 1489q-40 -1 -66 27t-27 69q1 41 27 69t66 27q40 1 66 -27
t27 -70q0 -42 -27 -68q-26 -27 -66 -27z" />
    <glyph glyph-name="wdieresis" unicode="&#x1e85;" horiz-adv-x="1503" 
d="M1467 1054l-274 -1054h-211l-228 792h-5l-228 -792h-211l-274 1054h204l182 -815h9l225 815h192l226 -815h8l182 815h203zM930 1198q-42 0 -71 29q-28 29 -28 73t28 72q29 29 71 29t70 -29q28 -28 29 -72q-1 -44 -29 -73t-70 -29zM572 1198q-42 0 -70 29t-29 73
q0 44 28 72q29 29 71 29t70 -29q28 -28 29 -72q-1 -44 -29 -73t-70 -29z" />
    <glyph glyph-name="Wdotaccent" unicode="&#x1e86;" horiz-adv-x="1696" 
d="M569 0h-187l-371 1365h224l247 -1037h7l261 1037h197l260 -1037h7l247 1037h224l-371 -1365h-186l-276 1030h-7zM732 1642q0 48 34 80q34 34 82 34t82 -34t34 -80q0 -48 -34 -82t-82 -33q-48 -1 -82 33t-34 82z" />
    <glyph glyph-name="wdotaccent" unicode="&#x1e87;" horiz-adv-x="1503" 
d="M1467 1054l-274 -1054h-211l-228 792h-5l-228 -792h-211l-274 1054h204l182 -815h9l225 815h192l226 -815h8l182 815h203zM638 1304q0 48 32 81t80 33t81 -33t33 -81t-33 -80t-81 -32t-80 32t-32 80z" />
    <glyph glyph-name="Wdotbelow" unicode="&#x1e88;" horiz-adv-x="1696" 
d="M569 0h-187l-371 1365h224l247 -1037h7l261 1037h197l260 -1037h7l247 1037h224l-371 -1365h-186l-276 1030h-7zM747 -267q0 43 29 73t71 29q42 1 71 -29t29 -74t-29 -72q-28 -29 -70 -29q-42 -1 -72 29t-29 73z" />
    <glyph glyph-name="wdotbelow" unicode="&#x1e89;" horiz-adv-x="1503" 
d="M1467 1054l-274 -1054h-211l-228 792h-5l-228 -792h-211l-274 1054h204l182 -815h9l225 815h192l226 -815h8l182 815h203zM653 -267q0 43 29 73t71 29q42 1 71 -29t29 -74t-29 -72q-28 -29 -70 -29q-42 -1 -72 29t-29 73z" />
    <glyph glyph-name="Xdotaccent" unicode="&#x1e8a;" horiz-adv-x="1144" 
d="M454 1642q0 48 34 80q34 34 82 34t82 -34t34 -80q0 -48 -34 -82t-82 -33q-48 -1 -82 33t-34 82zM1143 1365l-447 -688l438 -677h-243l-324 521h-10l-327 -521h-229l439 688l-433 677h245l324 -525h11l321 525h235z" />
    <glyph glyph-name="xdotaccent" unicode="&#x1e8b;" horiz-adv-x="1014" 
d="M393 1304q1 48 33 81t80 33t80 -33q33 -33 33 -81t-33 -80q-32 -32 -80 -32t-80 32t-33 80zM754 0l-252 385h-3l-249 -385h-224l353 528l-348 526h239l242 -386h2l242 386h228l-352 -526l356 -528h-234z" />
    <glyph glyph-name="Xdieresis" unicode="&#x1e8c;" horiz-adv-x="1144" 
d="M733 1489q-39 -1 -66 27t-27 69t26 69t67 27q40 1 67 -27t27 -69q1 -41 -27 -69t-67 -27zM414 1489q-40 -1 -66 27t-27 69q1 41 27 69t66 27q40 1 66 -27t27 -70q0 -42 -27 -68q-26 -27 -66 -27zM1143 1365l-447 -688l438 -677h-243l-324 521h-10l-327 -521h-229l439 688
l-433 677h245l324 -525h11l321 525h235z" />
    <glyph glyph-name="xdieresis" unicode="&#x1e8d;" horiz-adv-x="1014" 
d="M684 1198q-42 0 -70 29t-28 73t28 72q28 29 70 29t72 -29q28 -28 28 -72t-28 -73q-30 -29 -72 -29zM327 1198q-43 0 -71 29t-28 73t28 72q28 29 70 29t72 -29q28 -28 28 -72t-28 -73t-71 -29zM754 0l-252 385h-3l-249 -385h-224l353 528l-348 526h239l242 -386h2l242 386
h228l-352 -526l356 -528h-234z" />
    <glyph glyph-name="Ydotaccent" unicode="&#x1e8e;" horiz-adv-x="1109" 
d="M438 1642q0 48 34 80q34 34 82 34t82 -34t34 -80q0 -48 -34 -82t-82 -33q-48 -1 -82 33t-34 82zM656 0h-204v565l-457 800h232l325 -597h7l326 597h228l-457 -797v-568z" />
    <glyph glyph-name="ydotaccent" unicode="&#x1e8f;" horiz-adv-x="986" 
d="M385 1304q1 48 33 81t80 33t80 -33q33 -33 33 -81t-33 -80q-32 -32 -80 -32t-80 32t-33 80zM188 -221q142 0 183 160l14 50l-381 1065h224l265 -848h7l267 848h215q-365 -1044 -366 -1048l-27 -73q-68 -186 -159 -250q-92 -65 -218 -65q-64 0 -123 9v157q27 -5 99 -5z
" />
    <glyph glyph-name="Zcircumflex" unicode="&#x1e90;" horiz-adv-x="1156" 
d="M299 1510l217 291h124l217 -291h-160l-117 172h-4l-117 -172h-160zM83 0v141l708 1041v6h-685v177h937v-139l-703 -1042v-7h721v-177h-978z" />
    <glyph glyph-name="zcircumflex" unicode="&#x1e91;" horiz-adv-x="978" 
d="M96 0v136l546 743v7h-540v168h789v-141l-540 -738v-7h548v-168h-803zM215 1188l217 303h126l217 -303h-161l-117 180h-4l-117 -180h-161z" />
    <glyph glyph-name="Zdotbelow" unicode="&#x1e92;" horiz-adv-x="1156" 
d="M83 0v141l708 1041v6h-685v177h937v-139l-703 -1042v-7h721v-177h-978zM479 -267q0 43 29 73t71 29q42 1 71 -29t29 -74t-29 -72q-28 -29 -70 -29q-42 -1 -72 29t-29 73z" />
    <glyph glyph-name="zdotbelow" unicode="&#x1e93;" horiz-adv-x="978" 
d="M96 0v136l546 743v7h-540v168h789v-141l-540 -738v-7h548v-168h-803zM397 -267q0 43 29 73t71 29q42 1 71 -29t29 -74t-29 -72q-28 -29 -70 -29q-42 -1 -72 29t-29 73z" />
    <glyph glyph-name="Zlinebelow" unicode="&#x1e94;" horiz-adv-x="1156" 
d="M856 -340h-558v128h558v-128zM83 0v141l708 1041v6h-685v177h937v-139l-703 -1042v-7h721v-177h-978z" />
    <glyph glyph-name="zlinebelow" unicode="&#x1e95;" horiz-adv-x="978" 
d="M96 0v136l546 743v7h-540v168h789v-141l-540 -738v-7h548v-168h-803zM774 -340h-558v128h558v-128z" />
    <glyph glyph-name="hlinebelow" unicode="&#x1e96;" horiz-adv-x="1167" 
d="M861 -340h-558v128h558v-128zM149 0v1437h202v-527h7q34 64 111 112t194 49q167 0 271 -103t103 -291v-677h-202v639q1 125 -65 189t-180 65q-114 0 -177 -73q-62 -73 -62 -186v-634h-202z" />
    <glyph glyph-name="tdieresis" unicode="&#x1e97;" horiz-adv-x="713" 
d="M498 1448q-42 0 -70 29t-28 73t28 72q28 29 70 29t72 -29q28 -28 28 -72t-28 -73q-30 -29 -72 -29zM141 1448q-43 0 -71 29t-28 73t28 72q28 29 70 29t72 -29q28 -28 28 -72t-28 -73t-71 -29zM217 1054v260h199v-260h207v-164h-207v-584q0 -88 36 -120t130 -32q20 0 48 2
v-157q-40 -7 -116 -7q-168 0 -234 72q-65 72 -65 232v594h-144v164h146z" />
    <glyph glyph-name="wring" unicode="&#x1e98;" horiz-adv-x="1503" 
d="M652 1374q0 -42 28 -71t71 -29t71 29t28 71t-28 72q-28 29 -71 29t-71 -29q-28 -30 -28 -72zM752 1182q-84 0 -142 55t-57 137q-1 82 57 138q58 55 142 55t140 -55q57 -56 57 -138t-57 -137q-56 -55 -140 -55zM1467 1054l-274 -1054h-211l-228 792h-5l-228 -792h-211
l-274 1054h204l182 -815h9l225 815h192l226 -815h8l182 815h203z" />
    <glyph glyph-name="yring" unicode="&#x1e99;" horiz-adv-x="986" 
d="M399 1374q1 -42 29 -71t70 -29t70 29t29 71q-1 42 -29 72q-28 29 -70 29t-70 -29q-28 -30 -29 -72zM498 1182q-84 0 -140 55q-58 55 -58 137t58 138q58 55 140 55q84 0 141 -55q57 -56 57 -138t-57 -137t-141 -55zM188 -221q142 0 183 160l14 50l-381 1065h224l265 -848
h7l267 848h215q-365 -1044 -366 -1048l-27 -73q-68 -186 -159 -250q-92 -65 -218 -65q-64 0 -123 9v157q27 -5 99 -5z" />
    <glyph glyph-name="Adotbelow" unicode="&#x1ea0;" horiz-adv-x="1219" 
d="M508 -267q0 43 29 73t71 29q42 1 71 -29t29 -74t-29 -72q-29 -29 -71 -29q-42 -1 -71 29t-29 73zM608 1141h-7l-193 -590h392zM231 0h-209l476 1365h223l476 -1365h-221l-127 391h-490z" />
    <glyph glyph-name="adotbelow" unicode="&#x1ea1;" horiz-adv-x="1067" 
d="M437 -267q0 43 29 73t71 29q42 1 71 -29t29 -74t-29 -72q-28 -29 -70 -29q-42 -1 -72 29t-29 73zM501 142q93 0 161 58t68 149v119h-243q-99 0 -147 -42t-48 -118t58 -122q58 -44 151 -44zM432 -17q-154 -1 -249 87t-95 232t96 224q96 81 275 82h271v103q0 96 -54 147
t-149 51t-149 -44t-61 -119h-190q8 145 109 235t287 90t297 -91t111 -258v-722h-193v130h-7q-88 -147 -299 -147z" />
    <glyph glyph-name="Ahookabove" unicode="&#x1ea2;" horiz-adv-x="1219" 
d="M658 1608q0 58 -90 58q-49 0 -91 -10v98q45 16 119 16t131 -40t57 -115q0 -107 -145 -163l-69 83q88 23 88 73zM608 1141h-7l-193 -590h392zM231 0h-209l476 1365h223l476 -1365h-221l-127 391h-490z" />
    <glyph glyph-name="ahookabove" unicode="&#x1ea3;" horiz-adv-x="1067" 
d="M585 1355q0 37 -30 62t-76 25t-86 -19v105q36 18 119 18q84 0 140 -51t56 -133q0 -128 -153 -193l-64 85q94 41 94 101zM501 142q93 0 161 58t68 149v119h-243q-99 0 -147 -42t-48 -118t58 -122q58 -44 151 -44zM432 -17q-154 -1 -249 87t-95 232t96 224q96 81 275 82
h271v103q0 96 -54 147t-149 51t-149 -44t-61 -119h-190q8 145 109 235t287 90t297 -91t111 -258v-722h-193v130h-7q-88 -147 -299 -147z" />
    <glyph glyph-name="Acircumflexacute" unicode="&#x1ea4;" horiz-adv-x="1219" 
d="M809 1709l197 230h184l-245 -230h-136zM274 1510l277 213h118l277 -213h-185l-148 113h-6l-148 -113h-185zM608 1141h-7l-193 -590h392zM231 0h-209l476 1365h223l476 -1365h-221l-127 391h-490z" />
    <glyph glyph-name="acircumflexacute" unicode="&#x1ea5;" horiz-adv-x="1067" 
d="M255 1188l217 303h126l217 -303h-161l-117 180h-4l-117 -180h-161zM893 1411h-149l191 279h193zM501 142q93 0 161 58t68 149v119h-243q-99 0 -147 -42t-48 -118t58 -122q58 -44 151 -44zM432 -17q-154 -1 -249 87t-95 232t96 224q96 81 275 82h271v103q0 96 -54 147
t-149 51t-149 -44t-61 -119h-190q8 145 109 235t287 90t297 -91t111 -258v-722h-193v130h-7q-88 -147 -299 -147z" />
    <glyph glyph-name="Acircumflexgrave" unicode="&#x1ea6;" horiz-adv-x="1219" 
d="M1065 1709h-136l-262 230h184zM274 1510l277 213h118l277 -213h-185l-148 113h-6l-148 -113h-185zM608 1141h-7l-193 -590h392zM231 0h-209l476 1365h223l476 -1365h-221l-127 391h-490z" />
    <glyph glyph-name="acircumflexgrave" unicode="&#x1ea7;" horiz-adv-x="1067" 
d="M255 1188l217 303h126l217 -303h-161l-117 180h-4l-117 -180h-161zM1001 1411h-149l-235 279h193zM501 142q93 0 161 58t68 149v119h-243q-99 0 -147 -42t-48 -118t58 -122q58 -44 151 -44zM432 -17q-154 -1 -249 87t-95 232t96 224q96 81 275 82h271v103q0 96 -54 147
t-149 51t-149 -44t-61 -119h-190q8 145 109 235t287 90t297 -91t111 -258v-722h-193v130h-7q-88 -147 -299 -147z" />
    <glyph glyph-name="Acircumflexhookabove" unicode="&#x1ea8;" horiz-adv-x="1219" 
d="M840 1941q58 -1 104 -37t46 -94t-32 -93q-32 -36 -81 -52l-60 78q63 17 63 55q0 24 -24 40t-52 15q-29 0 -59 -8v84q37 12 95 12zM274 1510l277 213h118l277 -213h-185l-148 113h-6l-148 -113h-185zM608 1141h-7l-193 -590h392zM231 0h-209l476 1365h223l476 -1365h-221
l-127 391h-490z" />
    <glyph glyph-name="acircumflexhookabove" unicode="&#x1ea9;" horiz-adv-x="1067" 
d="M255 1188l217 303h126l217 -303h-161l-117 180h-4l-117 -180h-161zM859 1563q0 36 -29 60q-30 24 -76 24t-82 -19v103q32 18 114 18q82 1 137 -49q56 -50 56 -131q0 -127 -150 -188l-61 83q91 39 91 99zM501 142q93 0 161 58t68 149v119h-243q-99 0 -147 -42t-48 -118
t58 -122q58 -44 151 -44zM432 -17q-154 -1 -249 87t-95 232t96 224q96 81 275 82h271v103q0 96 -54 147t-149 51t-149 -44t-61 -119h-190q8 145 109 235t287 90t297 -91t111 -258v-722h-193v130h-7q-88 -147 -299 -147z" />
    <glyph glyph-name="Acircumflextilde" unicode="&#x1eaa;" horiz-adv-x="1219" 
d="M348 1783q0 69 44 115t107 46q64 0 112 -40q47 -40 77 -41q60 0 64 62h114q0 -65 -50 -117t-122 -52q-38 0 -70 21t-60 42q-26 21 -50 21t-38 -16t-15 -41h-113zM283 1510l271 202h112l271 -202h-180l-145 110h-4l-145 -110h-180zM608 1141h-7l-193 -590h392zM231 0h-209
l476 1365h223l476 -1365h-221l-127 391h-490z" />
    <glyph glyph-name="acircumflextilde" unicode="&#x1eab;" horiz-adv-x="1067" 
d="M255 1188l217 303h126l217 -303h-161l-117 180h-4l-117 -180h-161zM257 1598q1 88 45 150t125 61q81 1 125 -59t75 -60q59 0 66 101h119q0 -82 -48 -147t-132 -65q-42 1 -74 19t-48 40q-42 60 -78 60q-54 0 -57 -100h-118zM501 142q93 0 161 58t68 149v119h-243
q-99 0 -147 -42t-48 -118t58 -122q58 -44 151 -44zM432 -17q-154 -1 -249 87t-95 232t96 224q96 81 275 82h271v103q0 96 -54 147t-149 51t-149 -44t-61 -119h-190q8 145 109 235t287 90t297 -91t111 -258v-722h-193v130h-7q-88 -147 -299 -147z" />
    <glyph glyph-name="Acircumflexdotbelow" unicode="&#x1eac;" horiz-adv-x="1219" 
d="M331 1510l217 291h124l217 -291h-160l-117 172h-4l-117 -172h-160zM511 -267q0 43 29 73t71 29q42 1 71 -29t29 -74t-29 -72q-28 -29 -70 -29q-42 -1 -72 29t-29 73zM608 1141h-7l-193 -590h392zM231 0h-209l476 1365h223l476 -1365h-221l-127 391h-490z" />
    <glyph glyph-name="acircumflexdotbelow" unicode="&#x1ead;" horiz-adv-x="1067" 
d="M437 -267q0 43 29 73t71 29q42 1 71 -29t29 -74t-29 -72q-28 -29 -70 -29q-42 -1 -72 29t-29 73zM255 1188l217 303h126l217 -303h-161l-117 180h-4l-117 -180h-161zM501 142q93 0 161 58t68 149v119h-243q-99 0 -147 -42t-48 -118t58 -122q58 -44 151 -44zM432 -17
q-154 -1 -249 87t-95 232t96 224q96 81 275 82h271v103q0 96 -54 147t-149 51t-149 -44t-61 -119h-190q8 145 109 235t287 90t297 -91t111 -258v-722h-193v130h-7q-88 -147 -299 -147z" />
    <glyph glyph-name="Abreveacute" unicode="&#x1eae;" horiz-adv-x="1219" 
d="M515 1750l138 195h177l-171 -195h-144zM925 1726q0 -95 -85 -165t-230 -70q-144 0 -230 70t-86 165h130q0 -49 48 -86t138 -37q91 0 138 37t47 86h130zM608 1141h-7l-193 -590h392zM231 0h-209l476 1365h223l476 -1365h-221l-127 391h-490z" />
    <glyph glyph-name="abreveacute" unicode="&#x1eaf;" horiz-adv-x="1067" 
d="M240 1466h130q0 -69 42 -116t123 -47t123 47t42 116h129q0 -106 -73 -193q-73 -88 -221 -88q-149 0 -222 87t-73 194zM588 1471h-149l191 278h193zM501 142q93 0 161 58t68 149v119h-243q-99 0 -147 -42t-48 -118t58 -122q58 -44 151 -44zM432 -17q-154 -1 -249 87
t-95 232t96 224q96 81 275 82h271v103q0 96 -54 147t-149 51t-149 -44t-61 -119h-190q8 145 109 235t287 90t297 -91t111 -258v-722h-193v130h-7q-88 -147 -299 -147z" />
    <glyph glyph-name="Abrevegrave" unicode="&#x1eb0;" horiz-adv-x="1219" 
d="M699 1750h-143l-172 195h178zM925 1726q0 -95 -85 -165t-230 -70q-144 0 -230 70t-86 165h130q0 -49 48 -86t138 -37q91 0 138 37t47 86h130zM608 1141h-7l-193 -590h392zM231 0h-209l476 1365h223l476 -1365h-221l-127 391h-490z" />
    <glyph glyph-name="abrevegrave" unicode="&#x1eb1;" horiz-adv-x="1067" 
d="M240 1466h130q0 -69 42 -116t123 -47t123 47t42 116h129q0 -106 -73 -193q-73 -88 -221 -88q-149 0 -222 87t-73 194zM626 1471h-149l-234 278h193zM501 142q93 0 161 58t68 149v119h-243q-99 0 -147 -42t-48 -118t58 -122q58 -44 151 -44zM432 -17q-154 -1 -249 87
t-95 232t96 224q96 81 275 82h271v103q0 96 -54 147t-149 51t-149 -44t-61 -119h-190q8 145 109 235t287 90t297 -91t111 -258v-722h-193v130h-7q-88 -147 -299 -147z" />
    <glyph glyph-name="Abrevehookabove" unicode="&#x1eb2;" horiz-adv-x="1219" 
d="M578 1938q54 0 100 -37t46 -91t-32 -90q-32 -35 -78 -48l-61 77q61 13 61 50q0 23 -23 37t-53 13q-30 0 -56 -9v86q42 12 96 12zM923 1711q-1 -90 -87 -157t-226 -67t-226 67t-86 157h128q0 -47 48 -83t136 -36t136 36t48 83h129zM608 1141h-7l-193 -590h392zM231 0h-209
l476 1365h223l476 -1365h-221l-127 391h-490z" />
    <glyph glyph-name="abrevehookabove" unicode="&#x1eb3;" horiz-adv-x="1067" 
d="M240 1466h130q0 -69 42 -116t123 -47t123 47t42 116h129q0 -106 -73 -193q-73 -88 -221 -88q-149 0 -222 87t-73 194zM470 1811q82 0 137 -50q56 -50 56 -130q0 -128 -149 -188l-62 83q50 22 71 44t21 56t-30 58t-76 25q-46 0 -82 -19v103q32 18 114 18zM501 142
q93 0 161 58t68 149v119h-243q-99 0 -147 -42t-48 -118t58 -122q58 -44 151 -44zM432 -17q-154 -1 -249 87t-95 232t96 224q96 81 275 82h271v103q0 96 -54 147t-149 51t-149 -44t-61 -119h-190q8 145 109 235t287 90t297 -91t111 -258v-722h-193v130h-7q-88 -147 -299 -147
z" />
    <glyph glyph-name="Abrevetilde" unicode="&#x1eb4;" horiz-adv-x="1219" 
d="M692 1863q57 0 61 63h116q-1 -66 -51 -118t-115 -53q-65 1 -111 43q-47 42 -74 42q-55 0 -58 -58h-115q0 69 44 116t99 47q55 -1 90 -21t63 -40t51 -21zM923 1711q-1 -90 -87 -157t-226 -67t-226 67t-86 157h128q0 -47 48 -83t136 -36t136 36t48 83h129zM608 1141h-7
l-193 -590h392zM231 0h-209l476 1365h223l476 -1365h-221l-127 391h-490z" />
    <glyph glyph-name="abrevetilde" unicode="&#x1eb5;" horiz-adv-x="1067" 
d="M240 1466h130q0 -69 42 -116t123 -47t123 47t42 116h129q0 -106 -73 -193q-73 -88 -221 -88q-149 0 -222 87t-73 194zM257 1598q1 88 45 150t125 61q81 1 125 -59t75 -60q59 0 66 101h119q0 -82 -48 -147t-132 -65q-42 1 -74 19t-48 40q-42 60 -78 60q-54 0 -57 -100
h-118zM501 142q93 0 161 58t68 149v119h-243q-99 0 -147 -42t-48 -118t58 -122q58 -44 151 -44zM432 -17q-154 -1 -249 87t-95 232t96 224q96 81 275 82h271v103q0 96 -54 147t-149 51t-149 -44t-61 -119h-190q8 145 109 235t287 90t297 -91t111 -258v-722h-193v130h-7
q-88 -147 -299 -147z" />
    <glyph glyph-name="Abrevedotbelow" unicode="&#x1eb6;" horiz-adv-x="1219" 
d="M319 1762h127q0 -67 42 -111t122 -44t122 44t42 111h126q0 -103 -71 -187t-218 -84t-220 83q-72 83 -72 188zM512 -267q0 43 29 73t71 29q42 1 71 -29t29 -74t-29 -72q-29 -29 -71 -29q-42 -1 -71 29t-29 73zM608 1141h-7l-193 -590h392zM231 0h-209l476 1365h223
l476 -1365h-221l-127 391h-490z" />
    <glyph glyph-name="abrevedotbelow" unicode="&#x1eb7;" horiz-adv-x="1067" 
d="M240 1466h130q0 -69 42 -116t123 -47t123 47t42 116h129q0 -106 -73 -193q-73 -88 -221 -88q-149 0 -222 87t-73 194zM437 -267q0 43 29 73t71 29q42 1 71 -29t29 -74t-29 -72q-28 -29 -70 -29q-42 -1 -72 29t-29 73zM501 142q93 0 161 58t68 149v119h-243
q-99 0 -147 -42t-48 -118t58 -122q58 -44 151 -44zM432 -17q-154 -1 -249 87t-95 232t96 224q96 81 275 82h271v103q0 96 -54 147t-149 51t-149 -44t-61 -119h-190q8 145 109 235t287 90t297 -91t111 -258v-722h-193v130h-7q-88 -147 -299 -147z" />
    <glyph glyph-name="Edotbelow" unicode="&#x1eb8;" horiz-adv-x="1107" 
d="M996 177v-177h-838v1365h838v-177h-633v-408h597v-170h-597v-433h633zM473 -267q0 43 29 73t71 29q42 1 71 -29t29 -74t-29 -72q-28 -29 -70 -29q-42 -1 -72 29t-29 73z" />
    <glyph glyph-name="edotbelow" unicode="&#x1eb9;" horiz-adv-x="1093" 
d="M304 628h490v3q0 120 -68 200t-177 80t-177 -80t-68 -200v-3zM541 -18q-194 0 -316 134t-122 363v111q-1 218 119 350t327 132t325 -134t119 -358v-100h-689v-22q0 -141 70 -227t187 -86q85 0 143 40t81 112h195q-28 -139 -136 -227t-303 -88zM456 -267q0 43 29 73t71 29
q42 1 71 -29t29 -74t-29 -72q-29 -29 -71 -29q-42 -1 -71 29t-29 73z" />
    <glyph glyph-name="Ehookabove" unicode="&#x1eba;" horiz-adv-x="1107" 
d="M619 1608q0 58 -90 58q-49 0 -91 -10v98q45 16 119 16t131 -40t57 -115q0 -107 -145 -163l-69 83q88 23 88 73zM996 177v-177h-838v1365h838v-177h-633v-408h597v-170h-597v-433h633z" />
    <glyph glyph-name="ehookabove" unicode="&#x1ebb;" horiz-adv-x="1093" 
d="M598 1355q0 37 -30 62t-76 25t-86 -19v105q36 18 119 18t139 -51t57 -133q0 -128 -153 -193l-64 85q94 41 94 101zM304 628h490v3q0 120 -68 200t-177 80t-177 -80t-68 -200v-3zM541 -18q-194 0 -316 134t-122 363v111q-1 218 119 350t327 132t325 -134t119 -358v-100
h-689v-22q0 -141 70 -227t187 -86q85 0 143 40t81 112h195q-28 -139 -136 -227t-303 -88z" />
    <glyph glyph-name="Etilde" unicode="&#x1ebc;" horiz-adv-x="1107" 
d="M678 1588q54 0 62 96h115q0 -80 -47 -142t-120 -62q-72 0 -120 40q-20 16 -48 44t-58 29q-55 0 -58 -94h-115q0 83 44 143t125 59t134 -57t86 -56zM996 177v-177h-838v1365h838v-177h-633v-408h597v-170h-597v-433h633z" />
    <glyph glyph-name="etilde" unicode="&#x1ebd;" horiz-adv-x="1093" 
d="M654 1304q63 0 73 110h128q1 -89 -53 -160t-142 -71t-147 64t-98 64q-62 0 -66 -108h-128q0 95 50 161t139 67q45 0 84 -20q39 -19 61 -43q59 -64 99 -64zM304 628h490v3q0 120 -68 200t-177 80t-177 -80t-68 -200v-3zM541 -18q-194 0 -316 134t-122 363v111
q-1 218 119 350t327 132t325 -134t119 -358v-100h-689v-22q0 -141 70 -227t187 -86q85 0 143 40t81 112h195q-28 -139 -136 -227t-303 -88z" />
    <glyph glyph-name="Ecircumflexacute" unicode="&#x1ebe;" horiz-adv-x="1107" 
d="M770 1709l197 230h184l-245 -230h-136zM235 1510l277 213h118l277 -213h-185l-148 113h-6l-148 -113h-185zM996 177v-177h-838v1365h838v-177h-633v-408h597v-170h-597v-433h633z" />
    <glyph glyph-name="ecircumflexacute" unicode="&#x1ebf;" horiz-adv-x="1093" 
d="M304 628h490v3q0 120 -68 200t-177 80t-177 -80t-68 -200v-3zM541 -18q-194 0 -316 134t-122 363v111q-1 218 119 350t327 132t325 -134t119 -358v-100h-689v-22q0 -141 70 -227t187 -86q85 0 143 40t81 112h195q-28 -139 -136 -227t-303 -88zM268 1188l217 303h126
l217 -303h-161l-117 180h-4l-117 -180h-161zM906 1411h-149l191 279h193z" />
    <glyph glyph-name="Ecircumflexgrave" unicode="&#x1ec0;" horiz-adv-x="1107" 
d="M1026 1709h-136l-262 230h184zM235 1510l277 213h118l277 -213h-185l-148 113h-6l-148 -113h-185zM996 177v-177h-838v1365h838v-177h-633v-408h597v-170h-597v-433h633z" />
    <glyph glyph-name="ecircumflexgrave" unicode="&#x1ec1;" horiz-adv-x="1093" 
d="M304 628h490v3q0 120 -68 200t-177 80t-177 -80t-68 -200v-3zM541 -18q-194 0 -316 134t-122 363v111q-1 218 119 350t327 132t325 -134t119 -358v-100h-689v-22q0 -141 70 -227t187 -86q85 0 143 40t81 112h195q-28 -139 -136 -227t-303 -88zM268 1188l217 303h126
l217 -303h-161l-117 180h-4l-117 -180h-161zM1014 1411h-149l-235 279h193z" />
    <glyph glyph-name="Ecircumflexhookabove" unicode="&#x1ec2;" horiz-adv-x="1107" 
d="M800 1941q58 -1 105 -37q46 -36 46 -94t-32 -93q-32 -36 -81 -52l-60 78q63 17 63 55q1 24 -23 40t-53 15q-29 0 -59 -8v84q36 12 94 12zM235 1510l277 213h118l277 -213h-185l-148 113h-6l-148 -113h-185zM996 177v-177h-838v1365h838v-177h-633v-408h597v-170h-597
v-433h633z" />
    <glyph glyph-name="ecircumflexhookabove" unicode="&#x1ec3;" horiz-adv-x="1093" 
d="M304 628h490v3q0 120 -68 200t-177 80t-177 -80t-68 -200v-3zM541 -18q-194 0 -316 134t-122 363v111q-1 218 119 350t327 132t325 -134t119 -358v-100h-689v-22q0 -141 70 -227t187 -86q85 0 143 40t81 112h195q-28 -139 -136 -227t-303 -88zM268 1188l217 303h126
l217 -303h-161l-117 180h-4l-117 -180h-161zM872 1563q0 36 -29 60t-75 24t-83 -19v103q31 18 113 18q82 1 138 -49t56 -131q0 -127 -150 -188l-61 83q91 39 91 99z" />
    <glyph glyph-name="Ecircumflextilde" unicode="&#x1ec4;" horiz-adv-x="1107" 
d="M996 177v-177h-838v1365h838v-177h-633v-408h597v-170h-597v-433h633zM309 1783q-1 69 43 115t108 46t112 -40q47 -40 77 -41q60 0 64 62h114q1 -65 -49 -117t-123 -52q-39 0 -71 21t-58 42t-50 21t-38 -16t-16 -41h-113zM244 1510l271 202h112l271 -202h-180l-145 110
h-4l-145 -110h-180z" />
    <glyph glyph-name="ecircumflextilde" unicode="&#x1ec5;" horiz-adv-x="1093" 
d="M268 1188l217 303h126l217 -303h-161l-117 180h-4l-117 -180h-161zM270 1598q0 88 44 150t126 61q80 1 124 -59q44 -59 76 -60q59 0 66 101h119q0 -82 -48 -147t-132 -65q-42 1 -74 19t-48 40q-42 60 -78 60q-54 0 -57 -100h-118zM304 628h490v3q0 120 -68 200t-177 80
t-177 -80t-68 -200v-3zM541 -18q-194 0 -316 134t-122 363v111q-1 218 119 350t327 132t325 -134t119 -358v-100h-689v-22q0 -141 70 -227t187 -86q85 0 143 40t81 112h195q-28 -139 -136 -227t-303 -88z" />
    <glyph glyph-name="Ecircumflexdotbelow" unicode="&#x1ec6;" horiz-adv-x="1107" 
d="M996 177v-177h-838v1365h838v-177h-633v-408h597v-170h-597v-433h633zM292 1510l217 291h124l217 -291h-160l-117 172h-4l-117 -172h-160zM473 -267q0 43 29 73t71 29q42 1 71 -29t29 -74t-29 -72q-28 -29 -70 -29q-42 -1 -72 29t-29 73z" />
    <glyph glyph-name="ecircumflexdotbelow" unicode="&#x1ec7;" horiz-adv-x="1093" 
d="M456 -267q0 43 29 73t71 29q42 1 71 -29t29 -74t-29 -72q-29 -29 -71 -29q-42 -1 -71 29t-29 73zM304 628h490v3q0 120 -68 200t-177 80t-177 -80t-68 -200v-3zM541 -18q-194 0 -316 134t-122 363v111q-1 218 119 350t327 132t325 -134t119 -358v-100h-689v-22
q0 -141 70 -227t187 -86q85 0 143 40t81 112h195q-28 -139 -136 -227t-303 -88zM268 1188l217 303h126l217 -303h-161l-117 180h-4l-117 -180h-161z" />
    <glyph glyph-name="Ihookabove" unicode="&#x1ec8;" horiz-adv-x="521" 
d="M308 1608q0 58 -90 58q-49 0 -91 -10v98q45 16 119 16t131 -40t57 -115q0 -107 -145 -163l-69 83q88 23 88 73zM364 0h-206v1365h206v-1365z" />
    <glyph glyph-name="ihookabove" unicode="&#x1ec9;" horiz-adv-x="514" 
d="M304 1355q0 37 -30 62t-76 25t-86 -19v105q36 18 119 18t139 -51t57 -133q0 -128 -153 -193l-64 85q94 41 94 101zM156 0v1054h202v-1054h-202z" />
    <glyph glyph-name="Idotbelow" unicode="&#x1eca;" horiz-adv-x="521" 
d="M162 -267q0 43 29 73t71 29q42 1 71 -29t29 -74t-29 -72q-29 -29 -71 -29q-42 -1 -71 29t-29 73zM364 0h-206v1365h206v-1365z" />
    <glyph glyph-name="idotbelow" unicode="&#x1ecb;" horiz-adv-x="514" 
d="M159 -267q0 43 29 73t71 29q42 1 71 -29t29 -74t-29 -72q-28 -29 -70 -29q-42 -1 -72 29t-29 73zM134 1311q0 51 36 85t87 34t87 -34t36 -85t-36 -85t-87 -34t-87 34t-36 85zM156 0v1054h202v-1054h-202z" />
    <glyph glyph-name="Odotbelow" unicode="&#x1ecc;" horiz-adv-x="1326" 
d="M103 580v192q0 289 152 455t410 166q258 1 408 -165t150 -456v-192q0 -288 -151 -448q-150 -160 -410 -160t-410 160t-149 448zM311 774v-194q0 -211 97 -320t255 -109t255 109t97 320v194q1 212 -97 326t-254 114t-255 -114q-98 -114 -98 -326zM562 -267q0 43 29 73
t71 29q42 1 71 -29t29 -74t-29 -72q-29 -29 -71 -29q-42 -1 -71 29t-29 73z" />
    <glyph glyph-name="odotbelow" unicode="&#x1ecd;" horiz-adv-x="1132" 
d="M566 906q-124 0 -192 -91t-68 -246v-81q0 -154 68 -246t192 -92q126 0 192 92t67 246v81q0 155 -67 246t-192 91zM566 1072q218 0 340 -138t122 -360v-89q0 -227 -121 -365t-341 -138t-341 138q-122 138 -122 365v88q1 221 123 360t340 139zM469 -267q0 43 29 73t71 29
q42 1 71 -29t29 -74t-29 -72q-28 -29 -70 -29q-42 -1 -72 29t-29 73z" />
    <glyph glyph-name="Ohookabove" unicode="&#x1ece;" horiz-adv-x="1326" 
d="M103 580v192q0 289 152 455t410 166q258 1 408 -165t150 -456v-192q0 -288 -151 -448q-150 -160 -410 -160t-410 160t-149 448zM311 774v-194q0 -211 97 -320t255 -109t255 109t97 320v194q1 212 -97 326t-254 114t-255 -114q-98 -114 -98 -326zM709 1608q0 58 -90 58
q-49 0 -91 -10v98q45 16 119 16t131 -40t57 -115q0 -107 -145 -163l-69 83q88 23 88 73z" />
    <glyph glyph-name="ohookabove" unicode="&#x1ecf;" horiz-adv-x="1132" 
d="M617 1355q0 37 -30 62t-76 25t-86 -19v105q36 18 119 18q84 0 140 -51t56 -133q0 -128 -153 -193l-64 85q94 41 94 101zM566 906q-124 0 -192 -91t-68 -246v-81q0 -154 68 -246t192 -92q126 0 192 92t67 246v81q0 155 -67 246t-192 91zM566 1072q218 0 340 -138t122 -360
v-89q0 -227 -121 -365t-341 -138t-341 138q-122 138 -122 365v88q1 221 123 360t340 139z" />
    <glyph glyph-name="Ocircumflexacute" unicode="&#x1ed0;" horiz-adv-x="1326" 
d="M103 580v192q0 289 152 455t410 166q258 1 408 -165t150 -456v-192q0 -288 -151 -448q-150 -160 -410 -160t-410 160t-149 448zM311 774v-194q0 -211 97 -320t255 -109t255 109t97 320v194q1 212 -97 326t-254 114t-255 -114q-98 -114 -98 -326zM860 1709l197 230h184
l-245 -230h-136zM325 1510l277 213h118l277 -213h-185l-148 113h-6l-148 -113h-185z" />
    <glyph glyph-name="ocircumflexacute" unicode="&#x1ed1;" horiz-adv-x="1132" 
d="M566 906q-124 0 -192 -91t-68 -246v-81q0 -154 68 -246t192 -92q126 0 192 92t67 246v81q0 155 -67 246t-192 91zM566 1072q218 0 340 -138t122 -360v-89q0 -227 -121 -365t-341 -138t-341 138q-122 138 -122 365v88q1 221 123 360t340 139zM287 1188l217 303h126
l217 -303h-161l-117 180h-4l-117 -180h-161zM925 1411h-149l191 279h193z" />
    <glyph glyph-name="Ocircumflexgrave" unicode="&#x1ed2;" horiz-adv-x="1326" 
d="M103 580v192q0 289 152 455t410 166q258 1 408 -165t150 -456v-192q0 -288 -151 -448q-150 -160 -410 -160t-410 160t-149 448zM311 774v-194q0 -211 97 -320t255 -109t255 109t97 320v194q1 212 -97 326t-254 114t-255 -114q-98 -114 -98 -326zM1116 1709h-136l-262 230
h184zM325 1510l277 213h118l277 -213h-185l-148 113h-6l-148 -113h-185z" />
    <glyph glyph-name="ocircumflexgrave" unicode="&#x1ed3;" horiz-adv-x="1132" 
d="M566 906q-124 0 -192 -91t-68 -246v-81q0 -154 68 -246t192 -92q126 0 192 92t67 246v81q0 155 -67 246t-192 91zM566 1072q218 0 340 -138t122 -360v-89q0 -227 -121 -365t-341 -138t-341 138q-122 138 -122 365v88q1 221 123 360t340 139zM287 1188l217 303h126
l217 -303h-161l-117 180h-4l-117 -180h-161zM1033 1411h-149l-235 279h193z" />
    <glyph glyph-name="Ocircumflexhookabove" unicode="&#x1ed4;" horiz-adv-x="1326" 
d="M103 580v192q0 289 152 455t410 166q258 1 408 -165t150 -456v-192q0 -288 -151 -448q-150 -160 -410 -160t-410 160t-149 448zM311 774v-194q0 -211 97 -320t255 -109t255 109t97 320v194q1 212 -97 326t-254 114t-255 -114q-98 -114 -98 -326zM890 1941q58 -1 105 -37
q46 -36 46 -94t-32 -93q-32 -36 -81 -52l-60 78q63 17 63 55q1 24 -23 40t-53 15q-29 0 -59 -8v84q36 12 94 12zM325 1510l277 213h118l277 -213h-185l-148 113h-6l-148 -113h-185z" />
    <glyph glyph-name="ocircumflexhookabove" unicode="&#x1ed5;" horiz-adv-x="1132" 
d="M566 906q-124 0 -192 -91t-68 -246v-81q0 -154 68 -246t192 -92q126 0 192 92t67 246v81q0 155 -67 246t-192 91zM566 1072q218 0 340 -138t122 -360v-89q0 -227 -121 -365t-341 -138t-341 138q-122 138 -122 365v88q1 221 123 360t340 139zM287 1188l217 303h126
l217 -303h-161l-117 180h-4l-117 -180h-161zM891 1563q0 36 -29 60q-30 24 -76 24t-82 -19v103q32 18 114 18q82 1 137 -49q56 -50 56 -131q0 -127 -150 -188l-61 83q91 39 91 99z" />
    <glyph glyph-name="Ocircumflextilde" unicode="&#x1ed6;" horiz-adv-x="1326" 
d="M103 580v192q0 289 152 455t410 166q258 1 408 -165t150 -456v-192q0 -288 -151 -448q-150 -160 -410 -160t-410 160t-149 448zM311 774v-194q0 -211 97 -320t255 -109t255 109t97 320v194q1 212 -97 326t-254 114t-255 -114q-98 -114 -98 -326zM399 1783q-1 69 43 115
t108 46t112 -40q47 -40 77 -41q60 0 64 62h114q1 -65 -49 -117t-123 -52q-39 0 -71 21t-58 42t-50 21t-38 -16t-16 -41h-113zM334 1510l271 202h112l271 -202h-180l-145 110h-4l-145 -110h-180z" />
    <glyph glyph-name="ocircumflextilde" unicode="&#x1ed7;" horiz-adv-x="1132" 
d="M566 906q-124 0 -192 -91t-68 -246v-81q0 -154 68 -246t192 -92q126 0 192 92t67 246v81q0 155 -67 246t-192 91zM566 1072q218 0 340 -138t122 -360v-89q0 -227 -121 -365t-341 -138t-341 138q-122 138 -122 365v88q1 221 123 360t340 139zM287 1188l217 303h126
l217 -303h-161l-117 180h-4l-117 -180h-161zM289 1598q1 88 45 150t125 61q81 1 125 -59q44 -59 75 -60q59 0 66 101h119q0 -82 -48 -147t-132 -65q-42 1 -74 19t-48 40q-42 60 -78 60q-54 0 -57 -100h-118z" />
    <glyph glyph-name="Ocircumflexdotbelow" unicode="&#x1ed8;" horiz-adv-x="1326" 
d="M103 580v192q0 289 152 455t410 166q258 1 408 -165t150 -456v-192q0 -288 -151 -448q-150 -160 -410 -160t-410 160t-149 448zM311 774v-194q0 -211 97 -320t255 -109t255 109t97 320v194q1 212 -97 326t-254 114t-255 -114q-98 -114 -98 -326zM382 1510l217 291h124
l217 -291h-160l-117 172h-4l-117 -172h-160zM563 -267q0 43 29 73t71 29q42 1 71 -29t29 -74t-29 -72q-28 -29 -70 -29q-42 -1 -72 29t-29 73z" />
    <glyph glyph-name="ocircumflexdotbelow" unicode="&#x1ed9;" horiz-adv-x="1132" 
d="M469 -267q0 43 29 73t71 29q42 1 71 -29t29 -74t-29 -72q-28 -29 -70 -29q-42 -1 -72 29t-29 73zM566 906q-124 0 -192 -91t-68 -246v-81q0 -154 68 -246t192 -92q126 0 192 92t67 246v81q0 155 -67 246t-192 91zM566 1072q218 0 340 -138t122 -360v-89q0 -227 -121 -365
t-341 -138t-341 138q-122 138 -122 365v88q1 221 123 360t340 139zM287 1188l217 303h126l217 -303h-161l-117 180h-4l-117 -180h-161z" />
    </font>
</defs>
</svg>
