<?xml version="1.0" encoding="utf-8"?>
<!-- Generator: Adobe Illustrator 18.1.1, SVG Export Plug-In . SVG Version: 6.00 Build 0)  -->
<svg version="1.1" id="Layer_1" xmlns="http://www.w3.org/2000/svg" xmlns:xlink="http://www.w3.org/1999/xlink" x="0px" y="0px"
	 viewBox="0 0 50 50" enable-background="new 0 0 50 50" xml:space="preserve">
<path fill="#010101" d="M21.5,18.9c0-2.4,2-4.4,4.4-4.4s4.4,2,4.4,4.4s-2,4.4-4.4,4.4S21.5,21.3,21.5,18.9z M11.1,18.9
	c0-2.4,2-4.4,4.4-4.4s4.4,2,4.4,4.4s-2,4.4-4.4,4.4S11.1,21.3,11.1,18.9z M32,27.6V25c0-1-0.8-1.7-1.7-1.7H12.8
	c-1,0-1.7,0.8-1.7,1.7v8.7c0,1,0.8,1.7,1.7,1.7h17.4c1,0,1.7-0.8,1.7-1.7v-2.6l7,4.4V23.3L32,27.6z M28.5,32H14.5v-5.2h13.9V32z"/>
<g>
	<path fill="#010101" d="M46,4v42H4V4H46 M50,0H0v50h50V0L50,0z"/>
</g>
</svg>
