<?xml version="1.0" encoding="utf-8"?>
<!-- Generator: Adobe Illustrator 18.1.1, SVG Export Plug-In . SVG Version: 6.00 Build 0)  -->
<svg version="1.1" xmlns="http://www.w3.org/2000/svg" xmlns:xlink="http://www.w3.org/1999/xlink" x="0px" y="0px"
	 viewBox="0 0 50 50" enable-background="new 0 0 50 50" xml:space="preserve">
<g id="Layer_2">
	<g>
		<path d="M46,4v42H4V4H46 M50,0H0v50h50V0L50,0z"/>
	</g>
</g>
<g id="Layer_1">
	<path fill="#010101" d="M35.8,12.7h1.5v17.7c0,2.1-2.4,3.9-5.4,3.9s-5.4-1.7-5.4-3.9s2.4-3.9,5.4-3.9c1.5,0,2.9,0.4,3.9,1.2v-8.9
		l-12.3,2.7v11.9c0,2.1-2.4,3.9-5.4,3.9s-5.4-1.7-5.4-3.9s2.4-3.9,5.4-3.9c1.5,0,2.9,0.4,3.9,1.2v-15L35.8,12.7z"/>
</g>
</svg>
